<svg width="155" height="155" viewBox="0 0 155 155" fill="none" xmlns="http://www.w3.org/2000/svg">
<path d="M77.5 155C120.302 155 155 120.302 155 77.5C155 34.6979 120.302 0 77.5 0C34.6979 0 0 34.6979 0 77.5C0 120.302 34.6979 155 77.5 155Z" fill="#C4C4C4"/>
<path d="M61.4346 76.046L59.945 75.0115C59.4224 74.6382 58.8785 74.2471 58.3061 73.8312C57.1756 73.0029 55.9598 72.0928 54.7084 71.0974C54.0792 70.6032 53.4535 70.0806 52.8172 69.5438C52.1808 69.007 51.548 68.4382 50.933 67.8516L50.485 67.3895L50.0336 66.9344C49.8878 66.7816 49.7456 66.6216 49.5998 66.4652L49.1946 66.003L48.9813 65.7399L48.8711 65.6084L48.8462 65.5764V65.5586C48.8462 65.5586 48.8213 65.5302 48.8462 65.5586L48.7964 65.4911L48.3876 64.9578C48.1209 64.6023 47.8579 64.2468 47.6055 63.8913C47.0864 63.1803 46.5994 62.4195 46.1479 61.6552C45.9204 61.2748 45.7035 60.8873 45.4973 60.4962C45.2911 60.1052 45.0992 59.707 44.9214 59.3088C44.1876 57.776 43.7475 56.1192 43.6238 54.4242C43.6238 54.3247 43.6238 54.218 43.6238 54.122V53.6812V53.5106V53.2013C43.6562 52.8134 43.7168 52.4285 43.8051 52.0494C43.8878 51.6945 44.0069 51.349 44.1606 51.0185C44.2374 50.8633 44.3229 50.7126 44.4166 50.567C44.4628 50.4994 44.5197 50.4212 44.5623 50.3679C44.5911 50.3272 44.6219 50.2881 44.6548 50.2506L44.733 50.1617C45.6537 49.1165 47.1966 48.6295 48.6791 48.5726C48.8638 48.562 49.049 48.562 49.2337 48.5726C49.415 48.5726 49.5892 48.6046 49.7776 48.633C50.138 48.6856 50.4943 48.7628 50.8441 48.8641C51.6041 49.094 52.3093 49.4762 52.9167 49.9875C54.5662 51.6548 55.4977 51.4095 55.8567 50.4603C56.07 49.9093 54.2712 49.3512 53.3042 48.7824C52.6531 48.3591 51.9582 48.0075 51.2316 47.7336C50.8427 47.586 50.4435 47.4671 50.0371 47.3781C49.8309 47.3283 49.6176 47.2892 49.4008 47.2572C49.1839 47.2252 48.9706 47.1861 48.7502 47.1613C48.3007 47.1094 47.8476 47.0952 47.3957 47.1186C46.9166 47.1414 46.4406 47.208 45.9737 47.3177C45.4817 47.4369 45.0047 47.611 44.5517 47.8367C44.0813 48.0732 43.6459 48.3735 43.2576 48.729L43.1865 48.7966L43.1474 48.8321H43.1297L43.1048 48.8606C43.0621 48.8997 43.0337 48.9281 42.9768 48.9885C42.9199 49.049 42.7884 49.1947 42.6995 49.3014C42.5295 49.5131 42.3728 49.7351 42.2302 49.9662C41.9601 50.4227 41.7419 50.908 41.5797 51.4131C41.4163 51.9051 41.2973 52.4107 41.2241 52.924L41.1815 53.2795V53.4501C41.1815 53.5106 41.1815 53.5817 41.1815 53.6492L41.1602 54.0509C41.1602 54.186 41.1602 54.3105 41.1602 54.4384C41.1675 55.4576 41.2976 56.4722 41.5477 57.4602C41.6676 57.9488 41.8135 58.4306 41.9849 58.9036C42.152 59.3799 42.3404 59.8421 42.5395 60.2971C42.9467 61.1946 43.411 62.0649 43.9295 62.903C44.445 63.7349 44.9961 64.5241 45.5862 65.2849C45.8777 65.6617 46.1799 66.0314 46.4821 66.3905L46.9335 66.9238L47.1753 67.1975L47.4028 67.4499C47.5735 67.6312 47.7583 67.8054 47.9183 67.9832C48.0783 68.1609 48.256 68.3173 48.4267 68.4773L48.9386 68.9466L49.4576 69.4016C50.7839 70.5199 52.1726 71.562 53.617 72.523C54.2996 72.9816 54.9715 73.4082 55.6256 73.8134C56.2798 74.2187 56.9197 74.5955 57.5383 74.951C58.1568 75.3066 58.7541 75.6407 59.3158 75.95C59.8775 76.2593 61.5021 78.339 62.0176 78.6021C63.0592 79.1424 62.3767 76.6966 61.4346 76.046Z" fill="#DD7026"/>
<path d="M61.9234 77.7022L60.2987 76.5468L58.5212 75.2457C57.2912 74.3285 55.9687 73.3224 54.6107 72.2274C53.9245 71.6835 53.242 71.1005 52.5487 70.5103C51.8555 69.9202 51.1694 69.291 50.501 68.6404L49.9998 68.1498L49.5127 67.645C49.3492 67.4743 49.1963 67.2895 49.0364 67.1295L48.5991 66.6211L48.3645 66.3296L48.2471 66.1838L48.2187 66.1483V66.127C48.2187 66.127 48.1903 66.0985 48.2187 66.127L48.1618 66.0523L47.721 65.4657C47.4295 65.0711 47.1415 64.6765 46.8678 64.2712C46.3025 63.4749 45.7728 62.6466 45.2822 61.804C45.0334 61.381 44.7987 60.9544 44.5712 60.5242C44.3437 60.0941 44.1375 59.6532 43.942 59.2124C43.1408 57.5186 42.6587 55.6916 42.52 53.823C42.52 53.7127 42.52 53.5954 42.52 53.4888V53.1759C42.52 53.1226 42.52 53.08 42.52 53.016V52.8275V52.472C42.554 52.0434 42.6206 51.6179 42.719 51.1993C42.8116 50.8063 42.9475 50.4247 43.1243 50.0617C43.2051 49.8878 43.299 49.7202 43.4052 49.5605C43.4514 49.4858 43.5154 49.4005 43.558 49.34C43.6007 49.2796 43.6256 49.2547 43.6611 49.2121L43.7464 49.1125C44.749 47.9571 46.4269 47.4203 48.0409 47.3599C48.2422 47.3475 48.444 47.3475 48.6453 47.3599C48.8444 47.3777 49.0399 47.399 49.2354 47.431C49.6249 47.4877 50.0098 47.5721 50.3873 47.6834C51.1169 47.9004 51.8222 48.1923 52.4919 48.5544C55.7661 52.1876 57.8244 50.435 53.0642 47.5945C52.3564 47.129 51.6008 46.7404 50.8103 46.4356C50.3866 46.272 49.9518 46.139 49.5092 46.0374C49.2817 45.9841 49.0506 45.9379 48.7982 45.9023C48.5458 45.8668 48.3289 45.8241 48.0872 45.7957C47.5974 45.741 47.104 45.7255 46.6118 45.7494C46.0953 45.775 45.5823 45.8488 45.0796 45.9699C44.5487 46.1015 44.0346 46.2936 43.5474 46.5422C43.0297 46.8025 42.551 47.1339 42.1253 47.527L42.0471 47.6016L42.008 47.6407H41.9867L41.9583 47.6692C41.912 47.7154 41.88 47.7474 41.8196 47.8149C41.7058 47.9358 41.6134 48.0389 41.5174 48.1704C41.3304 48.4018 41.1605 48.6466 41.0091 48.9028C40.7121 49.4061 40.4736 49.9416 40.2981 50.499C40.1229 51.0424 39.9968 51.6004 39.9212 52.1663V52.6142L39.8999 52.8027C39.8999 52.8666 39.8999 52.9484 39.8999 53.0195L39.875 53.4639C39.875 53.6097 39.875 53.7483 39.875 53.8905C39.8753 55.0176 40.0102 56.1407 40.2767 57.2358C40.4075 57.7758 40.5665 58.3086 40.7531 58.832C40.9356 59.3534 41.137 59.8653 41.3575 60.3678C41.8004 61.359 42.3062 62.3208 42.8719 63.2474C43.4336 64.1646 44.0415 65.0249 44.6708 65.8746C44.9907 66.2905 45.3178 66.6993 45.6448 67.0975L46.139 67.6841L46.4021 67.9863L46.6474 68.2671L47.2091 68.8572C47.3939 69.0385 47.5646 69.2127 47.7601 69.3976L48.3218 69.9202L48.8835 70.4179C50.3282 71.6453 51.8415 72.7895 53.4162 73.845C54.1556 74.3498 54.888 74.8226 55.6025 75.267C56.3171 75.7114 57.0245 76.1344 57.6822 76.5255C58.3399 76.9165 59.0047 77.2863 59.6268 77.6275C60.249 77.9688 60.8391 78.2852 61.4044 78.5767C62.5242 79.1455 62.9472 78.4239 61.9234 77.7022Z" fill="#EF8C48"/>
<path d="M113.195 53.6817C113.195 53.6141 113.195 53.543 113.195 53.4826L113.177 53.312L113.134 52.9565C113.059 52.4435 112.941 51.938 112.779 51.4456C112.614 50.941 112.394 50.4558 112.125 49.9987C111.983 49.7668 111.826 49.5447 111.655 49.3339C111.566 49.2272 111.485 49.1312 111.378 49.021C111.338 48.9757 111.295 48.9329 111.25 48.893L111.225 48.8646H111.207L111.172 48.829L111.097 48.7615C110.71 48.4052 110.274 48.1048 109.803 47.8692C109.35 47.6434 108.873 47.4693 108.381 47.3501C107.914 47.2403 107.438 47.1737 106.959 47.1511C106.507 47.1276 106.054 47.1419 105.605 47.1937C105.384 47.2186 105.16 47.2577 104.954 47.2897C104.748 47.3217 104.528 47.3608 104.318 47.4106C103.911 47.4996 103.512 47.6184 103.123 47.7661C102.397 48.0414 101.703 48.393 101.051 48.8148C100.084 49.3836 98.2884 49.9418 98.4981 50.4928C98.8537 51.4242 99.7886 51.6873 101.438 50.02C102.046 49.5087 102.751 49.1265 103.511 48.8966C103.861 48.7956 104.217 48.7184 104.577 48.6655C104.759 48.6371 104.933 48.6193 105.121 48.6051C105.307 48.5944 105.493 48.5944 105.679 48.6051C107.162 48.662 108.705 49.149 109.622 50.1942L109.7 50.2831L109.796 50.4004L109.938 50.5995C110.033 50.745 110.12 50.8957 110.198 51.0509C110.353 51.3808 110.472 51.7265 110.553 52.0819C110.642 52.4609 110.702 52.8459 110.735 53.2337L110.752 53.543V53.7137C110.752 53.7706 110.752 53.8097 110.752 53.8594V54.1403C110.752 54.2363 110.752 54.3429 110.752 54.4425C110.639 56.125 110.213 57.7717 109.497 59.2987C109.32 59.6968 109.124 60.095 108.922 60.486C108.719 60.8771 108.498 61.2646 108.271 61.645C107.819 62.4093 107.336 63.1594 106.817 63.8811C106.561 64.2366 106.298 64.5921 106.031 64.9476L105.626 65.4809L105.573 65.5484C105.598 65.5164 105.573 65.5484 105.573 65.5484V65.5662L105.544 65.5982L105.438 65.7297L105.221 65.9928L104.819 66.455C104.673 66.6114 104.531 66.7714 104.382 66.9242L103.934 67.3793L103.454 67.8379C102.835 68.4245 102.203 68.9897 101.57 69.5301C100.937 70.0704 100.304 70.5966 99.6749 71.0836C98.4235 72.079 97.2112 72.9891 96.0772 73.8175C95.5084 74.2334 94.9609 74.6245 94.4418 74.9977L92.9487 76.0465C92.0066 76.697 91.3241 79.1429 92.355 78.6168C92.8705 78.3537 94.4881 76.274 95.0604 75.9647C95.6328 75.6554 96.23 75.3248 96.8379 74.9657C97.4459 74.6067 98.0964 74.2334 98.7506 73.8281C99.4047 73.4228 100.08 72.9962 100.759 72.5376C102.204 71.5826 103.594 70.5464 104.922 69.4341L105.441 68.979L105.957 68.5098C106.127 68.3498 106.294 68.1827 106.465 68.0156C106.636 67.8485 106.821 67.6601 106.977 67.4824L107.204 67.23L107.446 66.9562L107.901 66.423C108.203 66.0675 108.502 65.6942 108.797 65.3173C109.377 64.5566 109.935 63.7673 110.45 62.9355C110.969 62.0974 111.433 61.227 111.84 60.3296C112.043 59.8746 112.231 59.4124 112.395 58.936C112.566 58.4631 112.712 57.9813 112.832 57.4927C113.082 56.5046 113.212 55.4901 113.22 54.4709C113.22 54.3429 113.22 54.2185 113.22 54.0834L113.195 53.6817Z" fill="#DD7026"/>
<path d="M114.474 53.0164C114.474 52.9453 114.474 52.8636 114.474 52.7996L114.453 52.6112L114.406 52.1988C114.33 51.6333 114.205 51.0754 114.033 50.5315C113.854 49.9752 113.616 49.44 113.322 48.9352C113.169 48.679 112.998 48.4343 112.81 48.2029C112.714 48.082 112.622 47.9789 112.508 47.8474C112.447 47.7799 112.415 47.7479 112.369 47.7016L112.341 47.6732H112.323L112.28 47.6341L112.202 47.5594C111.776 47.1664 111.298 46.8349 110.78 46.5747C110.293 46.326 109.779 46.134 109.248 46.0023C108.745 45.8813 108.232 45.8075 107.716 45.7819C107.223 45.758 106.73 45.7734 106.24 45.8281C106.002 45.8566 105.757 45.8992 105.529 45.9348C105.302 45.9703 105.064 46.0165 104.84 46.0699C104.397 46.1709 103.962 46.304 103.539 46.468C102.747 46.7714 101.992 47.16 101.285 47.627C96.5067 50.471 98.5793 52.2201 101.853 48.5868C102.523 48.2248 103.228 47.9329 103.958 47.7159C104.336 47.6049 104.721 47.5206 105.11 47.4635C105.305 47.4315 105.504 47.4101 105.704 47.3924C105.905 47.3799 106.107 47.3799 106.308 47.3924C107.918 47.4528 109.6 47.9896 110.599 49.145L110.684 49.2445C110.72 49.2872 110.77 49.3441 110.787 49.3725C110.805 49.401 110.894 49.5183 110.944 49.5929C111.048 49.7535 111.142 49.921 111.225 50.0942C111.4 50.4573 111.535 50.8389 111.626 51.2318C111.725 51.6504 111.791 52.0758 111.825 52.5045L111.847 52.86V53.0484C111.847 53.1124 111.847 53.1551 111.847 53.2084V53.5213C111.847 53.6279 111.847 53.7452 111.847 53.8554C111.706 55.7237 111.224 57.5504 110.425 59.2449C110.229 59.6857 110.019 60.123 109.799 60.5567C109.579 60.9904 109.337 61.4135 109.088 61.8365C108.594 62.6791 108.064 63.5074 107.502 64.3037C107.225 64.709 106.941 65.1036 106.649 65.4982L106.205 66.0848L106.148 66.1594C106.176 66.1274 106.148 66.1594 106.148 66.1594V66.1808L106.116 66.2163L105.999 66.3621L105.764 66.6536L105.327 67.162C105.167 67.3326 105.014 67.5175 104.854 67.6774L104.363 68.1823L103.866 68.6729C103.194 69.3234 102.504 69.9456 101.814 70.5428C101.125 71.1401 100.439 71.716 99.756 72.2599C98.3944 73.3548 97.0719 74.3609 95.8454 75.2781L94.0679 76.5793L92.4326 77.7027C91.4087 78.4137 91.8353 79.146 92.9552 78.563C93.5169 78.2715 94.1094 77.9551 94.7327 77.6138C95.3513 77.2583 96.0054 76.9028 96.6737 76.5117C97.3421 76.1207 98.0424 75.7047 98.7535 75.2532C99.4645 74.8018 100.2 74.336 100.94 73.8312C102.52 72.7716 104.038 71.6226 105.487 70.3899L106.052 69.8922L106.61 69.3696C106.795 69.1954 106.966 69.0141 107.161 68.8293C107.357 68.6444 107.538 68.4347 107.723 68.2391L107.972 67.9583L108.231 67.6561L108.725 67.0695C109.057 66.6714 109.382 66.2637 109.699 65.8466C110.332 65.0076 110.94 64.1366 111.502 63.2194C112.065 62.292 112.57 61.3303 113.013 60.3398C113.233 59.8398 113.435 59.3278 113.617 58.8041C113.804 58.2807 113.963 57.7479 114.093 57.2078C114.365 56.1167 114.507 54.9975 114.517 53.8732C114.517 53.731 114.517 53.5924 114.517 53.4466L114.474 53.0164Z" fill="#EF8C48"/>
<path d="M56.6743 56.284C57.9541 63.2235 58.4909 65.9182 59.4863 69.5621C60.6702 73.9064 61.2958 76.1283 62.7641 78.7804C64.194 81.2093 65.7595 83.5558 67.4532 85.8087C68.2566 86.9143 69.3089 88.3221 70.7309 90.4942C72.3911 93.0254 72.8249 93.964 73.0773 94.5577C73.7287 96.1511 74.1489 97.8295 74.3251 99.5418C74.9294 105.514 72.2418 110.353 71.0438 112.507C70.3079 113.833 69.3302 115.244 69.1703 115.476C68.1677 116.919 67.6025 117.726 66.6817 118.6C65.7107 119.498 64.6031 120.236 63.4004 120.787H90.8952C89.6925 120.236 88.5849 119.498 87.6138 118.6C86.6824 117.726 86.1172 116.919 85.1253 115.476C84.9653 115.244 83.9877 113.833 83.2518 112.507C82.0538 110.353 79.3661 105.514 79.9705 99.5418C80.1406 97.8329 80.5535 96.157 81.197 94.5648C81.4494 93.9711 81.8831 93.0326 83.5433 90.5014C84.9653 88.3292 86.0319 86.9214 86.8211 85.8158C88.515 83.5606 90.0805 81.2117 91.5102 78.7804C92.9784 76.1283 93.6041 73.9064 94.7879 69.5621C95.7833 65.9182 96.3202 63.2235 97.6 56.284C98.2399 52.8285 98.9793 48.7865 99.7899 44.2573H54.4844C55.2949 48.7865 56.0344 52.8285 56.6743 56.284Z" fill="#EF8C48"/>
<path d="M75.9877 91.2657C73.8155 91.9056 71.6861 90.7964 69.7734 89.0687C70.0721 89.5059 70.3885 89.9788 70.7262 90.4907C72.3864 93.0219 72.8201 93.9604 73.0725 94.5541C73.7243 96.1487 74.1444 97.8283 74.3203 99.5418C74.3772 100.093 74.4021 100.633 74.4057 101.163C74.5412 101.043 74.6876 100.936 74.8429 100.843C75.0953 100.687 75.657 100.349 76.1938 100.53C77.008 100.807 77.239 102.105 77.3421 102.716C78.0034 106.698 79.301 114.501 83.9758 120.787H90.8797C89.6771 120.236 88.5695 119.498 87.5984 118.6C86.667 117.726 86.1018 116.919 85.1099 115.476C84.9499 115.244 83.9723 113.833 83.2364 112.507C82.0383 110.353 79.3507 105.514 79.9551 99.5418C80.1286 97.8324 80.5452 96.1565 81.1922 94.5648C81.4447 93.9711 81.8784 93.0326 83.5386 90.5014C84.9606 88.3292 86.0271 86.9214 86.8163 85.8158C88.5103 83.5606 90.0758 81.2117 91.5054 78.7804C92.9737 76.1283 93.5994 73.9064 94.7832 69.5621C95.7786 65.9182 96.3154 63.2235 97.5952 56.284C98.2351 52.8285 98.9746 48.7865 99.7851 44.2573H89.0453C86.4964 84.3405 78.5935 90.4978 75.9877 91.2657Z" fill="#DD7026"/>
<path d="M54.8114 46.0775H99.4628C99.5695 45.4803 99.6761 44.8723 99.7899 44.2573H54.4844C54.5981 44.8723 54.7048 45.4803 54.8114 46.0775Z" fill="#DD7026"/>
<path d="M60.9016 52.4084C60.6525 52.7792 60.5063 53.2094 60.4778 53.6551C60.4493 54.1008 60.5396 54.5462 60.7395 54.9456C60.9394 55.345 61.2417 55.6842 61.6156 55.9286C61.9894 56.173 62.4214 56.3139 62.8675 56.3367C63.3119 56.4043 64.8583 56.6318 65.7471 55.5511C66.0501 55.1659 66.236 54.7017 66.2826 54.2139C66.3293 53.726 66.2347 53.2351 66.0102 52.7995C65.1001 51.1677 61.929 50.9295 60.9016 52.4084Z" fill="#F99C5D"/>
<path d="M66.9099 59.5183C66.8246 59.0988 65.6337 58.3949 64.3681 58.4696C63.8943 58.506 63.4354 58.651 63.0266 58.8933C62.6179 59.1356 62.2704 59.4686 62.0111 59.8667C61.229 61.1181 62.779 67.7341 64.1868 71.897C66.3198 78.1788 70.0739 84.201 70.7209 83.9308C71.2471 83.7104 68.4813 79.8105 67.9978 73.1199C67.5463 66.7031 67.6352 63.0272 66.9099 59.5183Z" fill="#F99C5D"/>
<path d="M74.7125 107.444C74.4245 107.423 74.4316 109.311 73.4611 111.739C71.8756 115.713 69.1951 117.281 69.7923 118.301C70.1478 118.899 71.4063 118.959 72.2808 118.614C74.5276 117.729 74.8334 113.993 75.0147 111.739C75.1924 109.67 75.0111 107.466 74.7125 107.444Z" fill="#F99C5D"/>
<path d="M42.6142 47.7941C41.8146 48.5525 41.2234 49.5037 40.8971 50.5564C40.2501 52.3695 40.1861 53.8448 40.5843 56.0241C41.1566 59.252 42.5431 60.3434 42.7706 60.187C42.9982 60.0306 42.5929 59.0778 42.3014 58.3135C41.9459 57.3288 40.9896 54.8509 41.1566 52.533C41.21 51.79 41.3486 49.856 42.7173 48.5762C44.0362 47.3497 45.8955 47.2858 45.8422 46.9622C45.8102 46.7667 44.5517 46.1588 42.6142 47.7941Z" fill="#F99C5D"/>
<path d="M100.517 43.0581H53.7539C53.4918 43.0581 53.2404 43.1622 53.0551 43.3476C52.8697 43.5329 52.7656 43.7843 52.7656 44.0464C52.7656 44.3085 52.8697 44.5599 53.0551 44.7452C53.2404 44.9306 53.4918 45.0347 53.7539 45.0347H100.517C100.779 45.0347 101.03 44.9306 101.216 44.7452C101.401 44.5599 101.505 44.3085 101.505 44.0464C101.505 43.7843 101.401 43.5329 101.216 43.3476C101.03 43.1622 100.779 43.0581 100.517 43.0581Z" fill="#EF8C48"/>
<path d="M71.1721 43.4747H54.7691C54.7289 43.4702 54.6881 43.4742 54.6495 43.4866C54.6109 43.4989 54.5754 43.5192 54.5452 43.5462C54.515 43.5733 54.4908 43.6063 54.4743 43.6433C54.4578 43.6803 54.4492 43.7204 54.4492 43.7609C54.4492 43.8014 54.4578 43.8414 54.4743 43.8784C54.4908 43.9154 54.515 43.9485 54.5452 43.9755C54.5754 44.0025 54.6109 44.0228 54.6495 44.0352C54.6881 44.0475 54.7289 44.0515 54.7691 44.047H71.1721C71.2425 44.0392 71.3075 44.0057 71.3548 43.9529C71.402 43.9001 71.4281 43.8317 71.4281 43.7609C71.4281 43.69 71.402 43.6217 71.3548 43.5689C71.3075 43.5161 71.2425 43.4825 71.1721 43.4747Z" fill="#F99C5D"/>
<path d="M65.5315 119.549C64.8622 120.033 64.1479 120.452 63.3984 120.8H90.8932C90.1437 120.452 89.4294 120.033 88.7601 119.549H65.5315Z" fill="#DD7026"/>
<path d="M91.1534 120.253H63.1112C62.6689 120.274 62.2513 120.463 61.9454 120.784C61.6395 121.104 61.4688 121.529 61.4688 121.972C61.4688 122.415 61.6395 122.841 61.9454 123.161C62.2513 123.481 62.6689 123.671 63.1112 123.691H91.1534C91.5958 123.671 92.0133 123.481 92.3192 123.161C92.6251 122.841 92.7959 122.415 92.7959 121.972C92.7959 121.529 92.6251 121.104 92.3192 120.784C92.0133 120.463 91.5958 120.274 91.1534 120.253Z" fill="#EF8C48"/>
<path d="M91.1516 120.253H83.7891C84.0214 120.243 84.2534 120.279 84.4711 120.361C84.6889 120.443 84.8878 120.567 85.056 120.728C85.2241 120.889 85.3579 121.082 85.4493 121.296C85.5408 121.509 85.5879 121.74 85.5879 121.972C85.5879 122.205 85.5408 122.435 85.4493 122.649C85.3579 122.862 85.2241 123.055 85.056 123.216C84.8878 123.377 84.6889 123.502 84.4711 123.583C84.2534 123.665 84.0214 123.702 83.7891 123.691H91.1516C91.5939 123.671 92.0115 123.481 92.3174 123.161C92.6233 122.841 92.794 122.415 92.794 121.972C92.794 121.529 92.6233 121.104 92.3174 120.783C92.0115 120.463 91.5939 120.273 91.1516 120.253Z" fill="#DD7026"/>
<path d="M77.2923 120.801H63.8577C63.7929 120.795 63.7276 120.803 63.666 120.824C63.6044 120.845 63.5478 120.878 63.4999 120.922C63.4519 120.966 63.4136 121.02 63.3874 121.079C63.3612 121.139 63.3477 121.203 63.3477 121.268C63.3477 121.333 63.3612 121.398 63.3874 121.457C63.4136 121.517 63.4519 121.57 63.4999 121.614C63.5478 121.658 63.6044 121.692 63.666 121.712C63.7276 121.733 63.7929 121.741 63.8577 121.736H77.2923C77.3571 121.741 77.4224 121.733 77.484 121.712C77.5456 121.692 77.6022 121.658 77.6501 121.614C77.6981 121.57 77.7364 121.517 77.7626 121.457C77.7888 121.398 77.8023 121.333 77.8023 121.268C77.8023 121.203 77.7888 121.139 77.7626 121.079C77.7364 121.02 77.6981 120.966 77.6501 120.922C77.6022 120.878 77.5456 120.845 77.484 120.824C77.4224 120.803 77.3571 120.795 77.2923 120.801Z" fill="#F99C5D"/>
<path d="M87.4825 66.7637C86.9492 66.3264 86.3946 65.8785 86.224 65.3416C86.0534 64.8048 86.224 64.0725 86.4053 63.3899C86.5866 62.7074 86.7821 61.943 86.5013 61.5555C86.2204 61.168 85.4348 61.1147 84.7238 61.072C84.0128 61.0294 83.3018 60.9938 82.8289 60.649C82.3561 60.3041 82.1179 59.6393 81.8513 58.9888C81.5847 58.3382 81.3038 57.5668 80.831 57.421C80.3582 57.2752 79.7645 57.6805 79.1423 58.0716C78.5202 58.4626 77.9159 58.8608 77.3151 58.8608C76.7143 58.8608 76.0886 58.4591 75.4842 58.0716C74.8799 57.6841 74.2293 57.2824 73.7991 57.421C73.369 57.5597 73.0454 58.2955 72.7753 58.9888C72.5051 59.682 72.2633 60.3113 71.8012 60.649C71.339 60.9867 70.6031 61.0329 69.9028 61.072C69.2024 61.1111 68.399 61.1609 68.1253 61.5555C67.8515 61.9501 68.0328 62.6789 68.2212 63.3899C68.4097 64.1009 68.5767 64.7799 68.4026 65.3381C68.2284 65.8962 67.6738 66.3228 67.1405 66.7601C66.6073 67.1974 65.9531 67.7271 65.9531 68.239C65.9531 68.7509 66.5575 69.2451 67.1405 69.7215C67.7235 70.1978 68.2284 70.6067 68.4026 71.1435C68.5767 71.6803 68.4026 72.4091 68.2177 73.0952C68.0328 73.7813 67.8409 74.5385 68.1253 74.9296C68.4097 75.3207 69.174 75.3669 69.9028 75.4095C70.6316 75.4522 71.3248 75.4913 71.8012 75.8326C72.2776 76.1739 72.5122 76.8422 72.7753 77.4928C73.0383 78.1434 73.3227 78.9148 73.7991 79.0641C74.2755 79.2134 74.8656 78.8046 75.4842 78.41C76.1028 78.0154 76.7107 77.6243 77.3151 77.6243C77.9194 77.6243 78.538 78.0225 79.1423 78.41C79.7467 78.7975 80.4008 79.2028 80.8274 79.0641C81.254 78.9255 81.5811 78.1896 81.8513 77.4928C82.1215 76.796 82.3632 76.1703 82.8254 75.8326C83.2875 75.4949 84.0234 75.4486 84.7238 75.4095C85.4241 75.3704 86.2276 75.3242 86.5013 74.9296C86.775 74.535 86.5902 73.8062 86.4053 73.0952C86.2204 72.3842 86.0498 71.7052 86.224 71.1435C86.3982 70.5818 86.935 70.1587 87.4825 69.7215C88.0691 69.2451 88.6734 68.7509 88.6734 68.239C88.6734 67.7271 88.0691 67.24 87.4825 66.7637Z" fill="#F9C876"/>
<path d="M87.8109 66.3761C87.3345 65.9851 86.8403 65.5834 86.7123 65.1888C86.5844 64.7941 86.7408 64.1222 86.9043 63.5179C87.1176 62.6967 87.3416 61.8435 86.9043 61.264C86.467 60.6845 85.5961 60.6276 84.7393 60.5779C84.1101 60.5423 83.4595 60.5068 83.1075 60.2508C82.7556 59.9948 82.5281 59.3976 82.3041 58.8288C81.9912 58.0253 81.6677 57.1935 80.9709 56.9659C80.856 56.9289 80.7362 56.9097 80.6154 56.9091C80.0466 56.9091 79.4423 57.2966 78.8592 57.6734C78.2762 58.0502 77.7572 58.3844 77.3021 58.3844C76.8471 58.3844 76.2854 58.0289 75.7415 57.6734C75.1975 57.3179 74.5505 56.8806 73.9817 56.8806C73.861 56.8809 73.741 56.9001 73.6262 56.9375C72.9152 57.165 72.6059 58.004 72.2931 58.8003C72.0656 59.3834 71.8345 59.9842 71.4861 60.2224C71.1377 60.4605 70.4836 60.5139 69.8543 60.5494C69.0011 60.5992 68.1159 60.6525 67.6893 61.2355C67.2627 61.8186 67.4902 62.6576 67.7071 63.4894C67.867 64.1045 68.0341 64.7408 67.8955 65.1603C67.7568 65.5798 67.2734 65.9566 66.797 66.3477C66.1251 66.9236 65.4141 67.4924 65.4141 68.2568C65.4141 69.0211 66.1251 69.5757 66.7863 70.1267C67.2627 70.5142 67.7568 70.9159 67.8848 71.3105C68.0128 71.7052 67.8564 72.3771 67.6964 72.985C67.4795 73.8062 67.2591 74.6558 67.6786 75.2353C68.0981 75.8148 68.9904 75.8717 69.8437 75.9214C70.4729 75.957 71.127 75.9961 71.4754 76.2521C71.8238 76.508 72.0549 77.1017 72.2789 77.6741C72.5917 78.4775 72.9152 79.3094 73.6156 79.5369C73.7305 79.5731 73.8505 79.5911 73.9711 79.5902C74.5399 79.5902 75.1442 79.2027 75.7272 78.8295C76.3103 78.4562 76.8293 78.1185 77.2879 78.1185C77.7465 78.1185 78.3047 78.474 78.845 78.8295C79.3854 79.185 80.0324 79.5902 80.6012 79.5902C80.7217 79.5907 80.8416 79.5727 80.9567 79.5369C81.6677 79.3094 81.977 78.4704 82.2899 77.6741C82.5138 77.0875 82.7485 76.4867 83.0933 76.2521C83.4381 76.0174 84.0958 75.957 84.7251 75.9214C85.5818 75.8717 86.4635 75.8219 86.8901 75.2353C87.3167 74.6487 87.0892 73.8133 86.8901 72.985C86.7266 72.37 86.5595 71.7336 86.6981 71.3105C86.8368 70.8875 87.3203 70.5142 87.8002 70.1267C88.4721 69.5757 89.1724 69.0104 89.1724 68.2568C89.1724 67.5031 88.4685 66.9236 87.8109 66.3761ZM87.498 69.725C86.9648 70.1587 86.4102 70.6102 86.2395 71.147C86.0689 71.6838 86.2395 72.4162 86.4208 73.0987C86.6021 73.7813 86.7977 74.5421 86.5168 74.9331C86.236 75.3242 85.4503 75.3704 84.7393 75.4131C84.0283 75.4557 83.3173 75.4948 82.8409 75.8361C82.3645 76.1774 82.1299 76.8458 81.8668 77.4963C81.6037 78.1469 81.3193 78.9183 80.843 79.0677C80.3666 79.217 79.7765 78.8081 79.1579 78.4135C78.5393 78.0189 77.9314 77.6279 77.3306 77.6279C76.7298 77.6279 76.1041 78.026 75.4997 78.4135C74.8954 78.801 74.2448 79.2063 73.8146 79.0677C73.3845 78.929 73.061 78.1931 72.7908 77.4963C72.5206 76.7995 72.2789 76.1739 71.8167 75.8361C71.3545 75.4984 70.6186 75.4522 69.9183 75.4131C69.218 75.374 68.4145 75.3277 68.1408 74.9331C67.867 74.5385 68.0483 73.8097 68.2332 73.0987C68.4181 72.3877 68.5887 71.7087 68.4181 71.147C68.2474 70.5853 67.6893 70.1623 67.156 69.725C66.6228 69.2877 65.9686 68.7545 65.9686 68.2425C65.9686 67.7306 66.573 67.24 67.156 66.7636C67.7391 66.2873 68.2439 65.8784 68.4181 65.3416C68.5923 64.8048 68.4181 64.076 68.2368 63.3935C68.0555 62.7109 67.8564 61.9466 68.1408 61.5591C68.4252 61.1716 69.1895 61.1182 69.9183 61.0756C70.6471 61.0329 71.3403 60.9974 71.8167 60.6525C72.2931 60.3077 72.5277 59.6429 72.7908 58.9923C73.0539 58.3417 73.3383 57.5703 73.8146 57.4245C74.291 57.2788 74.8811 57.6841 75.4997 58.0751C76.1183 58.4662 76.7262 58.8643 77.3306 58.8643C77.9349 58.8643 78.5535 58.4626 79.1579 58.0751C79.7622 57.6876 80.4128 57.2859 80.8465 57.4245C81.2802 57.5632 81.5966 58.2991 81.8668 58.9923C82.137 59.6855 82.3787 60.3183 82.8445 60.6525C83.3102 60.9867 84.0389 61.0365 84.7393 61.0756C85.4396 61.1147 86.2431 61.1644 86.5168 61.5591C86.7906 61.9537 86.6092 62.6825 86.4208 63.3935C86.2324 64.1045 86.0653 64.7835 86.2395 65.3452C86.4137 65.9069 86.9505 66.3264 87.498 66.7672C88.0846 67.2436 88.6889 67.7342 88.6889 68.2461C88.6889 68.758 88.0668 69.2486 87.4802 69.725H87.498Z" fill="#A6623E"/>
<path d="M85.7644 68.2572C85.7644 69.9322 85.2676 71.5695 84.337 72.9622C83.4063 74.3548 82.0836 75.4402 80.536 76.081C78.9885 76.7219 77.2856 76.8894 75.6429 76.5623C74.0001 76.2353 72.4913 75.4284 71.3071 74.2438C70.123 73.0592 69.3168 71.5499 68.9904 69.9071C68.6641 68.2642 68.8323 66.5614 69.4737 65.0141C70.1152 63.4668 71.2012 62.1445 72.5942 61.2145C73.9872 60.2844 75.6248 59.7884 77.2998 59.7891C78.4117 59.7891 79.5127 60.0081 80.5399 60.4337C81.5671 60.8593 82.5004 61.4832 83.2864 62.2695C84.0725 63.0559 84.6959 63.9895 85.1211 65.0168C85.5462 66.0442 85.7648 67.1453 85.7644 68.2572Z" fill="#FDE3A3"/>
<path d="M80.0136 62.1571C81.4364 62.1564 82.8365 62.5147 84.0841 63.1987C83.3301 62.1826 82.3578 61.3484 81.2388 60.7578C80.1198 60.1671 78.8826 59.8349 77.6182 59.7857C76.3538 59.7365 75.0945 59.9715 73.933 60.4734C72.7714 60.9753 71.7373 61.7313 70.9066 62.6858C70.0759 63.6403 69.4699 64.769 69.1332 65.9887C68.7965 67.2084 68.7376 68.4881 68.9609 69.7336C69.1843 70.9791 69.6841 72.1586 70.4236 73.1853C71.1631 74.2121 72.1235 75.0599 73.2341 75.6663C72.2956 74.4084 71.7258 72.9141 71.5885 71.3508C71.4512 69.7874 71.7517 68.2166 72.4565 66.8144C73.1613 65.4122 74.2425 64.2338 75.5791 63.4113C76.9157 62.5887 78.4548 62.1545 80.0242 62.1571H80.0136Z" fill="#FDE9B5"/>
<path d="M53.3257 124.913L51.0469 127.91C51.0469 127.91 57.5313 138.86 57.837 139.549V147.815H66.6677L65.228 140.652C65.228 140.652 67.361 133.566 63.9446 131.273C59.4403 128.252 53.3257 124.913 53.3257 124.913Z" fill="#FFCC90"/>
<path d="M68.7063 148.672H56.4414V143.215L68.3508 143.553L68.7063 148.672Z" fill="white"/>
<path d="M55.599 126.801C55.119 127.381 54.1769 127.392 53.4979 126.823C52.8189 126.258 53.3273 124.914 53.3273 124.914L57.7924 119.179C58.2759 118.603 59.2144 118.593 59.8935 119.158C60.5725 119.723 60.7325 120.651 60.249 121.231L55.599 126.801Z" fill="#FFCC90"/>
<path d="M59.4713 121.803C58.7603 122.074 57.9391 121.626 57.6227 120.801C57.3063 119.976 57.6227 119.087 58.3337 118.817L65.0883 116.208C65.7993 115.938 66.6169 116.386 66.9369 117.21C67.2533 118.035 66.9369 118.92 66.2259 119.194L59.4713 121.803Z" fill="#FFCC90"/>
<path d="M60.9559 120.131L68.4642 117.287C68.7213 117.187 68.9436 117.014 69.1041 116.79C69.1041 116.79 60.3409 119.687 60.188 119.882C58.8905 121.539 55.1719 126.573 55.1719 126.573C55.4314 126.495 55.6641 126.346 55.8438 126.143L60.9559 120.131Z" fill="#F6B968"/>
<path d="M57.9484 128.867C57.4045 129.521 56.3415 129.532 55.5736 128.892C54.8057 128.248 54.6244 127.2 55.1719 126.549L60.4369 120.246C60.9844 119.592 62.0474 119.581 62.8153 120.221C63.5796 120.861 63.7609 121.91 63.2134 122.564L57.9484 128.867Z" fill="#FFCC90"/>
<path d="M62.3338 123.211C61.5375 123.516 60.6025 123.008 60.2435 122.077C59.888 121.145 60.2435 120.139 61.0327 119.833L68.6903 116.883C69.4866 116.577 70.4216 117.082 70.7806 118.013C71.1361 118.948 70.7806 119.951 69.9914 120.256L62.3338 123.211Z" fill="#FFCC90"/>
<path d="M62.8603 123.004L70.0344 120.252C70.2122 120.181 70.3733 120.073 70.5072 119.936L62.743 122.424C62.7308 122.43 62.7189 122.435 62.7075 122.442C62.4885 122.522 62.2939 122.656 62.1422 122.833L58.125 128.144C58.445 128.084 58.2956 128.308 58.5054 128.052L62.8603 123.004Z" fill="#F6B968"/>
<path d="M60.7462 130.114C60.2343 130.651 59.3028 130.598 58.67 129.997C58.0372 129.393 57.9413 128.465 58.4567 127.928L63.416 122.727C63.9315 122.19 64.8629 122.244 65.4922 122.844C66.125 123.449 66.221 124.377 65.709 124.917L60.7462 130.114Z" fill="#FFCC90"/>
<path d="M64.9911 125.337C64.2801 125.529 63.5051 124.981 63.2847 124.149C63.0607 123.303 63.4624 122.464 64.1841 122.272L71.1307 120.441C71.8417 120.249 72.6167 120.797 72.8406 121.629C73.061 122.475 72.6593 123.314 71.9376 123.502L64.9911 125.337Z" fill="#FFCC90"/>
<path d="M65.3917 125.229L71.9365 123.502C72.1676 123.445 71.5028 123.502 71.2255 123.502C69.9386 123.537 65.1606 124.874 65.0184 125.002L60.8945 129.524C60.8945 129.524 61.0936 129.719 61.25 129.577L65.3917 125.229Z" fill="#F6B968"/>
<path d="M62.9254 132.247C62.6571 132.462 62.3151 132.563 61.9731 132.528C61.6312 132.493 61.3168 132.324 61.0981 132.059C60.8431 131.828 60.6893 131.505 60.67 131.161C60.6507 130.817 60.7675 130.48 60.995 130.221L65.5881 125.848C65.8565 125.633 66.199 125.532 66.5413 125.568C66.8835 125.604 67.1977 125.774 67.4154 126.04C67.6702 126.271 67.8239 126.593 67.8432 126.936C67.8625 127.28 67.7458 127.617 67.5185 127.875L62.9254 132.247Z" fill="#FFCC90"/>
<path d="M66.7887 128.287C66.1523 128.454 65.4804 127.981 65.2849 127.22C65.1736 126.894 65.1956 126.538 65.3461 126.228C65.4966 125.918 65.7634 125.681 66.0883 125.567L72.235 123.974C72.5758 123.917 72.9256 123.997 73.2075 124.197C73.4895 124.396 73.6805 124.7 73.7388 125.041C73.8491 125.367 73.8266 125.723 73.6763 126.032C73.5259 126.342 73.2597 126.579 72.9353 126.694L66.7887 128.287Z" fill="#FFCC90"/>
<path d="M65.4128 116.3C65.5154 116.401 65.5964 116.522 65.651 116.656C65.7047 116.786 65.7313 116.927 65.7292 117.068C65.2244 117.278 64.4672 117.594 64.1152 117.569C64.059 117.572 64.0032 117.557 63.9559 117.527C63.9087 117.496 63.8723 117.451 63.8521 117.399C63.8309 117.346 63.8264 117.288 63.8391 117.233C63.8518 117.177 63.8812 117.127 63.9232 117.089C64.1472 116.816 64.9116 116.51 65.4128 116.3Z" fill="#FFE0BC"/>
<path d="M69.1369 117.012C69.2623 117.149 69.3633 117.306 69.4355 117.477C69.5045 117.65 69.5441 117.832 69.5528 118.018C68.9805 118.256 68.1308 118.615 67.7184 118.555C67.6474 118.551 67.5789 118.527 67.5219 118.485C67.4648 118.442 67.4219 118.384 67.3985 118.316C67.3701 118.252 67.3608 118.18 67.3715 118.11C67.3822 118.041 67.4125 117.975 67.4589 117.922C67.7077 117.595 68.5681 117.246 69.1369 117.012Z" fill="#FFE0BC"/>
<path d="M71.372 120.434C71.5096 120.642 71.6195 120.866 71.699 121.102C71.7782 121.339 71.8272 121.586 71.8448 121.835C71.2547 122.03 70.3837 122.336 69.9535 122.19C69.8682 122.162 69.7911 122.113 69.7291 122.048C69.6671 121.983 69.6221 121.904 69.598 121.817C69.5656 121.735 69.5529 121.647 69.5609 121.559C69.569 121.471 69.5975 121.387 69.6442 121.312C69.9037 120.918 70.7854 120.633 71.372 120.434Z" fill="#FFE0BC"/>
<path d="M72.7 124.154C72.8248 124.362 72.9216 124.585 72.9879 124.818C73.0537 125.05 73.0884 125.289 73.091 125.529C72.4938 125.7 71.6086 125.96 71.1891 125.792C71.1088 125.761 71.0376 125.71 70.9817 125.644C70.9259 125.578 70.8872 125.5 70.8691 125.416C70.8409 125.334 70.8329 125.247 70.8459 125.161C70.8589 125.076 70.8925 124.995 70.9438 124.925C71.2104 124.569 72.1063 124.324 72.7 124.154Z" fill="#FFE0BC"/>
<path d="M58.7859 120.189C58.8038 120.159 58.81 120.123 58.8035 120.088C58.7969 120.053 58.7781 120.022 58.7504 120.001L58.0393 119.322C58.0182 119.294 57.9871 119.275 57.9526 119.27C57.9182 119.265 57.883 119.273 57.8545 119.293C57.835 119.323 57.8278 119.359 57.8344 119.394C57.8411 119.43 57.861 119.461 57.89 119.481L58.601 120.161C58.6227 120.187 58.6537 120.205 58.688 120.211C58.7222 120.216 58.7571 120.208 58.7859 120.189Z" fill="#FFE0BC"/>
<path d="M59.0996 119.858C59.1172 119.828 59.1233 119.793 59.1168 119.759C59.1102 119.725 59.0915 119.694 59.064 119.673L58.353 118.994C58.3318 118.966 58.3007 118.948 58.2663 118.943C58.2318 118.937 58.1967 118.946 58.1681 118.966C58.1483 118.995 58.1405 119.031 58.1465 119.066C58.1524 119.101 58.1717 119.133 58.2001 119.154L58.9111 119.833C58.9335 119.86 58.9654 119.878 59.0004 119.883C59.0354 119.888 59.0709 119.879 59.0996 119.858Z" fill="#FFE0BC"/>
<path d="M61.0854 121.717C61.1077 121.693 61.12 121.662 61.12 121.629C61.12 121.596 61.1077 121.564 61.0854 121.54L60.5451 120.846C60.5281 120.818 60.5006 120.798 60.4686 120.79C60.4366 120.782 60.4027 120.787 60.3744 120.804C60.3522 120.828 60.3398 120.86 60.3398 120.893C60.3398 120.926 60.3522 120.957 60.3744 120.982L60.9112 121.675C60.9288 121.702 60.9563 121.722 60.9881 121.73C61.0198 121.738 61.0534 121.734 61.0819 121.717H61.0854Z" fill="#FFE0BC"/>
<path d="M61.4373 121.437C61.4604 121.413 61.4732 121.381 61.4732 121.348C61.4732 121.315 61.4604 121.283 61.4373 121.259L60.9005 120.566C60.8829 120.538 60.8554 120.519 60.8237 120.511C60.792 120.503 60.7584 120.507 60.7299 120.523C60.7076 120.548 60.6953 120.579 60.6953 120.612C60.6953 120.645 60.7076 120.677 60.7299 120.701L61.2702 121.412C61.2878 121.44 61.3153 121.459 61.3471 121.467C61.3788 121.475 61.4124 121.471 61.4409 121.455L61.4373 121.437Z" fill="#FFE0BC"/>
<path d="M66.1747 120.021C66.1978 119.997 66.2106 119.966 66.2106 119.932C66.2106 119.899 66.1978 119.867 66.1747 119.844L65.6913 119.111C65.6754 119.083 65.6493 119.061 65.6183 119.051C65.5872 119.042 65.5536 119.044 65.5242 119.058C65.5012 119.082 65.4883 119.114 65.4883 119.147C65.4883 119.18 65.5012 119.212 65.5242 119.236L66.0077 119.968C66.0241 119.996 66.0502 120.017 66.081 120.027C66.1118 120.036 66.1452 120.035 66.1747 120.021Z" fill="#FFD6A6"/>
<path d="M66.5494 119.769C66.5724 119.745 66.5853 119.713 66.5853 119.68C66.5853 119.647 66.5724 119.615 66.5494 119.591L66.0659 118.859C66.0508 118.83 66.0247 118.808 65.9934 118.798C65.9621 118.788 65.9281 118.79 65.8989 118.805C65.8761 118.829 65.8633 118.86 65.8633 118.893C65.8633 118.925 65.8761 118.956 65.8989 118.98L66.3823 119.712C66.3976 119.741 66.4234 119.763 66.4545 119.774C66.4856 119.784 66.5196 119.783 66.5494 119.769Z" fill="#FFD6A6"/>
<path d="M68.5755 122.848C68.6012 122.828 68.6181 122.798 68.6227 122.766C68.6273 122.734 68.6193 122.701 68.6004 122.674L68.1667 121.913C68.1534 121.883 68.129 121.859 68.0985 121.847C68.068 121.834 68.0339 121.834 68.0032 121.846C67.9765 121.866 67.959 121.896 67.9544 121.929C67.9497 121.963 67.9583 121.996 67.9783 122.023L68.412 122.784C68.4253 122.814 68.4499 122.838 68.4806 122.85C68.5112 122.862 68.5454 122.861 68.5755 122.848Z" fill="#FFD6A6"/>
<path d="M68.9685 122.621C68.9947 122.601 69.0123 122.572 69.0176 122.54C69.0229 122.507 69.0155 122.474 68.997 122.447L68.5633 121.686C68.55 121.656 68.5254 121.632 68.4947 121.62C68.4641 121.608 68.4299 121.609 68.3997 121.622C68.3864 121.632 68.3751 121.644 68.3664 121.658C68.3577 121.672 68.3519 121.687 68.3493 121.703C68.3466 121.72 68.3472 121.736 68.351 121.752C68.3548 121.768 68.3617 121.783 68.3713 121.796L68.805 122.557C68.8183 122.587 68.8429 122.611 68.8736 122.623C68.9042 122.635 68.9384 122.634 68.9685 122.621Z" fill="#FFD6A6"/>
<path d="M69.8438 126.161C69.8704 126.142 69.8888 126.113 69.8954 126.081C69.902 126.049 69.8963 126.015 69.8793 125.987L69.4811 125.205C69.4679 125.175 69.444 125.152 69.4144 125.14C69.3847 125.127 69.3514 125.126 69.3212 125.137C69.2938 125.156 69.2748 125.185 69.2682 125.217C69.2616 125.25 69.2678 125.283 69.2856 125.311L69.6838 126.094C69.6964 126.124 69.7198 126.148 69.7494 126.162C69.779 126.175 69.8126 126.178 69.8438 126.168V126.161Z" fill="#FFD6A6"/>
<path d="M70.2514 125.951C70.278 125.931 70.2964 125.903 70.303 125.871C70.3096 125.838 70.3039 125.805 70.2869 125.777L69.8887 124.994C69.8768 124.964 69.8533 124.939 69.8234 124.926C69.7934 124.913 69.7594 124.912 69.7288 124.923C69.7149 124.932 69.7029 124.944 69.6936 124.958C69.6842 124.971 69.6777 124.987 69.6744 125.003C69.6711 125.019 69.671 125.036 69.6743 125.052C69.6775 125.068 69.6839 125.084 69.6932 125.098L70.0914 125.876C70.0969 125.892 70.1055 125.906 70.1166 125.918C70.1276 125.93 70.141 125.94 70.1558 125.947C70.1707 125.954 70.1868 125.958 70.2032 125.958C70.2196 125.959 70.236 125.956 70.2514 125.951Z" fill="#FFD6A6"/>
<path d="M62.5187 118.276C62.5411 118.26 62.5569 118.237 62.5628 118.211C62.5687 118.184 62.5644 118.157 62.5507 118.133L62.1952 117.636C62.1759 117.616 62.1497 117.605 62.1223 117.605C62.095 117.605 62.0688 117.616 62.0495 117.636C62.0277 117.651 62.0125 117.675 62.0066 117.701C62.0007 117.727 62.0046 117.754 62.0175 117.778L62.373 118.276C62.3927 118.294 62.4188 118.304 62.4458 118.304C62.4729 118.304 62.499 118.294 62.5187 118.276Z" fill="#FFD6A6"/>
<path d="M62.8861 118.006C62.909 117.992 62.9255 117.969 62.9321 117.942C62.9388 117.916 62.935 117.888 62.9216 117.864L62.5661 117.366C62.5468 117.347 62.5206 117.336 62.4932 117.336C62.4659 117.336 62.4397 117.347 62.4204 117.366C62.3974 117.381 62.3809 117.404 62.3743 117.43C62.3677 117.457 62.3714 117.485 62.3848 117.509L62.7403 118.003C62.7496 118.012 62.7606 118.02 62.7728 118.025C62.7851 118.03 62.7982 118.033 62.8114 118.033C62.8247 118.033 62.8378 118.03 62.85 118.025C62.8622 118.02 62.8732 118.012 62.8825 118.003L62.8861 118.006Z" fill="#FFD6A6"/>
<path d="M57.1157 127.981C57.1295 127.951 57.132 127.918 57.1229 127.886C57.1137 127.855 57.0935 127.828 57.0659 127.81L56.3549 127.313C56.3317 127.29 56.3004 127.277 56.2678 127.277C56.2353 127.277 56.204 127.29 56.1807 127.313C56.1665 127.343 56.1641 127.377 56.174 127.408C56.1838 127.44 56.2053 127.467 56.2341 127.483L56.9451 127.981C56.9683 128.004 56.9996 128.017 57.0322 128.017C57.0647 128.017 57.096 128.004 57.1193 127.981H57.1157Z" fill="#FFD6A6"/>
<path d="M57.369 127.625C57.3843 127.597 57.3876 127.563 57.3783 127.532C57.369 127.501 57.3478 127.474 57.3192 127.458L56.6082 126.961C56.5967 126.949 56.5828 126.939 56.5676 126.933C56.5523 126.927 56.5359 126.923 56.5194 126.923C56.5028 126.923 56.4864 126.927 56.4712 126.933C56.4559 126.939 56.4421 126.949 56.4305 126.961C56.4164 126.99 56.4141 127.024 56.424 127.055C56.4339 127.086 56.4553 127.112 56.4838 127.128L57.1948 127.629C57.2061 127.641 57.2196 127.65 57.2346 127.656C57.2496 127.663 57.2657 127.666 57.2819 127.666C57.2982 127.666 57.3143 127.663 57.3292 127.656C57.3442 127.65 57.3577 127.641 57.369 127.629V127.625Z" fill="#FFD6A6"/>
<path d="M59.8643 129.535C59.8767 129.504 59.8769 129.47 59.8651 129.439C59.8532 129.408 59.8301 129.383 59.8003 129.368L59.0431 128.924C59.0167 128.904 58.9835 128.896 58.9508 128.9C58.9181 128.905 58.8887 128.922 58.8689 128.949C58.8565 128.979 58.8562 129.014 58.8681 129.045C58.8799 129.076 58.9031 129.101 58.9329 129.116L59.6901 129.56C59.7171 129.578 59.7498 129.586 59.782 129.581C59.8141 129.577 59.8434 129.56 59.8643 129.535Z" fill="#FFD6A6"/>
<path d="M60.0828 129.142C60.0944 129.111 60.0942 129.077 60.0824 129.046C60.0707 129.015 60.048 128.99 60.0188 128.975L59.2616 128.534C59.2352 128.514 59.202 128.505 59.1693 128.51C59.1367 128.515 59.1072 128.532 59.0874 128.559C59.0752 128.589 59.075 128.623 59.0869 128.653C59.0988 128.683 59.1219 128.708 59.1514 128.722L59.9086 129.166C59.935 129.186 59.9682 129.195 60.0009 129.19C60.0335 129.185 60.063 129.168 60.0828 129.142Z" fill="#FFD6A6"/>
<path d="M62.8842 131.029C62.8944 131.006 62.8957 130.98 62.8878 130.957C62.8799 130.933 62.8634 130.913 62.8415 130.901L62.2656 130.546C62.2476 130.528 62.2233 130.518 62.198 130.518C62.1727 130.518 62.1485 130.528 62.1305 130.546C62.1194 130.569 62.1181 130.596 62.1267 130.621C62.1354 130.645 62.1533 130.666 62.1767 130.677L62.7491 131.033C62.767 131.05 62.7913 131.06 62.8166 131.06C62.8419 131.06 62.8662 131.05 62.8842 131.033V131.029Z" fill="#FFD6A6"/>
<path d="M63.0713 130.73C63.0813 130.706 63.0821 130.68 63.0735 130.656C63.0649 130.633 63.0476 130.613 63.0251 130.602L62.4527 130.246C62.4342 130.228 62.4093 130.218 62.3834 130.218C62.3575 130.218 62.3327 130.228 62.3141 130.246C62.303 130.27 62.3017 130.297 62.3103 130.321C62.319 130.346 62.3369 130.366 62.3603 130.378L62.9327 130.733C62.9516 130.75 62.9763 130.76 63.002 130.76C63.0276 130.76 63.0523 130.75 63.0713 130.733V130.73Z" fill="#FFD6A6"/>
<path d="M53.9996 126.116C54.0189 126.096 54.0298 126.07 54.0298 126.043C54.0298 126.015 54.0189 125.989 53.9996 125.97L53.5161 125.614C53.493 125.6 53.4651 125.595 53.4384 125.601C53.4117 125.607 53.3885 125.623 53.3739 125.646C53.3546 125.666 53.3438 125.692 53.3438 125.719C53.3438 125.747 53.3546 125.773 53.3739 125.792L53.8574 126.148C53.8808 126.161 53.9084 126.166 53.9348 126.16C53.9612 126.154 53.9844 126.138 53.9996 126.116Z" fill="#FFD6A6"/>
<path d="M54.2731 125.749C54.2924 125.73 54.3032 125.704 54.3032 125.677C54.3032 125.649 54.2924 125.623 54.2731 125.604L53.7896 125.248C53.7785 125.24 53.7659 125.235 53.7526 125.232C53.7394 125.229 53.7256 125.229 53.7123 125.232C53.699 125.234 53.6864 125.24 53.6752 125.247C53.664 125.255 53.6545 125.265 53.6474 125.277C53.628 125.296 53.6172 125.322 53.6172 125.35C53.6172 125.377 53.628 125.403 53.6474 125.422L54.1344 125.778C54.1456 125.785 54.158 125.79 54.1711 125.792C54.1842 125.794 54.1975 125.794 54.2105 125.791C54.2234 125.788 54.2356 125.783 54.2463 125.775C54.2571 125.767 54.2661 125.757 54.2731 125.746V125.749Z" fill="#FFD6A6"/>
<path d="M64.26 123.808C64.283 123.784 64.2959 123.752 64.2959 123.719C64.2959 123.686 64.283 123.654 64.26 123.63L63.7694 122.919C63.7542 122.89 63.7281 122.868 63.6968 122.858C63.6655 122.848 63.6315 122.851 63.6023 122.866C63.5793 122.89 63.5664 122.921 63.5664 122.955C63.5664 122.988 63.5793 123.02 63.6023 123.043L64.0929 123.754C64.1081 123.784 64.1341 123.806 64.1654 123.816C64.1967 123.826 64.2307 123.823 64.26 123.808Z" fill="#FFE0BC"/>
<path d="M64.6346 123.553C64.6569 123.528 64.6692 123.497 64.6692 123.464C64.6692 123.431 64.6569 123.399 64.6346 123.375L64.144 122.664C64.1282 122.635 64.1015 122.612 64.0696 122.603C64.0377 122.593 64.0032 122.595 63.9734 122.611C63.9504 122.634 63.9375 122.666 63.9375 122.699C63.9375 122.733 63.9504 122.764 63.9734 122.788L64.4675 123.499C64.4827 123.528 64.5088 123.55 64.5401 123.56C64.5714 123.57 64.6054 123.568 64.6346 123.553Z" fill="#FFE0BC"/>
<path d="M66.3618 127.192C66.375 127.182 66.3861 127.17 66.3944 127.156C66.4027 127.142 66.408 127.126 66.41 127.11C66.4119 127.093 66.4106 127.077 66.406 127.061C66.4014 127.045 66.3936 127.031 66.3832 127.018L65.9281 126.268C65.9149 126.24 65.8914 126.217 65.8624 126.205C65.8334 126.193 65.801 126.193 65.7717 126.204C65.7585 126.214 65.7474 126.226 65.7391 126.24C65.7308 126.254 65.7255 126.27 65.7236 126.286C65.7216 126.303 65.7229 126.319 65.7275 126.335C65.7321 126.351 65.7399 126.365 65.7504 126.378L66.2054 127.128C66.2193 127.158 66.2442 127.181 66.2748 127.192C66.3054 127.203 66.3392 127.202 66.3689 127.189L66.3618 127.192Z" fill="#FFE0BC"/>
<path d="M66.7439 126.955C66.769 126.934 66.7852 126.904 66.7892 126.872C66.7931 126.839 66.7846 126.807 66.7653 126.78L66.3102 126.03C66.2963 126.001 66.2714 125.978 66.2408 125.967C66.2102 125.955 66.1764 125.957 66.1467 125.97C66.1335 125.98 66.1224 125.992 66.1141 126.006C66.1058 126.02 66.1005 126.036 66.0986 126.052C66.0966 126.069 66.0979 126.085 66.1025 126.101C66.1071 126.117 66.1149 126.131 66.1253 126.144L66.5804 126.894C66.5943 126.924 66.6192 126.947 66.6498 126.958C66.6804 126.969 66.7142 126.968 66.7439 126.955Z" fill="#FFE0BC"/>
<path d="M100.963 124.913L103.242 127.91C103.242 127.91 96.754 138.86 96.4483 139.549V147.815H87.6211L89.0431 140.652C89.0431 140.652 86.9101 133.566 90.3229 131.273C94.8485 128.252 100.963 124.913 100.963 124.913Z" fill="#FFCC90"/>
<path d="M85.582 148.672H97.8505V143.215L85.582 143.702V148.672Z" fill="white"/>
<path d="M98.6912 126.801C99.1711 127.381 100.113 127.392 100.792 126.823C101.471 126.258 100.963 124.914 100.963 124.914L96.4977 119.179C96.0142 118.603 95.0757 118.593 94.3967 119.158C93.7177 119.723 93.5577 120.651 94.0412 121.231L98.6912 126.801Z" fill="#FFCC90"/>
<path d="M94.8192 121.803C95.5302 122.074 96.3478 121.626 96.6678 120.801C96.9842 119.976 96.6678 119.087 95.9568 118.817L89.1844 116.208C88.4734 115.938 87.6558 116.386 87.3394 117.21C87.0194 118.035 87.3394 118.92 88.0326 119.194L94.8192 121.803Z" fill="#FFCC90"/>
<path d="M93.3396 120.131L85.8313 117.287C85.5742 117.187 85.3519 117.014 85.1914 116.79C85.1914 116.79 93.9546 119.687 94.1075 119.882C95.4051 121.539 99.1236 126.573 99.1236 126.573C98.8632 126.497 98.6301 126.347 98.4517 126.143L93.3396 120.131Z" fill="#F6B968"/>
<path d="M96.3413 128.867C96.8888 129.521 97.9517 129.532 98.7196 128.892C99.4875 128.248 99.6688 127.2 99.1213 126.549L93.8528 120.246C93.3053 119.592 92.2423 119.581 91.4744 120.221C90.7065 120.861 90.5288 121.91 91.0727 122.564L96.3413 128.867Z" fill="#FFCC90"/>
<path d="M91.9598 123.211C92.7561 123.516 93.6911 123.008 94.0502 122.077C94.4057 121.145 94.0502 120.139 93.2609 119.833L85.6034 116.883C84.807 116.577 83.8721 117.082 83.513 118.013C83.1575 118.948 83.513 119.951 84.3022 120.256L91.9598 123.211Z" fill="#FFCC90"/>
<path d="M91.4282 123.004L84.2541 120.252C84.0762 120.181 83.9152 120.073 83.7812 119.936L91.5455 122.424L91.581 122.442C91.7999 122.522 91.9946 122.656 92.1463 122.833L96.1528 128.148C95.8329 128.088 95.9822 128.311 95.7724 128.056L91.4282 123.004Z" fill="#F6B968"/>
<path d="M93.5403 130.114C94.0558 130.651 94.9872 130.598 95.62 129.997C96.2528 129.393 96.331 128.465 95.8333 127.928L90.874 122.727C90.3585 122.19 89.4271 122.244 88.7943 122.844C88.1651 123.449 88.0833 124.377 88.581 124.917L93.5403 130.114Z" fill="#FFCC90"/>
<path d="M89.2979 125.337C90.009 125.529 90.7804 124.981 91.0044 124.149C91.2283 123.303 90.8231 122.464 90.1049 122.272L83.1584 120.441C82.4474 120.249 81.6724 120.797 81.4484 121.629C81.2244 122.475 81.6297 123.314 82.3514 123.502L89.2979 125.337Z" fill="#FFCC90"/>
<path d="M88.8976 125.229L82.3528 123.502C82.1217 123.445 82.783 123.502 83.0638 123.502C84.3543 123.537 89.1287 124.874 89.2745 125.002L93.3948 129.524C93.3948 129.524 93.1992 129.719 93.0393 129.577L88.8976 125.229Z" fill="#F6B968"/>
<path d="M91.3653 132.248C91.6336 132.463 91.9756 132.563 92.3176 132.528C92.6595 132.493 92.9739 132.325 93.1926 132.059C93.4476 131.828 93.6014 131.505 93.6207 131.161C93.64 130.818 93.5232 130.48 93.2957 130.221L88.7026 125.849C88.4337 125.633 88.0905 125.532 87.7477 125.568C87.4049 125.604 87.0901 125.774 86.8717 126.041C86.6183 126.273 86.4659 126.595 86.4472 126.938C86.4286 127.281 86.5453 127.617 86.7722 127.875L91.3653 132.248Z" fill="#FFCC90"/>
<path d="M87.5045 128.287C88.1409 128.454 88.8128 127.981 89.0083 127.22C89.1196 126.894 89.0976 126.538 88.9471 126.228C88.7966 125.918 88.5298 125.681 88.2049 125.567L82.0582 123.974C81.7174 123.917 81.3676 123.997 81.0857 124.197C80.8037 124.396 80.6127 124.7 80.5544 125.041C80.4431 125.367 80.4651 125.723 80.6156 126.033C80.7661 126.343 81.0329 126.58 81.3579 126.694L87.5045 128.287Z" fill="#FFCC90"/>
<path d="M88.8751 116.3C88.7725 116.401 88.6915 116.522 88.6369 116.656C88.5832 116.786 88.5566 116.927 88.5587 117.068C89.0635 117.278 89.8172 117.594 90.1692 117.569C90.2259 117.572 90.2822 117.558 90.3301 117.527C90.3779 117.496 90.4149 117.451 90.4358 117.399C90.456 117.346 90.46 117.288 90.4474 117.233C90.4347 117.178 90.4059 117.128 90.3647 117.089C90.1372 116.816 89.3799 116.51 88.8751 116.3Z" fill="#FFE0BC"/>
<path d="M85.1468 117.012C85.0218 117.148 84.9219 117.306 84.8517 117.477C84.7807 117.649 84.741 117.832 84.7344 118.018C85.3067 118.256 86.1564 118.615 86.5688 118.555C86.6398 118.551 86.7083 118.527 86.7653 118.485C86.8223 118.442 86.8653 118.384 86.8887 118.316C86.917 118.252 86.9264 118.18 86.9157 118.11C86.905 118.041 86.8747 117.975 86.8283 117.922C86.5794 117.595 85.7191 117.246 85.1468 117.012Z" fill="#FFE0BC"/>
<path d="M82.9181 120.434C82.7805 120.642 82.6706 120.866 82.5911 121.102C82.5119 121.339 82.463 121.586 82.4453 121.835C83.0355 122.03 83.9064 122.336 84.3366 122.19C84.4226 122.163 84.5003 122.115 84.5624 122.049C84.6246 121.984 84.6692 121.904 84.6921 121.817C84.7248 121.735 84.7374 121.646 84.7288 121.559C84.7201 121.471 84.6905 121.386 84.6423 121.312C84.3864 120.918 83.5047 120.633 82.9181 120.434Z" fill="#FFE0BC"/>
<path d="M81.5864 124.154C81.4615 124.362 81.3647 124.585 81.2984 124.818C81.2326 125.05 81.198 125.289 81.1953 125.529C81.7926 125.7 82.6778 125.96 83.0973 125.792C83.1776 125.761 83.2488 125.71 83.3046 125.644C83.3604 125.578 83.3991 125.5 83.4172 125.416C83.4455 125.334 83.4534 125.247 83.4404 125.161C83.4274 125.076 83.3938 124.995 83.3426 124.925C83.0759 124.569 82.1801 124.324 81.5864 124.154Z" fill="#FFE0BC"/>
<path d="M95.5068 120.189C95.4873 120.159 95.4802 120.123 95.4868 120.088C95.4934 120.052 95.5133 120.021 95.5424 120.001L96.2534 119.322C96.2746 119.294 96.3056 119.275 96.3401 119.27C96.3745 119.265 96.4097 119.273 96.4382 119.293C96.4809 119.339 96.4631 119.421 96.4027 119.481L95.6917 120.161C95.6277 120.217 95.5459 120.232 95.5033 120.189H95.5068Z" fill="#FFE0BC"/>
<path d="M95.1877 119.858C95.1701 119.828 95.164 119.793 95.1705 119.759C95.1771 119.725 95.1958 119.694 95.2233 119.673L95.9343 118.994C95.9555 118.966 95.9865 118.948 96.021 118.943C96.0554 118.937 96.0906 118.946 96.1191 118.966C96.139 118.995 96.1468 119.031 96.1408 119.066C96.1348 119.101 96.1156 119.133 96.0871 119.154L95.3761 119.833C95.3121 119.89 95.2304 119.904 95.1877 119.858Z" fill="#FFE0BC"/>
<path d="M93.2025 121.717C93.1803 121.693 93.168 121.661 93.168 121.628C93.168 121.595 93.1803 121.564 93.2025 121.539L93.7429 120.846C93.751 120.832 93.7617 120.82 93.7745 120.811C93.7873 120.801 93.802 120.794 93.8175 120.79C93.8331 120.786 93.8492 120.785 93.8651 120.787C93.881 120.79 93.8963 120.795 93.91 120.804C93.933 120.827 93.9459 120.859 93.9459 120.892C93.9459 120.926 93.933 120.957 93.91 120.981L93.3696 121.675C93.352 121.702 93.3245 121.722 93.2928 121.73C93.2611 121.738 93.2275 121.733 93.199 121.717H93.2025Z" fill="#FFE0BC"/>
<path d="M92.8459 121.437C92.8341 121.425 92.8247 121.412 92.8183 121.396C92.8119 121.381 92.8086 121.365 92.8086 121.348C92.8086 121.332 92.8119 121.315 92.8183 121.3C92.8247 121.285 92.8341 121.271 92.8459 121.259L93.3828 120.566C93.4004 120.538 93.4279 120.519 93.4596 120.511C93.4913 120.503 93.5249 120.507 93.5534 120.523C93.5764 120.547 93.5893 120.579 93.5893 120.612C93.5893 120.645 93.5764 120.677 93.5534 120.701L93.0166 121.412C92.999 121.44 92.9715 121.459 92.9397 121.467C92.908 121.475 92.8745 121.471 92.8459 121.455V121.437Z" fill="#FFE0BC"/>
<path d="M88.1101 120.021C88.0871 119.997 88.0742 119.966 88.0742 119.932C88.0742 119.899 88.0871 119.867 88.1101 119.844L88.5936 119.111C88.6094 119.083 88.6355 119.061 88.6666 119.051C88.6976 119.042 88.7313 119.044 88.7607 119.058C88.7837 119.082 88.7966 119.114 88.7966 119.147C88.7966 119.18 88.7837 119.212 88.7607 119.236L88.2772 119.968C88.2608 119.996 88.2347 120.017 88.2038 120.027C88.173 120.036 88.1396 120.035 88.1101 120.021Z" fill="#FFD6A6"/>
<path d="M87.739 119.769C87.716 119.745 87.7031 119.713 87.7031 119.68C87.7031 119.647 87.716 119.615 87.739 119.591L88.2225 118.859C88.2377 118.83 88.2638 118.808 88.2951 118.798C88.3264 118.788 88.3603 118.79 88.3896 118.805C88.4124 118.829 88.4252 118.86 88.4252 118.893C88.4252 118.925 88.4124 118.956 88.3896 118.98L87.9061 119.712C87.8909 119.741 87.865 119.763 87.8339 119.774C87.8028 119.784 87.7688 119.783 87.739 119.769Z" fill="#FFD6A6"/>
<path d="M85.7125 122.848C85.6868 122.828 85.67 122.798 85.6653 122.766C85.6607 122.734 85.6687 122.701 85.6876 122.674L86.1213 121.913C86.1346 121.883 86.1591 121.859 86.1895 121.847C86.22 121.834 86.2541 121.834 86.2848 121.846C86.3115 121.866 86.329 121.896 86.3337 121.929C86.3383 121.963 86.3297 121.996 86.3097 122.023L85.876 122.784C85.8628 122.814 85.8381 122.838 85.8075 122.85C85.7768 122.862 85.7427 122.861 85.7125 122.848Z" fill="#FFD6A6"/>
<path d="M85.3203 122.621C85.2941 122.601 85.2765 122.572 85.2712 122.54C85.2659 122.507 85.2733 122.474 85.2918 122.447L85.7255 121.686C85.7388 121.656 85.7634 121.632 85.7941 121.62C85.8247 121.608 85.8589 121.609 85.8891 121.622C85.9153 121.642 85.9328 121.671 85.9381 121.704C85.9434 121.736 85.936 121.769 85.9175 121.796L85.4802 122.557C85.4744 122.572 85.4656 122.586 85.4542 122.598C85.4429 122.609 85.4293 122.618 85.4142 122.624C85.3992 122.63 85.3831 122.633 85.3669 122.632C85.3508 122.632 85.3349 122.628 85.3203 122.621Z" fill="#FFD6A6"/>
<path d="M84.4423 126.161C84.4149 126.142 84.3959 126.114 84.3893 126.081C84.3827 126.049 84.3889 126.015 84.4067 125.987L84.8049 125.205C84.8182 125.175 84.842 125.152 84.8717 125.14C84.9013 125.127 84.9346 125.126 84.9649 125.137C84.9922 125.156 85.0112 125.185 85.0178 125.217C85.0244 125.25 85.0182 125.283 85.0004 125.311L84.6022 126.094C84.5896 126.124 84.5662 126.148 84.5366 126.162C84.5071 126.175 84.4734 126.178 84.4423 126.168V126.161Z" fill="#FFD6A6"/>
<path d="M84.0387 125.951C84.012 125.931 83.9936 125.903 83.987 125.871C83.9805 125.838 83.9862 125.805 84.0031 125.777L84.4013 124.994C84.4132 124.964 84.4367 124.939 84.4667 124.926C84.4966 124.913 84.5306 124.912 84.5613 124.923C84.5752 124.932 84.5872 124.944 84.5965 124.958C84.6058 124.971 84.6124 124.987 84.6157 125.003C84.619 125.019 84.619 125.036 84.6158 125.052C84.6125 125.068 84.6061 125.084 84.5968 125.098L84.1987 125.876C84.1867 125.907 84.1634 125.932 84.1336 125.945C84.1038 125.959 84.0698 125.961 84.0387 125.951Z" fill="#FFD6A6"/>
<path d="M91.7654 118.276C91.7431 118.261 91.7273 118.238 91.7214 118.211C91.7154 118.185 91.7197 118.157 91.7334 118.134L92.0889 117.636C92.0982 117.627 92.1093 117.619 92.1215 117.614C92.1337 117.609 92.1468 117.606 92.16 117.606C92.1733 117.606 92.1864 117.609 92.1986 117.614C92.2108 117.619 92.2219 117.627 92.2311 117.636C92.2541 117.651 92.2706 117.674 92.2772 117.7C92.2838 117.727 92.2801 117.755 92.2667 117.779L91.9112 118.276C91.8914 118.295 91.8654 118.305 91.8383 118.305C91.8112 118.305 91.7852 118.295 91.7654 118.276Z" fill="#FFD6A6"/>
<path d="M91.4008 118.006C91.3778 117.992 91.3614 117.969 91.3547 117.942C91.3481 117.916 91.3519 117.888 91.3653 117.864L91.7208 117.366C91.7401 117.347 91.7663 117.336 91.7936 117.336C91.821 117.336 91.8472 117.347 91.8665 117.366C91.8896 117.381 91.906 117.404 91.912 117.431C91.918 117.458 91.9131 117.485 91.8985 117.509L91.543 118.003C91.5338 118.012 91.5227 118.02 91.5105 118.025C91.4983 118.03 91.4852 118.033 91.4719 118.033C91.4587 118.033 91.4456 118.03 91.4334 118.025C91.4212 118.02 91.4101 118.012 91.4008 118.003V118.006Z" fill="#FFD6A6"/>
<path d="M97.1709 127.981C97.1555 127.952 97.1521 127.918 97.1614 127.886C97.1707 127.854 97.1919 127.827 97.2207 127.811L97.9317 127.313C97.9556 127.29 97.9874 127.277 98.0206 127.277C98.0538 127.277 98.0856 127.29 98.1095 127.313C98.1237 127.343 98.1261 127.377 98.1163 127.409C98.1064 127.44 98.0849 127.467 98.0561 127.484L97.3451 127.981C97.3219 128.004 97.2906 128.017 97.258 128.017C97.2255 128.017 97.1942 128.004 97.1709 127.981Z" fill="#FFD6A6"/>
<path d="M96.9168 127.625C96.9015 127.597 96.8982 127.563 96.9075 127.532C96.9168 127.501 96.938 127.474 96.9666 127.458L97.6776 126.961C97.6892 126.949 97.703 126.939 97.7182 126.933C97.7335 126.927 97.7499 126.923 97.7665 126.923C97.783 126.923 97.7994 126.927 97.8147 126.933C97.8299 126.939 97.8437 126.949 97.8553 126.961C97.8694 126.99 97.8717 127.024 97.8618 127.055C97.8519 127.086 97.8305 127.112 97.802 127.128L97.091 127.629C97.0797 127.641 97.0662 127.65 97.0512 127.656C97.0363 127.663 97.0202 127.666 97.0039 127.666C96.9876 127.666 96.9715 127.663 96.9566 127.656C96.9416 127.65 96.9281 127.641 96.9168 127.629V127.625Z" fill="#FFD6A6"/>
<path d="M94.4275 129.535C94.4151 129.504 94.4148 129.47 94.4267 129.439C94.4385 129.408 94.4617 129.383 94.4915 129.368L95.2487 128.924C95.2751 128.904 95.3083 128.896 95.3409 128.9C95.3736 128.905 95.4031 128.922 95.4229 128.949C95.4352 128.979 95.4355 129.014 95.4237 129.045C95.4118 129.076 95.3887 129.101 95.3589 129.116L94.6017 129.56C94.5747 129.578 94.542 129.586 94.5098 129.581C94.4776 129.577 94.4483 129.56 94.4275 129.535Z" fill="#FFD6A6"/>
<path d="M94.2087 129.142C94.1963 129.111 94.1961 129.076 94.2079 129.045C94.2198 129.015 94.2429 128.989 94.2727 128.975L95.0299 128.534C95.0563 128.514 95.0895 128.505 95.1222 128.51C95.1384 128.512 95.1539 128.518 95.168 128.526C95.182 128.534 95.1943 128.545 95.2041 128.559C95.2155 128.589 95.2152 128.622 95.2034 128.653C95.1916 128.683 95.1691 128.707 95.1401 128.722L94.3829 129.166C94.3565 129.186 94.3233 129.195 94.2907 129.19C94.258 129.185 94.2285 129.168 94.2087 129.142Z" fill="#FFD6A6"/>
<path d="M91.4072 131.029C91.3969 131.006 91.3956 130.98 91.4035 130.957C91.4114 130.933 91.428 130.913 91.4499 130.901L92.0258 130.546C92.0438 130.528 92.068 130.518 92.0933 130.518C92.1186 130.518 92.1429 130.528 92.1609 130.546C92.1719 130.569 92.1733 130.596 92.1646 130.621C92.156 130.645 92.138 130.666 92.1147 130.677L91.5423 131.033C91.5243 131.05 91.5 131.06 91.4747 131.06C91.4495 131.06 91.4252 131.05 91.4072 131.033V131.029Z" fill="#FFD6A6"/>
<path d="M91.2229 130.73C91.213 130.706 91.2122 130.68 91.2208 130.656C91.2293 130.633 91.2466 130.613 91.2692 130.602L91.8415 130.246C91.8601 130.228 91.885 130.218 91.9108 130.218C91.9367 130.218 91.9616 130.228 91.9802 130.246C91.9912 130.27 91.9926 130.297 91.9839 130.321C91.9753 130.346 91.9573 130.366 91.9339 130.378L91.3616 130.733C91.343 130.751 91.3181 130.761 91.2923 130.761C91.2664 130.761 91.2415 130.751 91.2229 130.733V130.73Z" fill="#FFD6A6"/>
<path d="M100.292 126.116C100.273 126.096 100.262 126.07 100.262 126.043C100.262 126.015 100.273 125.989 100.292 125.97L100.775 125.614C100.798 125.6 100.826 125.595 100.853 125.601C100.88 125.607 100.903 125.623 100.918 125.646C100.937 125.666 100.948 125.692 100.948 125.719C100.948 125.747 100.937 125.773 100.918 125.792L100.434 126.148C100.411 126.161 100.383 126.166 100.357 126.16C100.33 126.154 100.307 126.138 100.292 126.116Z" fill="#FFD6A6"/>
<path d="M100.017 125.749C99.9986 125.73 99.9883 125.704 99.9883 125.677C99.9883 125.65 99.9986 125.623 100.017 125.604L100.501 125.248C100.512 125.24 100.524 125.235 100.537 125.232C100.551 125.229 100.564 125.229 100.578 125.232C100.591 125.234 100.604 125.24 100.615 125.247C100.626 125.255 100.636 125.265 100.643 125.277C100.662 125.296 100.673 125.322 100.673 125.35C100.673 125.377 100.662 125.403 100.643 125.422L100.156 125.778C100.133 125.792 100.105 125.797 100.078 125.791C100.051 125.785 100.028 125.769 100.014 125.746L100.017 125.749Z" fill="#FFD6A6"/>
<path d="M90.0359 123.808C90.0129 123.784 90 123.752 90 123.719C90 123.686 90.0129 123.654 90.0359 123.63L90.5265 122.919C90.5417 122.89 90.5677 122.868 90.599 122.858C90.6303 122.848 90.6643 122.851 90.6936 122.866C90.7166 122.89 90.7295 122.921 90.7295 122.955C90.7295 122.988 90.7166 123.02 90.6936 123.043L90.203 123.754C90.1878 123.784 90.1617 123.806 90.1304 123.816C90.0991 123.826 90.0651 123.823 90.0359 123.808Z" fill="#FFE0BC"/>
<path d="M89.6531 123.553C89.6301 123.529 89.6172 123.497 89.6172 123.464C89.6172 123.431 89.6301 123.399 89.6531 123.375L90.1437 122.664C90.1595 122.635 90.1863 122.612 90.2181 122.603C90.25 122.593 90.2845 122.595 90.3143 122.611C90.3373 122.634 90.3502 122.666 90.3502 122.699C90.3502 122.733 90.3373 122.764 90.3143 122.788L89.8237 123.499C89.8086 123.528 89.7825 123.55 89.7512 123.56C89.7199 123.57 89.6859 123.568 89.6566 123.553H89.6531Z" fill="#FFE0BC"/>
<path d="M87.9318 127.192C87.9186 127.182 87.9076 127.17 87.8993 127.156C87.891 127.142 87.8857 127.126 87.8837 127.11C87.8817 127.093 87.8831 127.077 87.8877 127.061C87.8923 127.045 87.9 127.031 87.9105 127.018L88.3656 126.268C88.3788 126.24 88.4022 126.217 88.4312 126.205C88.4602 126.193 88.4926 126.193 88.522 126.204C88.5471 126.225 88.5632 126.254 88.5672 126.287C88.5712 126.319 88.5626 126.352 88.5433 126.378L88.0883 127.128C88.0744 127.158 88.0494 127.181 88.0188 127.192C87.9883 127.203 87.9545 127.202 87.9247 127.189L87.9318 127.192Z" fill="#FFE0BC"/>
<path d="M87.5436 126.955C87.5178 126.935 87.501 126.905 87.497 126.872C87.493 126.84 87.5021 126.807 87.5223 126.781L87.9738 126.031C87.989 126.002 88.0147 125.979 88.0456 125.968C88.0765 125.957 88.1105 125.958 88.1409 125.97C88.1541 125.98 88.1652 125.992 88.1734 126.007C88.1817 126.021 88.187 126.037 88.189 126.053C88.191 126.069 88.1896 126.086 88.185 126.101C88.1804 126.117 88.1727 126.132 88.1622 126.144L87.7072 126.895C87.6933 126.924 87.6683 126.947 87.6377 126.958C87.6072 126.97 87.5734 126.968 87.5436 126.955Z" fill="#FFE0BC"/>
<path d="M101.146 147.379L82.6602 147.816L83.0939 154.798C89.2369 154.361 95.3057 153.191 101.171 151.314L101.146 147.379Z" fill="#DC624B"/>
<path d="M52.526 150.887C58.6012 152.953 64.9104 154.252 71.3073 154.755L71.8441 147.816H52.4727L52.526 150.887Z" fill="#DC624B"/>
<path d="M74.4173 65.5895L73.6174 65.465C73.6667 64.9402 73.8253 64.4316 74.0832 63.9719C74.4036 63.4378 74.8698 63.0061 75.427 62.7276C76.0449 62.4207 76.728 62.2682 77.4178 62.2833C78.0884 62.2689 78.7538 62.4037 79.366 62.6779C79.8801 62.9012 80.3211 63.2646 80.6387 63.7266C80.9209 64.147 81.0707 64.6423 81.0688 65.1486C81.0747 65.5686 80.9613 65.9816 80.7418 66.3396C80.4945 66.7203 80.1654 67.0409 79.7783 67.2781C79.4148 67.5027 79.0209 67.6739 78.6087 67.7865C79.0457 67.8367 79.4718 67.9567 79.8708 68.142C80.3834 68.397 80.8172 68.7865 81.1257 69.2689C81.4299 69.7375 81.5894 70.2852 81.5843 70.8438C81.5771 71.3121 81.4648 71.7729 81.2556 72.1919C81.0464 72.611 80.7456 72.9776 80.3756 73.2648C79.502 73.9951 78.3885 74.3751 77.2507 74.3313C76.1059 74.3685 74.9829 74.0121 74.0689 73.3217C73.3579 72.7481 72.9965 72.1734 72.9846 71.5975C72.9819 71.4923 73 71.3876 73.0378 71.2893C73.0756 71.1911 73.1325 71.1013 73.2051 71.0251C73.2766 70.9508 73.3629 70.8921 73.4584 70.8529C73.5539 70.8138 73.6565 70.7949 73.7596 70.7976C73.8781 70.7963 73.9953 70.8208 74.1034 70.8692C74.2114 70.9177 74.3076 70.9891 74.3853 71.0784C74.5358 71.3104 74.6452 71.5666 74.7088 71.8357C74.8507 72.3473 75.1583 72.7974 75.5834 73.1155C76.0362 73.4203 76.5736 73.5745 77.1192 73.5563C77.6287 73.5653 78.1319 73.4429 78.5803 73.2008C79.0114 72.9594 79.3651 72.6007 79.6006 72.1663C79.847 71.7328 79.9769 71.2429 79.9774 70.7443C79.9831 70.3481 79.889 69.9569 79.7037 69.6067C79.5177 69.2663 79.2547 68.9741 78.9358 68.7534C78.6407 68.556 78.3057 68.4262 77.9546 68.3731C77.603 68.3055 77.2461 68.2686 76.8881 68.2629H76.1131V67.4559H76.6072C77.0794 67.4578 77.55 67.4005 78.0079 67.2852C78.4361 67.1813 78.8138 66.9295 79.0744 66.5742C79.2551 66.3403 79.3812 66.069 79.4435 65.78C79.5058 65.4911 79.5028 65.192 79.4346 64.9044C79.3665 64.6168 79.2349 64.3481 79.0496 64.1179C78.8643 63.8876 78.6298 63.7017 78.3634 63.5737C77.9736 63.3856 77.5449 63.2918 77.1121 63.3C76.6714 63.2942 76.2356 63.3916 75.8393 63.5844C75.4717 63.757 75.152 64.017 74.9079 64.3416C74.6543 64.7163 74.4867 65.1424 74.4173 65.5895Z" fill="#F88B54"/>
</svg>
