<svg width="69" height="66" viewBox="0 0 69 66" fill="none" xmlns="http://www.w3.org/2000/svg">
<path d="M64.0811 28.702C62.5324 27.4321 60.9217 26.1312 60.4262 24.5721C59.9306 23.0131 60.4262 20.8862 60.9527 18.9039C61.4793 16.9215 62.0471 14.7017 61.2315 13.5763C60.4158 12.4509 58.1341 12.2961 56.0691 12.1722C54.0042 12.0483 51.9393 11.945 50.5661 10.9435C49.1929 9.94203 48.5011 8.0113 47.7268 6.12188C46.9524 4.23246 46.1368 1.99201 44.7636 1.5687C43.3904 1.14538 41.6662 2.3224 39.8594 3.45812C38.0525 4.59384 36.2973 5.7502 34.5525 5.7502C32.8076 5.7502 30.9904 4.58351 29.2352 3.45812C27.48 2.33273 25.5906 1.16603 24.3413 1.5687C23.092 1.97136 22.1525 4.10856 21.3678 6.12188C20.5831 8.1352 19.8811 9.96268 18.5388 10.9435C17.1966 11.9244 15.0594 12.0586 13.0254 12.1722C10.9915 12.2857 8.65809 12.4303 7.86308 13.5763C7.06808 14.7224 7.59465 16.8389 8.14186 18.9039C8.68906 20.9688 9.17432 22.9408 8.66841 24.5618C8.1625 26.1828 6.55186 27.4217 5.00315 28.6917C3.45445 29.9616 1.55469 31.5 1.55469 32.9868C1.55469 34.4735 3.3099 35.9087 5.00315 37.2922C6.6964 38.6757 8.1625 39.863 8.66841 41.4221C9.17432 42.9811 8.66842 45.0977 8.13154 47.0903C7.59465 49.083 7.03711 51.2822 7.86308 52.4179C8.68906 53.5536 10.9089 53.6878 13.0254 53.8117C15.142 53.9356 17.1553 54.0492 18.5388 55.0403C19.9224 56.0315 20.6038 57.9726 21.3678 59.862C22.1318 61.7514 22.9578 63.9919 24.3413 64.4255C25.7248 64.8591 27.4387 63.6718 29.2352 62.5258C31.0317 61.3797 32.7973 60.244 34.5525 60.244C36.3077 60.244 38.1041 61.4004 39.8594 62.5258C41.6146 63.6511 43.5143 64.8282 44.7533 64.4255C45.9922 64.0228 46.9421 61.8856 47.7268 59.862C48.5114 57.8383 49.2135 56.0212 50.5557 55.0403C51.898 54.0595 54.0352 53.9253 56.0691 53.8117C58.1031 53.6981 60.4365 53.5639 61.2315 52.4179C62.0265 51.2718 61.4896 49.1553 60.9527 47.0903C60.4158 45.0254 59.9203 43.0534 60.4262 41.4221C60.9321 39.7907 62.4911 38.5621 64.0811 37.2922C65.7847 35.9087 67.5399 34.4735 67.5399 32.9868C67.5399 31.5 65.7847 30.0855 64.0811 28.702Z" fill="#F9C876"/>
<path d="M65.0457 27.5773C63.6621 26.4416 62.227 25.2749 61.8553 24.1288C61.4836 22.9828 61.9379 21.0314 62.4128 19.2762C63.0323 16.8912 63.6828 14.4133 62.4128 12.7304C61.1429 11.0474 58.6134 10.8822 56.1251 10.7377C54.2976 10.6344 52.4082 10.5312 51.3861 9.78782C50.3639 9.04444 49.7031 7.30989 49.0527 5.65793C48.1441 3.32455 47.2046 0.90858 45.1809 0.247799C44.8472 0.140259 44.499 0.0845417 44.1484 0.0825995C42.4965 0.0825995 40.7413 1.20799 39.048 2.3024C37.3548 3.39682 35.8474 4.36735 34.5258 4.36735C33.2043 4.36735 31.573 3.33488 29.9933 2.3024C28.4136 1.26993 26.5345 0 24.8826 0C24.5319 0.000946368 24.1835 0.0566876 23.8501 0.165199C21.7851 0.82598 20.8869 3.2626 19.9783 5.57534C19.3175 7.26859 18.6464 9.01346 17.6346 9.70522C16.6228 10.397 14.723 10.5519 12.8956 10.6551C10.4176 10.7997 7.84677 10.9545 6.60781 12.6478C5.36884 14.341 6.02963 16.7776 6.65943 19.1936C7.12404 20.9798 7.6093 22.8279 7.20664 24.0462C6.80398 25.2645 5.39982 26.359 4.01631 27.4947C2.06494 29.1673 0 30.8192 0 33.0391C0 35.2589 2.06494 36.8695 3.98534 38.4698C5.36885 39.5952 6.80398 40.7619 7.17567 41.908C7.54736 43.054 7.09307 45.0054 6.62846 46.7709C5.99865 49.1559 5.35852 51.6235 6.57683 53.3065C7.79515 54.9894 10.3867 55.1546 12.8646 55.2991C14.6921 55.4024 16.5918 55.5159 17.6036 56.2593C18.6154 57.0027 19.2866 58.7269 19.937 60.3892C20.8456 62.7226 21.7851 65.1386 23.8191 65.7993C24.1531 65.9045 24.5014 65.9568 24.8516 65.9542C26.5035 65.9542 28.2587 64.8288 29.952 63.7447C31.6452 62.6606 33.1526 61.6798 34.4845 61.6798C35.8164 61.6798 37.4374 62.7123 39.0067 63.7447C40.5761 64.7772 42.4552 65.9542 44.1072 65.9542C44.4572 65.9556 44.8054 65.9034 45.1396 65.7993C47.2046 65.1386 48.1028 62.7019 49.0114 60.3892C49.6618 58.6856 50.3433 56.9408 51.3448 56.2593C52.3463 55.5779 54.2563 55.4024 56.0838 55.2991C58.5721 55.1546 61.1326 55.01 62.3716 53.3065C63.6105 51.6029 62.9497 49.1766 62.3716 46.7709C61.8966 44.9847 61.4114 43.1366 61.814 41.908C62.2167 40.6793 63.6208 39.5952 65.0147 38.4698C66.966 36.8695 69 35.2279 69 33.0391C69 30.8502 66.9557 29.1673 65.0457 27.5773ZM64.1371 37.3032C62.5884 38.5628 60.9777 39.874 60.4821 41.433C59.9865 42.9921 60.4821 45.119 61.0087 47.1013C61.5353 49.0836 62.1031 51.2931 61.2875 52.4289C60.4718 53.5646 58.19 53.6988 56.1251 53.8227C54.0602 53.9466 51.9952 54.0602 50.6117 55.0513C49.2282 56.0425 48.5468 57.9836 47.7827 59.873C47.0187 61.7624 46.1927 64.0029 44.8092 64.4365C43.4257 64.8701 41.7118 63.6828 39.9153 62.5368C38.1188 61.3907 36.3533 60.255 34.6084 60.255C32.8635 60.255 31.0464 61.4114 29.2912 62.5368C27.536 63.6621 25.6466 64.8392 24.3973 64.4365C23.148 64.0338 22.2084 61.8966 21.4238 59.873C20.6391 57.8493 19.937 56.0322 18.5948 55.0513C17.2526 54.0705 15.1154 53.9363 13.0814 53.8227C11.0474 53.7091 8.71405 53.5749 7.91905 52.4289C7.12405 51.2828 7.6506 49.1662 8.18748 47.1013C8.72437 45.0364 9.21996 43.0644 8.72437 41.433C8.22879 39.8017 6.60781 38.5731 5.0591 37.3032C3.51039 36.0332 1.61065 34.4845 1.61065 32.9978C1.61065 31.511 3.36585 30.0862 5.0591 28.7027C6.75235 27.3192 8.21846 26.1318 8.72437 24.5728C9.23028 23.0138 8.72438 20.8972 8.19782 18.9149C7.67126 16.9325 7.09307 14.7127 7.91905 13.5873C8.74502 12.4619 10.9648 12.3071 13.0814 12.1832C15.198 12.0593 17.2113 11.956 18.5948 10.9545C19.9783 9.95302 20.6597 8.0223 21.4238 6.13288C22.1878 4.24346 23.0138 2.00299 24.3973 1.57968C25.7808 1.15637 27.4947 2.33338 29.2912 3.4691C31.0877 4.60482 32.8532 5.76119 34.6084 5.76119C36.3636 5.76119 38.1601 4.59449 39.9153 3.4691C41.6705 2.34371 43.5599 1.17702 44.8196 1.57968C46.0792 1.98234 46.9981 4.11956 47.7827 6.13288C48.5674 8.1462 49.2695 9.98399 50.622 10.9545C51.9746 11.925 54.0911 12.0696 56.1251 12.1832C58.1591 12.2967 60.4925 12.4413 61.2875 13.5873C62.0825 14.7334 61.5559 16.8499 61.0087 18.9149C60.4615 20.9798 59.9762 22.9518 60.4821 24.5831C60.988 26.2144 62.5471 27.4327 64.1371 28.713C65.8407 30.0965 67.5959 31.5213 67.5959 33.0081C67.5959 34.4948 65.789 35.9197 64.0855 37.3032H64.1371Z" fill="#A6623E"/>
<path d="M59.101 33.0397C59.101 37.9043 57.6583 42.6596 54.9555 46.7042C52.2527 50.7488 48.4111 53.901 43.9166 55.7621C39.4222 57.6232 34.4767 58.1097 29.7058 57.1599C24.9348 56.2101 20.5527 53.8668 17.1137 50.4263C13.6746 46.9858 11.3331 42.6027 10.3854 37.8314C9.43759 33.06 9.9261 28.1148 11.7891 23.6211C13.6521 19.1274 16.8059 15.2871 20.8516 12.586C24.8974 9.8849 29.6533 8.44425 34.5178 8.44629C37.747 8.44629 40.9446 9.08249 43.9278 10.3186C46.911 11.5546 49.6215 13.3663 51.9044 15.6502C54.1873 17.934 55.9978 20.6453 57.2327 23.629C58.4675 26.6128 59.1023 29.8106 59.101 33.0397Z" fill="#FDE3A3"/>
<path d="M42.3992 15.3208C46.5316 15.3187 50.5976 16.3592 54.221 18.3459C52.0313 15.3947 49.2076 12.9722 45.9577 11.2567C42.7079 9.54126 39.1146 8.57656 35.4426 8.43363C31.7705 8.29071 28.1131 8.97321 24.7398 10.4309C21.3664 11.8885 18.3629 14.0843 15.9505 16.8564C13.538 19.6285 11.778 22.9064 10.8001 26.4487C9.8222 29.991 9.65122 33.7076 10.2998 37.3247C10.9484 40.9419 12.4 44.3675 14.5477 47.3494C16.6955 50.3313 19.4847 52.7935 22.71 54.5547C19.9845 50.9015 18.3296 46.5617 17.9308 42.0213C17.532 37.4809 18.4049 32.9191 20.4518 28.8467C22.4987 24.7743 25.6388 21.352 29.5206 18.9632C33.4023 16.5743 37.8723 15.3131 42.4302 15.3208H42.3992Z" fill="#FDE9B5"/>
<path d="M37.6744 43.196C37.6803 43.9032 37.8168 44.6033 38.0771 45.2609C38.2714 45.7426 38.64 46.1334 39.1096 46.3554C39.7093 46.6091 40.3591 46.7221 41.0093 46.6857H41.4223V48.5545H29.1256V46.6857C29.8529 46.7194 30.5796 46.6071 31.2628 46.3554C31.7593 46.1444 32.1576 45.7534 32.3779 45.2609C32.6474 44.6057 32.7876 43.9045 32.7908 43.196C32.7908 42.3494 32.8528 41.2963 32.8528 40.0263V25.9434C32.8528 24.67 32.8321 23.6169 32.7908 22.7841C32.7864 22.0776 32.6534 21.3779 32.3985 20.7191C32.2042 20.2375 31.8356 19.8467 31.366 19.6247C30.7663 19.371 30.1165 19.2579 29.4663 19.2943H29.043V17.4255H37.5712V39.9953C37.6125 41.2963 37.6331 42.3494 37.6744 43.196Z" fill="#F88B54"/>
</svg>
