<svg width="155" height="155" viewBox="0 0 155 155" fill="none" xmlns="http://www.w3.org/2000/svg">
<path d="M77.5 155C120.302 155 155 120.302 155 77.5C155 34.6979 120.302 0 77.5 0C34.6979 0 0 34.6979 0 77.5C0 120.302 34.6979 155 77.5 155Z" fill="#C4C4C4"/>
<path d="M62.099 77.7061L60.6094 76.6395C60.0868 76.284 59.5429 75.8752 58.9706 75.4593C57.8401 74.6309 56.6242 73.7209 55.3728 72.7254C54.7436 72.2313 54.1144 71.7087 53.4816 71.1719C52.8488 70.6351 52.2124 70.0663 51.5974 69.4797L51.1352 69.0317L50.6873 68.6123C50.538 68.4594 50.3993 68.2994 50.25 68.143L49.8483 67.6808L49.635 67.4178L49.5248 67.2862L49.4999 67.2542C49.4999 67.2542 49.475 67.2258 49.4999 67.2542L49.4501 67.1867L49.0413 66.6534C48.7747 66.2979 48.5116 65.9424 48.2556 65.5869C47.7402 64.8759 47.2531 64.1151 46.8016 63.3508C46.5741 62.9704 46.3573 62.5829 46.1511 62.1918C45.9449 61.8008 45.7529 61.4026 45.5751 61.0045C44.8413 59.4716 44.4012 57.8148 44.2776 56.1198C44.2776 56.0203 44.2776 55.9136 44.2776 55.8176V55.5368C44.2776 55.487 44.2776 55.4479 44.2776 55.391V55.2204L44.2953 54.9111C44.3277 54.5233 44.3883 54.1383 44.4766 53.7593C44.565 53.4036 44.6901 53.0581 44.8499 52.7283C44.9267 52.5731 45.0122 52.4224 45.1059 52.2768C45.1521 52.2093 45.209 52.1311 45.2516 52.0777C45.2804 52.037 45.3112 51.9979 45.3441 51.9604L45.4223 51.8715C46.343 50.8264 47.8859 50.3393 49.3684 50.2824C49.5531 50.2718 49.7383 50.2718 49.923 50.2824C50.1043 50.2824 50.2785 50.3144 50.4669 50.3429C50.8273 50.3954 51.1836 50.4726 51.5334 50.574C52.2934 50.8038 52.9985 51.1861 53.606 51.6973C55.2555 53.3647 56.187 53.1016 56.546 52.1702C56.7593 51.6191 54.9605 51.061 53.9935 50.4922C53.3373 50.0593 52.6365 49.6982 51.9031 49.415C51.5137 49.269 51.1146 49.1502 50.7086 49.0595C50.4989 49.0097 50.2891 48.9706 50.0723 48.9386C49.8554 48.9066 49.6421 48.8675 49.4217 48.8426C48.9722 48.7908 48.5191 48.7766 48.0672 48.8C47.5881 48.8226 47.1121 48.8892 46.6452 48.9991C46.1533 49.1183 45.6763 49.2924 45.2232 49.5181C44.7523 49.7537 44.3168 50.0541 43.9292 50.4104L43.8581 50.478L43.8189 50.5135L43.8012 50.5313L43.7763 50.5562C43.731 50.5961 43.6882 50.6388 43.6483 50.6842C43.5417 50.7944 43.4599 50.8904 43.371 50.997C43.2011 51.2087 43.0443 51.4308 42.9017 51.6618C42.6319 52.119 42.4126 52.6041 42.2476 53.1087C42.0859 53.6012 41.9669 54.1067 41.8921 54.6196L41.8495 54.9751V55.1457C41.8495 55.2062 41.8495 55.2773 41.8495 55.3448L41.8281 55.7465C41.8281 55.8816 41.8281 56.0061 41.8281 56.134C41.8355 57.1532 41.9656 58.1678 42.2156 59.1558C42.3355 59.6444 42.4815 60.1262 42.6529 60.5992C42.82 61.0756 43.0084 61.5377 43.2075 61.9928C43.6147 62.8902 44.079 63.7606 44.5975 64.5986C45.113 65.4305 45.664 66.2197 46.2542 66.9805C46.5457 67.3573 46.8478 67.7271 47.15 68.0861L47.6015 68.6194L47.8433 68.8931L48.0708 69.1455C48.2414 69.3268 48.4263 69.501 48.5863 69.6788C48.7462 69.8565 48.924 70.0129 49.0946 70.1729L49.6066 70.6422L50.1256 71.1008C51.4535 72.2131 52.8434 73.2493 54.2886 74.2043C54.9711 74.6629 55.643 75.0896 56.2972 75.4948C56.9513 75.9001 57.5912 76.2769 58.2098 76.6324C58.8284 76.9879 59.4256 77.3221 59.9873 77.6314C60.549 77.9407 62.1772 80.0204 62.6927 80.2835C63.7237 80.8025 63.0411 78.3566 62.099 77.7061Z" fill="#F29D06"/>
<path d="M62.5932 79.363L60.9685 78.2112L59.191 76.9101C57.9574 75.9929 56.6349 74.9868 55.2804 73.8918C54.5979 73.3479 53.9153 72.7649 53.2221 72.1747C52.5288 71.5846 51.8427 70.9554 51.1744 70.3048L50.6731 69.8142L50.1754 69.3236C50.0119 69.153 49.859 68.9681 49.699 68.8081L49.2617 68.2997L49.0271 68.0082L48.9098 67.8625L48.8814 67.8269V67.8056C48.8814 67.8056 48.8529 67.7771 48.8814 67.8056L48.8245 67.7309L48.3836 67.1443C48.0921 66.7497 47.8042 66.3551 47.5269 65.9499C46.9652 65.1535 46.4355 64.3252 45.9449 63.4827C45.696 63.0596 45.4614 62.633 45.2339 62.2028C45.0064 61.7727 44.8002 61.3318 44.6046 60.891C43.8034 59.1972 43.3214 57.3702 43.1826 55.5016C43.1826 55.3914 43.1826 55.274 43.1826 55.1674V54.8546C43.1826 54.8012 43.1826 54.7586 43.1826 54.6946V54.5062L43.2004 54.1684C43.2344 53.7398 43.301 53.3143 43.3995 52.8957C43.4924 52.5033 43.6271 52.1219 43.8012 51.7581C43.8854 51.5852 43.9803 51.4178 44.0856 51.2568C44.1318 51.1822 44.1958 51.0969 44.2385 51.0364C44.2811 50.976 44.306 50.9511 44.3416 50.9085L44.4269 50.8089C45.4258 49.6535 47.1074 49.1167 48.7214 49.0563C48.9226 49.0439 49.1245 49.0439 49.3257 49.0563C49.5248 49.0563 49.7203 49.0954 49.9159 49.1274C50.305 49.1858 50.6898 49.2701 51.0677 49.3798C51.7974 49.5968 52.5026 49.8887 53.1723 50.2508C56.4465 53.884 58.5049 52.1314 53.7447 49.2909C53.036 48.8247 52.2791 48.4361 51.4872 48.132C51.0639 47.9675 50.629 47.8344 50.1861 47.7338C49.9621 47.6805 49.731 47.6343 49.4964 47.5987C49.2617 47.5632 49.0271 47.5205 48.7854 47.4956C48.2958 47.4379 47.8023 47.4212 47.31 47.4458C46.7935 47.4714 46.2806 47.5452 45.7778 47.6663C45.2469 47.7979 44.7328 47.99 44.2456 48.2386C43.7279 48.4988 43.2492 48.8303 42.8236 49.2234L42.7453 49.298L42.7062 49.3371L42.6849 49.3549L42.6565 49.3833C42.6102 49.4296 42.5783 49.4616 42.5178 49.5291C42.4041 49.65 42.3116 49.7531 42.2156 49.8846C42.0286 50.1168 41.8576 50.3615 41.7037 50.6169C41.4081 51.1209 41.1697 51.6563 40.9927 52.2132C40.8175 52.7566 40.6914 53.3146 40.6159 53.8805L40.5697 54.2929L40.5483 54.4813C40.5483 54.5453 40.5483 54.627 40.5483 54.6981L40.5234 55.1425C40.5234 55.2883 40.5234 55.4269 40.5234 55.5691C40.5304 56.6934 40.6712 57.8128 40.9429 58.9038C41.0737 59.4438 41.2327 59.9766 41.4193 60.5C41.6018 61.0214 41.8033 61.5333 42.0237 62.0357C42.4666 63.0269 42.9724 63.9887 43.5381 64.9153C44.0963 65.8325 44.7077 66.6929 45.337 67.5425C45.6569 67.9585 45.984 68.3673 46.3111 68.7654L46.8052 69.352L47.0683 69.6542L47.3136 69.9351L47.8753 70.5252C48.0601 70.7065 48.2308 70.8807 48.4263 71.0656L48.988 71.5882L49.5497 72.0859C50.9944 73.3133 52.5077 74.4575 54.0824 75.5129C54.8218 76.0177 55.5542 76.4906 56.2687 76.9349C56.9833 77.3793 57.6908 77.8024 58.3484 78.1934C59.0061 78.5845 59.6709 78.9542 60.293 79.2955C60.9152 79.6368 61.5053 79.9532 62.0706 80.2447C63.1904 80.8064 63.6348 80.0847 62.5932 79.363Z" fill="#FFC71F"/>
<path d="M113.862 55.3414C113.862 55.2739 113.862 55.2028 113.862 55.1423L113.844 54.9717L113.802 54.6162C113.727 54.1033 113.608 53.5978 113.446 53.1053C113.281 52.6007 113.062 52.1156 112.792 51.6584C112.651 51.4265 112.494 51.2044 112.323 50.9936C112.234 50.8869 112.152 50.791 112.045 50.6807C112.005 50.6354 111.963 50.5927 111.917 50.5528L111.892 50.5279L111.875 50.5101L111.836 50.4746L111.764 50.407C111.377 50.0507 110.941 49.7503 110.47 49.5147C110.017 49.2889 109.54 49.1148 109.048 48.9957C108.582 48.8858 108.106 48.8192 107.626 48.7966C107.175 48.7731 106.721 48.7874 106.272 48.8392C106.052 48.8641 105.828 48.9032 105.621 48.9352C105.415 48.9672 105.195 49.0063 104.985 49.0561C104.579 49.1468 104.18 49.2656 103.791 49.4116C103.065 49.6869 102.37 50.0385 101.718 50.4603C100.751 51.0291 98.9521 51.5873 99.1654 52.1383C99.5209 53.0697 100.456 53.3328 102.105 51.6655C102.713 51.1542 103.418 50.772 104.178 50.5421C104.528 50.4412 104.884 50.364 105.245 50.311C105.426 50.2826 105.6 50.2648 105.788 50.2506C105.974 50.2399 106.161 50.2399 106.347 50.2506C107.829 50.3075 109.372 50.7945 110.289 51.8397L110.367 51.9286L110.463 52.0459L110.606 52.245C110.701 52.3898 110.786 52.5406 110.862 52.6965C111.023 53.0256 111.148 53.3713 111.235 53.7274C111.323 54.1065 111.384 54.4914 111.416 54.8793L111.434 55.1885V55.3592C111.434 55.4161 111.434 55.4552 111.434 55.5049V55.7858C111.434 55.8818 111.434 55.9884 111.434 56.088C111.31 57.7829 110.87 59.4397 110.136 60.9726C109.959 61.3708 109.763 61.7689 109.56 62.16C109.358 62.551 109.137 62.9385 108.91 63.3189C108.458 64.0833 107.971 64.8334 107.456 65.5551C107.2 65.9106 106.937 66.2661 106.67 66.6216L106.261 67.1548L106.212 67.2224C106.236 67.1904 106.212 67.2224 106.212 67.2224L106.183 67.2544L106.073 67.3859L105.86 67.649L105.458 68.1111C105.312 68.2676 105.17 68.4275 105.021 68.5804L104.573 69.0354L104.11 69.4834C103.495 70.07 102.863 70.6352 102.23 71.1756C101.597 71.716 100.964 72.2421 100.335 72.7291C99.0837 73.7246 97.8714 74.6346 96.7373 75.463C96.1685 75.8789 95.621 76.27 95.0984 76.6432L93.6089 77.7098C92.6668 78.3603 91.9842 80.8062 93.0152 80.2801C93.5307 80.017 95.1482 77.9373 95.7206 77.628C96.2929 77.3187 96.8902 76.9881 97.4981 76.629C98.106 76.27 98.7566 75.8967 99.4107 75.4914C100.065 75.0861 100.737 74.6595 101.419 74.2009C102.866 73.2471 104.257 72.2121 105.586 71.1009L106.105 70.6459L106.617 70.1766C106.787 70.0166 106.972 69.8496 107.125 69.6825C107.278 69.5154 107.481 69.327 107.641 69.1492L107.868 68.8968L108.11 68.6231L108.565 68.0898C108.867 67.7343 109.166 67.3788 109.457 66.9842C110.04 66.2234 110.598 65.4342 111.114 64.6023C111.632 63.7643 112.097 62.8939 112.504 61.9965C112.707 61.5414 112.895 61.0793 113.059 60.6029C113.23 60.1299 113.376 59.6481 113.496 59.1595C113.746 58.1715 113.876 57.1569 113.883 56.1377C113.883 56.0098 113.883 55.8853 113.883 55.7502L113.862 55.3414Z" fill="#F29D06"/>
<path d="M115.15 54.6766C115.15 54.6055 115.15 54.5238 115.15 54.4598L115.128 54.2713L115.082 53.859C115.006 53.2935 114.881 52.7356 114.709 52.1916C114.53 51.6354 114.292 51.1002 113.998 50.5954C113.845 50.3392 113.674 50.0944 113.486 49.8631C113.39 49.7422 113.298 49.6391 113.184 49.5076C113.123 49.44 113.091 49.408 113.045 49.3618L113.017 49.3334L112.999 49.3156L112.956 49.2765L112.878 49.2018C112.452 48.8088 111.974 48.4773 111.456 48.2171C110.969 47.9684 110.455 47.7764 109.924 47.6447C109.421 47.5237 108.908 47.4499 108.392 47.4243C107.899 47.3997 107.406 47.4164 106.916 47.4741C106.678 47.499 106.433 47.5416 106.205 47.5772C105.978 47.6127 105.739 47.659 105.516 47.7123C105.073 47.8129 104.638 47.9459 104.214 48.1105C103.423 48.4138 102.667 48.8024 101.96 49.2694C97.1825 52.1134 99.2551 53.8625 102.529 50.2293C103.199 49.8672 103.904 49.5753 104.634 49.3583C105.012 49.249 105.397 49.1647 105.786 49.1059C105.981 49.0739 106.18 49.0525 106.379 49.0348C106.579 49.0223 106.78 49.0223 106.98 49.0348C108.594 49.0952 110.276 49.632 111.275 50.7874L111.36 50.8869C111.396 50.9296 111.445 50.9865 111.463 51.0149C111.481 51.0434 111.57 51.1607 111.62 51.2353C111.724 51.3963 111.817 51.5638 111.9 51.7366C112.076 52.0998 112.211 52.4813 112.302 52.8742C112.401 53.2928 112.467 53.7183 112.501 54.1469V54.4846V54.6731V55.1459C112.501 55.2525 112.501 55.3699 112.483 55.4801C112.345 57.3487 111.863 59.1757 111.061 60.8695C110.866 61.3103 110.656 61.7476 110.436 62.1813C110.215 62.615 109.974 63.0381 109.725 63.4611C109.234 64.3037 108.704 65.132 108.143 65.9283C107.865 66.3336 107.581 66.7282 107.289 67.1228L106.845 67.7094L106.788 67.7841C106.817 67.7521 106.788 67.7841 106.788 67.7841L106.77 67.8054L106.742 67.841L106.625 67.9867L106.39 68.2782L105.953 68.7866C105.793 68.9572 105.64 69.1421 105.48 69.3021L104.989 69.8069L104.488 70.2975C103.82 70.9481 103.13 71.5702 102.44 72.1674C101.751 72.7647 101.065 73.3406 100.382 73.8845C99.0205 74.9795 97.698 75.9856 96.4715 76.9028L94.694 78.2039L93.0693 79.3593C92.0454 80.0703 92.4721 80.8027 93.5919 80.2196C94.1536 79.9281 94.7461 79.6117 95.3694 79.2704C95.988 78.9149 96.6386 78.5594 97.3105 78.1684C97.9824 77.7773 98.6792 77.3614 99.3902 76.9099C100.101 76.4584 100.837 75.9927 101.577 75.4879C103.151 74.4324 104.665 73.2882 106.109 72.0608L106.674 71.5631L107.233 71.0405C107.417 70.8663 107.588 70.685 107.784 70.5001C107.979 70.3153 108.16 70.1055 108.345 69.91L108.591 69.6291L108.854 69.327L109.348 68.7404C109.68 68.3422 110.004 67.9346 110.322 67.5174C110.955 66.6785 111.563 65.8075 112.124 64.8903C112.688 63.9628 113.192 63.0011 113.635 62.0107C113.856 61.5082 114.057 60.9963 114.24 60.4749C114.426 59.9515 114.585 59.4187 114.716 58.8787C114.988 57.7877 115.128 56.6683 115.135 55.5441C115.135 55.4019 115.135 55.2632 115.135 55.1174L115.15 54.6766Z" fill="#FFC71F"/>
<path d="M57.3383 57.9473C58.6182 64.8868 59.1514 67.5815 60.1504 71.2254C61.3342 75.5697 61.9599 77.7916 63.4281 80.4437C64.8586 82.8665 66.4241 85.2071 68.1172 87.4542C68.9207 88.5598 69.973 89.9676 71.395 92.1398C73.0552 94.671 73.4889 95.6095 73.7378 96.2032C74.3942 97.8001 74.8157 99.4837 74.9891 101.202C75.5935 107.174 72.9059 112.012 71.7078 114.167C70.9719 115.493 69.9943 116.904 69.8343 117.135C68.8318 118.579 68.2666 119.386 67.3458 120.26C66.3747 121.158 65.2672 121.896 64.0645 122.447H91.5592C90.356 121.897 89.2483 121.159 88.2779 120.26C87.3465 119.386 86.7812 118.579 85.7894 117.135C85.6294 116.904 84.6518 115.493 83.9159 114.167C82.7178 112.012 80.0302 107.174 80.6346 101.202C80.8095 99.4844 81.2297 97.8011 81.8824 96.2032C82.1348 95.6095 82.5685 94.671 84.2287 92.1398C85.6507 89.9676 86.7172 88.5598 87.5065 87.4542C88.868 85.5771 90.8482 82.8326 92.1956 80.4259C93.6638 77.7738 94.2859 75.5519 95.4733 71.2077C96.4687 67.5637 97.0055 64.869 98.2854 57.9296C98.9253 54.474 99.6612 50.432 100.472 45.9028H55.1484C55.959 50.4462 56.6984 54.4883 57.3383 57.9473Z" fill="#FFC71F"/>
<path d="M76.6556 92.9255C74.4835 93.5654 72.354 92.4562 70.4414 90.7285C70.74 91.1658 71.0564 91.6386 71.3942 92.1505C73.0544 94.6817 73.4881 95.6202 73.7369 96.2139C74.3933 97.8109 74.8148 99.4945 74.9883 101.212C75.0452 101.763 75.0701 102.304 75.0736 102.833C75.2086 102.714 75.3538 102.607 75.5073 102.513C75.7633 102.357 76.325 102.019 76.8618 102.201C77.6759 102.478 77.907 103.776 78.0101 104.387C78.6713 108.369 79.9689 116.172 84.6438 122.457H91.5477C90.3445 121.908 89.2368 121.17 88.2664 120.271C87.335 119.396 86.7697 118.589 85.7779 117.146C85.6179 116.915 84.6403 115.504 83.9044 114.178C82.7063 112.023 80.0187 107.185 80.6231 101.212C80.7979 99.4951 81.2182 97.8119 81.8709 96.2139C82.1233 95.6202 82.557 94.6817 84.2172 92.1505C85.6392 89.9784 86.7057 88.5706 87.495 87.465C88.8565 85.5879 90.8367 82.8434 92.1841 80.4366C93.6523 77.7846 94.2744 75.5627 95.4618 71.2184C96.4572 67.5745 96.994 64.8797 98.2739 57.9403C98.9138 54.4848 99.6497 50.4427 100.46 45.9136H89.724C87.1644 86.0003 79.2757 92.1576 76.6556 92.9255Z" fill="#F7A603"/>
<path d="M55.4755 47.7372H100.127C100.234 47.1399 100.341 46.5332 100.45 45.917H55.1484C55.2598 46.5332 55.3688 47.1399 55.4755 47.7372Z" fill="#F29D06"/>
<path d="M61.5698 54.0685C61.3253 54.439 61.1828 54.8674 61.1567 55.3106C61.1306 55.7538 61.2219 56.196 61.4213 56.5926C61.6207 56.9892 61.9212 57.3262 62.2924 57.5697C62.6636 57.8131 63.0925 57.9543 63.5358 57.979C63.9801 58.0466 65.5266 58.2741 66.4153 57.1934C66.7176 56.8078 66.9029 56.3437 66.9496 55.8561C66.9962 55.3684 66.9021 54.8776 66.6784 54.4418C65.7683 52.8278 62.5937 52.5896 61.5698 54.0685Z" fill="#FCDB3D"/>
<path d="M67.5779 61.1789C67.4926 60.7594 66.3016 60.0555 65.036 60.1124C64.5623 60.1488 64.1033 60.2938 63.6946 60.5361C63.2859 60.7783 62.9384 61.1114 62.679 61.5095C61.8969 62.7609 63.4469 69.3768 64.8547 73.5433C66.9878 79.8216 70.7419 85.8438 71.3889 85.5736C71.9151 85.3568 69.1492 81.4533 68.6657 74.7627C68.2036 68.3636 68.3031 64.7019 67.5779 61.1789Z" fill="#FCDB3D"/>
<path d="M75.3687 109.104C75.0772 109.083 75.0879 110.971 74.1174 113.399C72.5318 117.373 69.8513 118.941 70.4486 119.962C70.8041 120.559 72.0625 120.619 72.9371 120.274C75.1839 119.389 75.4896 115.653 75.6709 113.399C75.8629 111.33 75.6922 109.14 75.3687 109.104Z" fill="#FCDB3D"/>
<path d="M43.2783 49.4545C42.4787 50.2129 41.8874 51.1641 41.5612 52.2168C40.9142 54.0299 40.8502 55.5052 41.2483 57.6845C41.8207 60.9124 43.2072 62.0038 43.4347 61.8474C43.6622 61.691 43.2534 60.7382 42.9654 59.9739C42.6099 58.9892 41.6536 56.5113 41.8207 54.1934C41.874 53.4504 42.0091 51.5164 43.3814 50.2366C44.7003 49.0101 46.556 48.9462 46.5063 48.6226C46.4743 48.4271 45.2158 47.8192 43.2783 49.4545Z" fill="#FCDB3D"/>
<path d="M101.181 44.719H54.4219C54.1598 44.719 53.9084 44.8231 53.7231 45.0085C53.5377 45.1938 53.4336 45.4452 53.4336 45.7073C53.4336 45.9694 53.5377 46.2208 53.7231 46.4061C53.9084 46.5915 54.1598 46.6956 54.4219 46.6956H101.181C101.444 46.6956 101.695 46.5915 101.88 46.4061C102.066 46.2208 102.17 45.9694 102.17 45.7073C102.17 45.4452 102.066 45.1938 101.88 45.0085C101.695 44.8231 101.444 44.719 101.181 44.719Z" fill="#FFC71F"/>
<path d="M71.8401 45.1492H55.4371C55.3968 45.1447 55.3561 45.1488 55.3175 45.1611C55.2789 45.1735 55.2433 45.1938 55.2132 45.2208C55.183 45.2478 55.1588 45.2809 55.1423 45.3179C55.1257 45.3549 55.1172 45.3949 55.1172 45.4354C55.1172 45.4759 55.1257 45.516 55.1423 45.553C55.1588 45.5899 55.183 45.623 55.2132 45.65C55.2433 45.677 55.2789 45.6974 55.3175 45.7097C55.3561 45.722 55.3968 45.7261 55.4371 45.7216H71.8401C71.9105 45.7137 71.9755 45.6802 72.0227 45.6274C72.07 45.5746 72.0961 45.5063 72.0961 45.4354C72.0961 45.3646 72.07 45.2962 72.0227 45.2434C71.9755 45.1906 71.9105 45.1571 71.8401 45.1492Z" fill="#FCDB3D"/>
<path d="M66.1994 121.227C65.5301 121.712 64.8158 122.131 64.0664 122.478H91.5611C90.8117 122.131 90.0974 121.712 89.4281 121.227H66.1994Z" fill="#F7A603"/>
<path d="M91.8214 121.913H63.7792C63.3368 121.933 62.9193 122.123 62.6133 122.443C62.3074 122.763 62.1367 123.189 62.1367 123.632C62.1367 124.075 62.3074 124.501 62.6133 124.821C62.9193 125.141 63.3368 125.331 63.7792 125.351H91.8214C92.2637 125.331 92.6813 125.141 92.9872 124.821C93.2931 124.501 93.4638 124.075 93.4638 123.632C93.4638 123.189 93.2931 122.763 92.9872 122.443C92.6813 122.123 92.2637 121.933 91.8214 121.913Z" fill="#FFC71F"/>
<path d="M91.8234 121.913H84.4609C84.6932 121.903 84.9253 121.939 85.143 122.021C85.3608 122.102 85.5597 122.227 85.7278 122.388C85.896 122.549 86.0298 122.742 86.1212 122.956C86.2126 123.169 86.2598 123.399 86.2598 123.632C86.2598 123.865 86.2126 124.095 86.1212 124.309C86.0298 124.522 85.896 124.715 85.7278 124.876C85.5597 125.037 85.3608 125.162 85.143 125.243C84.9253 125.325 84.6932 125.361 84.4609 125.351H91.8234C92.2658 125.331 92.6834 125.141 92.9893 124.821C93.2952 124.501 93.4659 124.075 93.4659 123.632C93.4659 123.189 93.2952 122.763 92.9893 122.443C92.6834 122.123 92.2658 121.933 91.8234 121.913Z" fill="#FCB70B"/>
<path d="M77.9602 122.461H64.5257C64.4609 122.455 64.3956 122.463 64.334 122.484C64.2724 122.505 64.2158 122.538 64.1678 122.582C64.1199 122.626 64.0816 122.679 64.0554 122.739C64.0292 122.799 64.0156 122.863 64.0156 122.928C64.0156 122.993 64.0292 123.057 64.0554 123.117C64.0816 123.177 64.1199 123.23 64.1678 123.274C64.2158 123.318 64.2724 123.351 64.334 123.372C64.3956 123.393 64.4609 123.401 64.5257 123.395H77.9602C78.025 123.401 78.0903 123.393 78.1519 123.372C78.2135 123.351 78.2701 123.318 78.3181 123.274C78.3661 123.23 78.4044 123.177 78.4306 123.117C78.4568 123.057 78.4703 122.993 78.4703 122.928C78.4703 122.863 78.4568 122.799 78.4306 122.739C78.4044 122.679 78.3661 122.626 78.3181 122.582C78.2701 122.538 78.2135 122.505 78.1519 122.484C78.0903 122.463 78.025 122.455 77.9602 122.461Z" fill="#FCDB3D"/>
<path d="M87.4786 66.7637C86.9453 66.3264 86.3907 65.8785 86.2201 65.3416C86.0494 64.8048 86.2201 64.0725 86.4014 63.3899C86.5827 62.7074 86.7782 61.943 86.4974 61.5555C86.2165 61.168 85.4309 61.1147 84.7199 61.072C84.0089 61.0294 83.2978 60.9938 82.825 60.649C82.3522 60.3041 82.114 59.6393 81.8474 58.9888C81.5808 58.3382 81.2999 57.5668 80.8271 57.421C80.3543 57.2752 79.7606 57.6805 79.1384 58.0716C78.5163 58.4626 77.912 58.8608 77.3111 58.8608C76.7103 58.8608 76.0847 58.4591 75.4803 58.0716C74.8759 57.6841 74.2254 57.2824 73.7952 57.421C73.365 57.5597 73.0415 58.2955 72.7714 58.9888C72.5012 59.682 72.2594 60.3113 71.7973 60.649C71.3351 60.9867 70.5992 61.0329 69.8989 61.072C69.1985 61.1111 68.3951 61.1609 68.1214 61.5555C67.8476 61.9501 68.0289 62.6789 68.2173 63.3899C68.4058 64.1009 68.5728 64.7799 68.3986 65.3381C68.2244 65.8962 67.6699 66.3228 67.1366 66.7601C66.6034 67.1974 65.9492 67.7271 65.9492 68.239C65.9492 68.7509 66.5536 69.2451 67.1366 69.7215C67.7196 70.1978 68.2244 70.6067 68.3986 71.1435C68.5728 71.6803 68.3986 72.4091 68.2138 73.0952C68.0289 73.7813 67.8369 74.5385 68.1214 74.9296C68.4058 75.3207 69.1701 75.3669 69.8989 75.4095C70.6277 75.4522 71.3209 75.4913 71.7973 75.8326C72.2736 76.1739 72.5083 76.8422 72.7714 77.4928C73.0344 78.1434 73.3188 78.9148 73.7952 79.0641C74.2716 79.2134 74.8617 78.8046 75.4803 78.41C76.0989 78.0154 76.7068 77.6243 77.3111 77.6243C77.9155 77.6243 78.5341 78.0225 79.1384 78.41C79.7428 78.7975 80.3969 79.2028 80.8235 79.0641C81.2501 78.9255 81.5772 78.1896 81.8474 77.4928C82.1176 76.796 82.3593 76.1703 82.8215 75.8326C83.2836 75.4949 84.0195 75.4486 84.7199 75.4095C85.4202 75.3704 86.2236 75.3242 86.4974 74.9296C86.7711 74.535 86.5863 73.8062 86.4014 73.0952C86.2165 72.3842 86.0459 71.7052 86.2201 71.1435C86.3943 70.5818 86.9311 70.1587 87.4786 69.7215C88.0652 69.2451 88.6695 68.7509 88.6695 68.239C88.6695 67.7271 88.0652 67.24 87.4786 66.7637Z" fill="#F9C876"/>
<path d="M87.8109 66.3761C87.3345 65.9851 86.8403 65.5834 86.7123 65.1888C86.5844 64.7941 86.7408 64.1222 86.9043 63.5179C87.1176 62.6967 87.3416 61.8435 86.9043 61.264C86.467 60.6845 85.5961 60.6276 84.7393 60.5779C84.1101 60.5423 83.4595 60.5068 83.1075 60.2508C82.7556 59.9948 82.5281 59.3976 82.3041 58.8288C81.9912 58.0253 81.6677 57.1935 80.9709 56.9659C80.856 56.9289 80.7362 56.9097 80.6154 56.9091C80.0466 56.9091 79.4423 57.2966 78.8592 57.6734C78.2762 58.0502 77.7572 58.3844 77.3021 58.3844C76.8471 58.3844 76.2854 58.0289 75.7415 57.6734C75.1975 57.3179 74.5505 56.8806 73.9817 56.8806C73.861 56.8809 73.741 56.9001 73.6262 56.9375C72.9152 57.165 72.6059 58.004 72.2931 58.8003C72.0656 59.3834 71.8345 59.9842 71.4861 60.2224C71.1377 60.4605 70.4836 60.5139 69.8543 60.5494C69.0011 60.5992 68.1159 60.6525 67.6893 61.2355C67.2627 61.8186 67.4902 62.6576 67.7071 63.4894C67.867 64.1045 68.0341 64.7408 67.8955 65.1603C67.7568 65.5798 67.2734 65.9566 66.797 66.3477C66.1251 66.9236 65.4141 67.4924 65.4141 68.2568C65.4141 69.0211 66.1251 69.5757 66.7863 70.1267C67.2627 70.5142 67.7568 70.9159 67.8848 71.3105C68.0128 71.7052 67.8564 72.3771 67.6964 72.985C67.4795 73.8062 67.2591 74.6558 67.6786 75.2353C68.0981 75.8148 68.9904 75.8717 69.8437 75.9214C70.4729 75.957 71.127 75.9961 71.4754 76.2521C71.8238 76.508 72.0549 77.1017 72.2789 77.6741C72.5917 78.4775 72.9152 79.3094 73.6156 79.5369C73.7305 79.5731 73.8505 79.5911 73.9711 79.5902C74.5399 79.5902 75.1442 79.2027 75.7272 78.8295C76.3103 78.4562 76.8293 78.1185 77.2879 78.1185C77.7465 78.1185 78.3047 78.474 78.845 78.8295C79.3854 79.185 80.0324 79.5902 80.6012 79.5902C80.7217 79.5907 80.8416 79.5727 80.9567 79.5369C81.6677 79.3094 81.977 78.4704 82.2899 77.6741C82.5138 77.0875 82.7485 76.4867 83.0933 76.2521C83.4381 76.0174 84.0958 75.957 84.7251 75.9214C85.5818 75.8717 86.4635 75.8219 86.8901 75.2353C87.3167 74.6487 87.0892 73.8133 86.8901 72.985C86.7266 72.37 86.5595 71.7336 86.6981 71.3105C86.8368 70.8875 87.3203 70.5142 87.8002 70.1267C88.4721 69.5757 89.1724 69.0104 89.1724 68.2568C89.1724 67.5031 88.4685 66.9236 87.8109 66.3761ZM87.498 69.725C86.9648 70.1587 86.4102 70.6102 86.2395 71.147C86.0689 71.6838 86.2395 72.4162 86.4208 73.0987C86.6021 73.7813 86.7977 74.5421 86.5168 74.9331C86.236 75.3242 85.4503 75.3704 84.7393 75.4131C84.0283 75.4557 83.3173 75.4948 82.8409 75.8361C82.3645 76.1774 82.1299 76.8458 81.8668 77.4963C81.6037 78.1469 81.3193 78.9183 80.843 79.0677C80.3666 79.217 79.7765 78.8081 79.1579 78.4135C78.5393 78.0189 77.9314 77.6279 77.3306 77.6279C76.7298 77.6279 76.1041 78.026 75.4997 78.4135C74.8954 78.801 74.2448 79.2063 73.8146 79.0677C73.3845 78.929 73.061 78.1931 72.7908 77.4963C72.5206 76.7995 72.2789 76.1739 71.8167 75.8361C71.3545 75.4984 70.6186 75.4522 69.9183 75.4131C69.218 75.374 68.4145 75.3277 68.1408 74.9331C67.867 74.5385 68.0483 73.8097 68.2332 73.0987C68.4181 72.3877 68.5887 71.7087 68.4181 71.147C68.2474 70.5853 67.6893 70.1623 67.156 69.725C66.6228 69.2877 65.9686 68.7545 65.9686 68.2425C65.9686 67.7306 66.573 67.24 67.156 66.7636C67.7391 66.2873 68.2439 65.8784 68.4181 65.3416C68.5923 64.8048 68.4181 64.076 68.2368 63.3935C68.0555 62.7109 67.8564 61.9466 68.1408 61.5591C68.4252 61.1716 69.1895 61.1182 69.9183 61.0756C70.6471 61.0329 71.3403 60.9974 71.8167 60.6525C72.2931 60.3077 72.5277 59.6429 72.7908 58.9923C73.0539 58.3417 73.3383 57.5703 73.8146 57.4245C74.291 57.2788 74.8811 57.6841 75.4997 58.0751C76.1183 58.4662 76.7262 58.8643 77.3306 58.8643C77.9349 58.8643 78.5535 58.4626 79.1579 58.0751C79.7622 57.6876 80.4128 57.2859 80.8465 57.4245C81.2802 57.5632 81.5966 58.2991 81.8668 58.9923C82.137 59.6855 82.3787 60.3183 82.8445 60.6525C83.3102 60.9867 84.0389 61.0365 84.7393 61.0756C85.4396 61.1147 86.2431 61.1644 86.5168 61.5591C86.7906 61.9537 86.6092 62.6825 86.4208 63.3935C86.2324 64.1045 86.0653 64.7835 86.2395 65.3452C86.4137 65.9069 86.9505 66.3264 87.498 66.7672C88.0846 67.2436 88.6889 67.7342 88.6889 68.2461C88.6889 68.758 88.0668 69.2486 87.4802 69.725H87.498Z" fill="#A6623E"/>
<path d="M85.7644 68.2567C85.7644 69.9317 85.2676 71.5691 84.337 72.9617C83.4063 74.3544 82.0836 75.4397 80.536 76.0806C78.9885 76.7214 77.2856 76.8889 75.6429 76.5618C74.0001 76.2348 72.4913 75.4279 71.3071 74.2433C70.123 73.0587 69.3168 71.5495 68.9904 69.9066C68.6641 68.2637 68.8323 66.5609 69.4737 65.0136C70.1152 63.4663 71.2012 62.144 72.5942 61.214C73.9872 60.2839 75.6248 59.7879 77.2998 59.7886C78.4117 59.7886 79.5127 60.0076 80.5399 60.4332C81.5671 60.8588 82.5004 61.4827 83.2864 62.269C84.0725 63.0554 84.6959 63.989 85.1211 65.0164C85.5462 66.0437 85.7648 67.1448 85.7644 68.2567Z" fill="#FDE3A3"/>
<path d="M80.0136 62.1564C81.4364 62.1557 82.8365 62.5139 84.0841 63.198C83.3301 62.1818 82.3578 61.3477 81.2388 60.757C80.1198 60.1663 78.8826 59.8342 77.6182 59.785C76.3538 59.7358 75.0945 59.9708 73.933 60.4727C72.7714 60.9746 71.7373 61.7306 70.9066 62.6851C70.0759 63.6396 69.4699 64.7683 69.1332 65.988C68.7965 67.2077 68.7376 68.4874 68.9609 69.7329C69.1843 70.9783 69.6841 72.1579 70.4236 73.1846C71.1631 74.2113 72.1235 75.0591 73.2341 75.6656C72.2956 74.4077 71.7258 72.9134 71.5885 71.35C71.4512 69.7866 71.7517 68.2159 72.4565 66.8137C73.1613 65.4115 74.2425 64.2331 75.5791 63.4105C76.9157 62.588 78.4548 62.1537 80.0242 62.1564H80.0136Z" fill="#FDE9B5"/>
<path d="M78.4212 72.004C78.4233 72.2475 78.4703 72.4886 78.5599 72.715C78.6268 72.8809 78.7537 73.0154 78.9154 73.0919C79.1219 73.1792 79.3457 73.2181 79.5695 73.2056H79.7117V73.8491H75.4777V73.2056C75.7281 73.2172 75.9783 73.1785 76.2136 73.0919C76.3845 73.0192 76.5217 72.8846 76.5975 72.715C76.6903 72.4894 76.7386 72.248 76.7397 72.004C76.7397 71.7125 76.761 71.3499 76.761 70.9126V66.0635C76.761 65.6251 76.7539 65.2625 76.7397 64.9757C76.7382 64.7324 76.6924 64.4915 76.6046 64.2647C76.5377 64.0988 76.4108 63.9643 76.2491 63.8878C76.0426 63.8005 75.8188 63.7616 75.595 63.7741H75.4492V63.1306H78.3857V70.9019C78.3999 71.3499 78.407 71.7125 78.4212 72.004Z" fill="#F88B54"/>
<path d="M53.3257 124.914L51.0469 127.91C51.0469 127.91 57.5313 138.86 57.837 139.55V147.815H66.6677L65.228 140.652C65.228 140.652 67.361 133.567 63.9446 131.274C59.4403 128.252 53.3257 124.914 53.3257 124.914Z" fill="#FFCC90"/>
<path d="M68.7063 148.672H56.4414V143.215L68.3508 143.553L68.7063 148.672Z" fill="white"/>
<path d="M55.5951 126.801C55.1151 127.381 54.173 127.392 53.494 126.823C52.815 126.258 53.3234 124.914 53.3234 124.914L57.7885 119.179C58.272 118.603 59.2105 118.593 59.8896 119.158C60.5686 119.723 60.7285 120.651 60.2451 121.231L55.5951 126.801Z" fill="#FFCC90"/>
<path d="M59.4713 121.803C58.7603 122.073 57.9391 121.625 57.6227 120.8C57.3063 119.975 57.6227 119.087 58.3337 118.816L65.0883 116.207C65.7993 115.937 66.6169 116.385 66.9369 117.21C67.2533 118.034 66.9369 118.92 66.2259 119.193L59.4713 121.803Z" fill="#FFCC90"/>
<path d="M60.9559 120.132L68.4642 117.288C68.7213 117.188 68.9436 117.015 69.1041 116.79C69.1041 116.79 60.3409 119.688 60.188 119.883C58.8905 121.54 55.1719 126.574 55.1719 126.574C55.4314 126.495 55.6641 126.347 55.8438 126.144L60.9559 120.132Z" fill="#F6B968"/>
<path d="M57.9484 128.867C57.4045 129.521 56.3415 129.532 55.5736 128.892C54.8057 128.248 54.6244 127.2 55.1719 126.549L60.4369 120.246C60.9844 119.592 62.0474 119.581 62.8153 120.221C63.5796 120.861 63.7609 121.91 63.2134 122.564L57.9484 128.867Z" fill="#FFCC90"/>
<path d="M62.3338 123.211C61.5375 123.517 60.6025 123.008 60.2435 122.077C59.888 121.145 60.2435 120.139 61.0327 119.834L68.6903 116.883C69.4866 116.577 70.4216 117.082 70.7806 118.013C71.1361 118.948 70.7806 119.951 69.9914 120.257L62.3338 123.211Z" fill="#FFCC90"/>
<path d="M62.8603 123.005L70.0344 120.253C70.2122 120.181 70.3733 120.074 70.5072 119.937L62.743 122.425C62.7308 122.43 62.7189 122.436 62.7075 122.443C62.4885 122.522 62.2939 122.657 62.1422 122.834L58.125 128.145C58.445 128.085 58.2956 128.309 58.5054 128.053L62.8603 123.005Z" fill="#F6B968"/>
<path d="M60.7462 130.114C60.2343 130.651 59.3028 130.598 58.67 129.997C58.0372 129.393 57.9413 128.465 58.4567 127.928L63.416 122.727C63.9315 122.19 64.8629 122.244 65.4922 122.844C66.125 123.449 66.221 124.377 65.709 124.917L60.7462 130.114Z" fill="#FFCC90"/>
<path d="M64.9911 125.337C64.2801 125.529 63.5051 124.981 63.2847 124.149C63.0607 123.303 63.4624 122.464 64.1841 122.272L71.1307 120.441C71.8417 120.249 72.6167 120.797 72.8406 121.629C73.061 122.475 72.6593 123.314 71.9376 123.502L64.9911 125.337Z" fill="#FFCC90"/>
<path d="M65.3917 125.23L71.9365 123.502C72.1676 123.445 71.5028 123.502 71.2255 123.502C69.9386 123.538 65.1606 124.875 65.0184 125.003L60.8945 129.525C60.8945 129.525 61.0936 129.72 61.25 129.578L65.3917 125.23Z" fill="#F6B968"/>
<path d="M62.9254 132.248C62.6571 132.463 62.3151 132.563 61.9731 132.528C61.6312 132.493 61.3168 132.324 61.0981 132.059C60.8431 131.828 60.6893 131.505 60.67 131.161C60.6507 130.818 60.7675 130.48 60.995 130.221L65.5881 125.849C65.8565 125.633 66.199 125.532 66.5413 125.568C66.8835 125.604 67.1977 125.774 67.4154 126.041C67.6702 126.271 67.8239 126.593 67.8432 126.937C67.8625 127.28 67.7458 127.617 67.5185 127.875L62.9254 132.248Z" fill="#FFCC90"/>
<path d="M66.7848 128.287C66.1484 128.454 65.4765 127.982 65.281 127.221C65.1697 126.895 65.1917 126.538 65.3422 126.229C65.4927 125.919 65.7595 125.682 66.0844 125.568L72.2311 123.975C72.5719 123.917 72.9217 123.997 73.2036 124.197C73.4855 124.397 73.6766 124.701 73.7349 125.042C73.8452 125.367 73.8227 125.724 73.6724 126.033C73.522 126.342 73.2558 126.58 72.9314 126.695L66.7848 128.287Z" fill="#FFCC90"/>
<path d="M65.4128 116.3C65.5154 116.401 65.5964 116.522 65.651 116.656C65.7047 116.786 65.7313 116.927 65.7292 117.068C65.2244 117.278 64.4672 117.594 64.1152 117.569C64.059 117.572 64.0032 117.557 63.9559 117.527C63.9087 117.496 63.8723 117.451 63.8521 117.399C63.8309 117.346 63.8264 117.288 63.8391 117.233C63.8518 117.177 63.8812 117.127 63.9232 117.089C64.1472 116.816 64.9116 116.51 65.4128 116.3Z" fill="#FFE0BC"/>
<path d="M69.1408 117.011C69.2662 117.148 69.3672 117.306 69.4394 117.477C69.5084 117.649 69.548 117.832 69.5567 118.017C68.9844 118.255 68.1347 118.614 67.7223 118.554C67.6513 118.551 67.5828 118.526 67.5258 118.484C67.4688 118.441 67.4258 118.383 67.4024 118.316C67.374 118.251 67.3647 118.179 67.3754 118.11C67.3861 118.04 67.4164 117.974 67.4628 117.921C67.7117 117.594 68.572 117.246 69.1408 117.011Z" fill="#FFE0BC"/>
<path d="M71.372 120.434C71.5096 120.642 71.6195 120.866 71.699 121.102C71.7782 121.339 71.8272 121.586 71.8448 121.835C71.2547 122.03 70.3837 122.336 69.9535 122.19C69.8682 122.162 69.7911 122.113 69.7291 122.048C69.6671 121.983 69.6221 121.904 69.598 121.817C69.5656 121.735 69.5529 121.647 69.5609 121.559C69.569 121.471 69.5975 121.387 69.6442 121.312C69.9037 120.918 70.7854 120.633 71.372 120.434Z" fill="#FFE0BC"/>
<path d="M72.7 124.153C72.8248 124.361 72.9216 124.585 72.9879 124.818C73.0537 125.049 73.0884 125.288 73.091 125.529C72.4938 125.7 71.6086 125.959 71.1891 125.792C71.1088 125.76 71.0376 125.71 70.9817 125.644C70.9259 125.578 70.8872 125.499 70.8691 125.415C70.8409 125.333 70.8329 125.246 70.8459 125.161C70.8589 125.075 70.8925 124.994 70.9438 124.925C71.2104 124.569 72.1063 124.324 72.7 124.153Z" fill="#FFE0BC"/>
<path d="M58.782 120.189C58.7999 120.159 58.8061 120.123 58.7996 120.088C58.793 120.053 58.7742 120.022 58.7464 120.001L58.0354 119.322C58.0142 119.294 57.9832 119.275 57.9487 119.27C57.9143 119.265 57.8791 119.273 57.8506 119.293C57.8311 119.323 57.8239 119.359 57.8305 119.394C57.8372 119.43 57.8571 119.461 57.8861 119.481L58.5971 120.161C58.6188 120.187 58.6498 120.205 58.684 120.211C58.7183 120.216 58.7532 120.208 58.782 120.189Z" fill="#FFE0BC"/>
<path d="M59.0996 119.858C59.1172 119.829 59.1233 119.793 59.1168 119.759C59.1102 119.725 59.0915 119.695 59.064 119.674L58.353 118.995C58.3318 118.967 58.3007 118.949 58.2663 118.943C58.2318 118.938 58.1967 118.946 58.1681 118.966C58.1483 118.996 58.1405 119.032 58.1465 119.067C58.1524 119.102 58.1717 119.133 58.2001 119.155L58.9111 119.834C58.9335 119.861 58.9654 119.879 59.0004 119.883C59.0354 119.888 59.0709 119.879 59.0996 119.858Z" fill="#FFE0BC"/>
<path d="M61.0815 121.717C61.1038 121.693 61.1161 121.662 61.1161 121.629C61.1161 121.596 61.1038 121.564 61.0815 121.54L60.5411 120.846C60.5242 120.818 60.4967 120.798 60.4647 120.79C60.4327 120.782 60.3988 120.787 60.3705 120.804C60.3483 120.828 60.3359 120.86 60.3359 120.893C60.3359 120.926 60.3483 120.957 60.3705 120.982L60.9073 121.675C60.9249 121.702 60.9524 121.722 60.9841 121.73C61.0159 121.738 61.0495 121.734 61.078 121.717H61.0815Z" fill="#FFE0BC"/>
<path d="M61.4412 121.437C61.4643 121.413 61.4771 121.381 61.4771 121.348C61.4771 121.315 61.4643 121.283 61.4412 121.259L60.9044 120.566C60.8868 120.538 60.8593 120.518 60.8276 120.51C60.7959 120.502 60.7623 120.507 60.7338 120.523C60.7116 120.547 60.6992 120.579 60.6992 120.612C60.6992 120.645 60.7116 120.677 60.7338 120.701L61.2742 121.412C61.2918 121.439 61.3193 121.459 61.351 121.467C61.3827 121.475 61.4163 121.471 61.4448 121.454L61.4412 121.437Z" fill="#FFE0BC"/>
<path d="M66.1747 120.022C66.1978 119.998 66.2106 119.966 66.2106 119.933C66.2106 119.9 66.1978 119.868 66.1747 119.844L65.6913 119.112C65.6754 119.083 65.6493 119.062 65.6183 119.052C65.5872 119.042 65.5536 119.045 65.5242 119.059C65.5012 119.083 65.4883 119.114 65.4883 119.148C65.4883 119.181 65.5012 119.213 65.5242 119.236L66.0077 119.969C66.0241 119.997 66.0502 120.017 66.081 120.027C66.1118 120.037 66.1452 120.035 66.1747 120.022Z" fill="#FFD6A6"/>
<path d="M66.5494 119.769C66.5724 119.745 66.5853 119.714 66.5853 119.68C66.5853 119.647 66.5724 119.615 66.5494 119.592L66.0659 118.859C66.0508 118.83 66.0247 118.808 65.9934 118.798C65.9621 118.788 65.9281 118.791 65.8989 118.806C65.8761 118.829 65.8633 118.86 65.8633 118.893C65.8633 118.926 65.8761 118.957 65.8989 118.98L66.3823 119.712C66.3976 119.742 66.4234 119.764 66.4545 119.774C66.4856 119.785 66.5196 119.783 66.5494 119.769Z" fill="#FFD6A6"/>
<path d="M68.5755 122.848C68.6012 122.828 68.6181 122.798 68.6227 122.766C68.6273 122.733 68.6193 122.7 68.6004 122.674L68.1667 121.913C68.1534 121.883 68.129 121.859 68.0985 121.846C68.068 121.834 68.0339 121.833 68.0032 121.845C67.9765 121.866 67.959 121.896 67.9544 121.929C67.9497 121.962 67.9583 121.996 67.9783 122.023L68.412 122.784C68.4253 122.814 68.4499 122.838 68.4806 122.85C68.5112 122.862 68.5454 122.861 68.5755 122.848Z" fill="#FFD6A6"/>
<path d="M68.9685 122.621C68.9947 122.601 69.0123 122.572 69.0176 122.539C69.0229 122.507 69.0155 122.474 68.997 122.446L68.5633 121.686C68.55 121.656 68.5254 121.632 68.4947 121.62C68.4641 121.608 68.4299 121.609 68.3997 121.622C68.3864 121.631 68.3751 121.643 68.3664 121.657C68.3577 121.671 68.3519 121.687 68.3493 121.703C68.3466 121.719 68.3472 121.736 68.351 121.752C68.3548 121.768 68.3617 121.783 68.3713 121.796L68.805 122.557C68.8183 122.587 68.8429 122.61 68.8736 122.622C68.9042 122.634 68.9384 122.634 68.9685 122.621Z" fill="#FFD6A6"/>
<path d="M69.8477 126.161C69.8743 126.142 69.8927 126.113 69.8993 126.081C69.9059 126.049 69.9002 126.015 69.8832 125.987L69.4851 125.205C69.4718 125.176 69.4479 125.152 69.4183 125.14C69.3886 125.127 69.3554 125.127 69.3251 125.137C69.2977 125.156 69.2787 125.185 69.2721 125.217C69.2655 125.25 69.2717 125.284 69.2895 125.312L69.6877 126.094C69.7004 126.124 69.7237 126.148 69.7533 126.162C69.7829 126.176 69.8165 126.178 69.8477 126.168V126.161Z" fill="#FFD6A6"/>
<path d="M70.2514 125.951C70.278 125.932 70.2964 125.904 70.303 125.871C70.3096 125.839 70.3039 125.806 70.2869 125.777L69.8887 124.995C69.8768 124.965 69.8533 124.94 69.8234 124.927C69.7934 124.913 69.7594 124.912 69.7288 124.924C69.7149 124.933 69.7029 124.945 69.6936 124.958C69.6842 124.972 69.6777 124.987 69.6744 125.004C69.6711 125.02 69.671 125.037 69.6743 125.053C69.6775 125.069 69.6839 125.085 69.6932 125.098L70.0914 125.877C70.0969 125.892 70.1055 125.906 70.1166 125.919C70.1276 125.931 70.141 125.941 70.1558 125.947C70.1707 125.954 70.1868 125.958 70.2032 125.959C70.2196 125.96 70.236 125.957 70.2514 125.951Z" fill="#FFD6A6"/>
<path d="M62.5226 118.276C62.545 118.261 62.5608 118.238 62.5667 118.211C62.5726 118.185 62.5683 118.157 62.5546 118.134L62.1991 117.636C62.1798 117.617 62.1536 117.606 62.1262 117.606C62.0989 117.606 62.0727 117.617 62.0534 117.636C62.0316 117.652 62.0164 117.675 62.0105 117.701C62.0046 117.727 62.0085 117.755 62.0214 117.778L62.3769 118.276C62.3966 118.295 62.4227 118.305 62.4497 118.305C62.4768 118.305 62.5029 118.295 62.5226 118.276Z" fill="#FFD6A6"/>
<path d="M62.89 118.006C62.9129 117.991 62.9294 117.968 62.936 117.942C62.9427 117.916 62.9389 117.888 62.9255 117.864L62.57 117.366C62.5507 117.347 62.5245 117.336 62.4971 117.336C62.4698 117.336 62.4436 117.347 62.4243 117.366C62.4013 117.381 62.3848 117.404 62.3782 117.43C62.3716 117.457 62.3753 117.485 62.3887 117.508L62.7442 118.002C62.7535 118.012 62.7645 118.019 62.7768 118.025C62.789 118.03 62.8021 118.032 62.8153 118.032C62.8286 118.032 62.8417 118.03 62.8539 118.025C62.8661 118.019 62.8771 118.012 62.8864 118.002L62.89 118.006Z" fill="#FFD6A6"/>
<path d="M57.1157 127.982C57.1295 127.952 57.132 127.918 57.1229 127.887C57.1137 127.855 57.0935 127.828 57.0659 127.811L56.3549 127.313C56.3317 127.29 56.3004 127.278 56.2678 127.278C56.2353 127.278 56.204 127.29 56.1807 127.313C56.1665 127.343 56.1641 127.377 56.174 127.409C56.1838 127.441 56.2053 127.467 56.2341 127.484L56.9451 127.982C56.9683 128.004 56.9996 128.017 57.0322 128.017C57.0647 128.017 57.096 128.004 57.1193 127.982H57.1157Z" fill="#FFD6A6"/>
<path d="M57.369 127.626C57.3843 127.597 57.3876 127.564 57.3783 127.532C57.369 127.501 57.3478 127.475 57.3192 127.459L56.6082 126.961C56.5967 126.95 56.5828 126.94 56.5676 126.934C56.5523 126.927 56.5359 126.924 56.5194 126.924C56.5028 126.924 56.4864 126.927 56.4712 126.934C56.4559 126.94 56.4421 126.95 56.4305 126.961C56.4164 126.991 56.4141 127.024 56.424 127.056C56.4339 127.087 56.4553 127.113 56.4838 127.129L57.1948 127.63C57.2061 127.641 57.2196 127.651 57.2346 127.657C57.2496 127.664 57.2657 127.667 57.2819 127.667C57.2982 127.667 57.3143 127.664 57.3292 127.657C57.3442 127.651 57.3577 127.641 57.369 127.63V127.626Z" fill="#FFD6A6"/>
<path d="M59.8643 129.535C59.8767 129.504 59.8769 129.47 59.8651 129.439C59.8532 129.408 59.8301 129.383 59.8003 129.368L59.0431 128.924C59.0167 128.904 58.9835 128.896 58.9508 128.9C58.9181 128.905 58.8887 128.922 58.8689 128.949C58.8565 128.979 58.8562 129.014 58.8681 129.045C58.8799 129.076 58.9031 129.101 58.9329 129.116L59.6901 129.56C59.7171 129.578 59.7498 129.586 59.782 129.581C59.8141 129.577 59.8434 129.56 59.8643 129.535Z" fill="#FFD6A6"/>
<path d="M60.0828 129.141C60.0944 129.11 60.0942 129.076 60.0824 129.045C60.0707 129.014 60.048 128.989 60.0188 128.974L59.2616 128.533C59.2352 128.513 59.202 128.505 59.1693 128.509C59.1367 128.514 59.1072 128.531 59.0874 128.558C59.0752 128.588 59.075 128.622 59.0869 128.652C59.0988 128.683 59.1219 128.707 59.1514 128.721L59.9086 129.166C59.935 129.186 59.9682 129.194 60.0009 129.189C60.0335 129.185 60.063 129.167 60.0828 129.141Z" fill="#FFD6A6"/>
<path d="M62.8803 131.028C62.8905 131.006 62.8918 130.98 62.8839 130.956C62.876 130.932 62.8595 130.912 62.8376 130.9L62.2617 130.545C62.2437 130.527 62.2194 130.517 62.1941 130.517C62.1688 130.517 62.1446 130.527 62.1266 130.545C62.1155 130.568 62.1142 130.595 62.1228 130.62C62.1315 130.645 62.1494 130.665 62.1728 130.676L62.7452 131.032C62.7631 131.05 62.7874 131.06 62.8127 131.06C62.838 131.06 62.8623 131.05 62.8803 131.032V131.028Z" fill="#FFD6A6"/>
<path d="M63.0713 130.73C63.0813 130.707 63.0821 130.681 63.0735 130.657C63.0649 130.633 63.0476 130.613 63.0251 130.602L62.4527 130.246C62.4342 130.228 62.4093 130.218 62.3834 130.218C62.3575 130.218 62.3327 130.228 62.3141 130.246C62.303 130.27 62.3017 130.297 62.3103 130.322C62.319 130.346 62.3369 130.366 62.3603 130.378L62.9327 130.733C62.9516 130.751 62.9763 130.76 63.002 130.76C63.0276 130.76 63.0523 130.751 63.0713 130.733V130.73Z" fill="#FFD6A6"/>
<path d="M53.9996 126.115C54.0189 126.096 54.0298 126.07 54.0298 126.042C54.0298 126.015 54.0189 125.989 53.9996 125.969L53.5161 125.614C53.493 125.599 53.4651 125.594 53.4384 125.6C53.4117 125.606 53.3885 125.623 53.3739 125.646C53.3546 125.665 53.3438 125.691 53.3438 125.719C53.3438 125.746 53.3546 125.772 53.3739 125.792L53.8574 126.147C53.8808 126.161 53.9084 126.165 53.9348 126.159C53.9612 126.153 53.9844 126.138 53.9996 126.115Z" fill="#FFD6A6"/>
<path d="M54.2731 125.749C54.2924 125.73 54.3032 125.703 54.3032 125.676C54.3032 125.649 54.2924 125.623 54.2731 125.603L53.7896 125.248C53.7785 125.24 53.7659 125.234 53.7526 125.231C53.7394 125.229 53.7256 125.229 53.7123 125.231C53.699 125.234 53.6864 125.239 53.6752 125.247C53.664 125.255 53.6545 125.265 53.6474 125.276C53.628 125.295 53.6172 125.322 53.6172 125.349C53.6172 125.376 53.628 125.403 53.6474 125.422L54.1344 125.777C54.1456 125.785 54.158 125.789 54.1711 125.792C54.1842 125.794 54.1975 125.794 54.2105 125.791C54.2234 125.788 54.2356 125.782 54.2463 125.774C54.2571 125.767 54.2661 125.757 54.2731 125.745V125.749Z" fill="#FFD6A6"/>
<path d="M64.26 123.808C64.283 123.784 64.2959 123.752 64.2959 123.719C64.2959 123.686 64.283 123.654 64.26 123.63L63.7694 122.919C63.7542 122.89 63.7281 122.868 63.6968 122.858C63.6655 122.848 63.6315 122.851 63.6023 122.866C63.5793 122.89 63.5664 122.922 63.5664 122.955C63.5664 122.988 63.5793 123.02 63.6023 123.044L64.0929 123.755C64.1081 123.784 64.1341 123.806 64.1654 123.816C64.1967 123.826 64.2307 123.823 64.26 123.808Z" fill="#FFE0BC"/>
<path d="M64.6346 123.552C64.6569 123.528 64.6692 123.496 64.6692 123.463C64.6692 123.43 64.6569 123.399 64.6346 123.374L64.144 122.663C64.1282 122.634 64.1015 122.612 64.0696 122.602C64.0377 122.592 64.0032 122.595 63.9734 122.61C63.9504 122.634 63.9375 122.666 63.9375 122.699C63.9375 122.732 63.9504 122.764 63.9734 122.788L64.4675 123.499C64.4827 123.528 64.5088 123.55 64.5401 123.56C64.5714 123.57 64.6054 123.567 64.6346 123.552Z" fill="#FFE0BC"/>
<path d="M66.3579 127.192C66.3711 127.182 66.3822 127.17 66.3905 127.156C66.3988 127.142 66.404 127.126 66.406 127.11C66.408 127.093 66.4067 127.077 66.4021 127.061C66.3975 127.045 66.3897 127.031 66.3792 127.018L65.9242 126.268C65.911 126.24 65.8875 126.217 65.8585 126.205C65.8295 126.193 65.7971 126.193 65.7678 126.204C65.7546 126.214 65.7435 126.226 65.7352 126.24C65.7269 126.254 65.7216 126.27 65.7196 126.286C65.7176 126.303 65.719 126.319 65.7236 126.335C65.7282 126.351 65.736 126.365 65.7464 126.378L66.2015 127.128C66.2154 127.158 66.2403 127.181 66.2709 127.192C66.3015 127.203 66.3353 127.202 66.365 127.189L66.3579 127.192Z" fill="#FFE0BC"/>
<path d="M66.7478 126.954C66.7729 126.933 66.7891 126.903 66.7931 126.871C66.797 126.839 66.7885 126.806 66.7692 126.78L66.3141 126.03C66.3002 126 66.2753 125.977 66.2447 125.966C66.2141 125.955 66.1803 125.956 66.1506 125.969C66.1374 125.979 66.1263 125.991 66.118 126.005C66.1098 126.02 66.1045 126.035 66.1025 126.052C66.1005 126.068 66.1018 126.085 66.1064 126.1C66.111 126.116 66.1188 126.131 66.1293 126.143L66.5843 126.893C66.5982 126.923 66.6231 126.946 66.6537 126.957C66.6843 126.968 66.7181 126.967 66.7478 126.954Z" fill="#FFE0BC"/>
<path d="M100.963 124.914L103.242 127.91C103.242 127.91 96.754 138.86 96.4483 139.55V147.815H87.6211L89.0431 140.652C89.0431 140.652 86.9101 133.567 90.3229 131.274C94.8485 128.252 100.963 124.914 100.963 124.914Z" fill="#FFCC90"/>
<path d="M85.582 148.672H97.8505V143.215L85.582 143.702V148.672Z" fill="white"/>
<path d="M98.6912 126.801C99.1711 127.381 100.113 127.392 100.792 126.823C101.471 126.258 100.963 124.914 100.963 124.914L96.4977 119.179C96.0142 118.603 95.0757 118.593 94.3967 119.158C93.7177 119.723 93.5577 120.651 94.0412 121.231L98.6912 126.801Z" fill="#FFCC90"/>
<path d="M94.8153 121.803C95.5263 122.073 96.3439 121.625 96.6639 120.8C96.9803 119.975 96.6639 119.087 95.9529 118.816L89.1805 116.207C88.4695 115.937 87.6518 116.385 87.3355 117.21C87.0155 118.034 87.3354 118.92 88.0287 119.193L94.8153 121.803Z" fill="#FFCC90"/>
<path d="M93.3357 120.132L85.8274 117.288C85.5703 117.188 85.348 117.015 85.1875 116.79C85.1875 116.79 93.9507 119.688 94.1036 119.883C95.4012 121.54 99.1197 126.574 99.1197 126.574C98.8593 126.497 98.6262 126.348 98.4478 126.144L93.3357 120.132Z" fill="#F6B968"/>
<path d="M96.3413 128.867C96.8888 129.521 97.9517 129.532 98.7196 128.892C99.4875 128.248 99.6688 127.2 99.1213 126.549L93.8528 120.246C93.3053 119.592 92.2423 119.581 91.4744 120.221C90.7065 120.861 90.5288 121.91 91.0727 122.564L96.3413 128.867Z" fill="#FFCC90"/>
<path d="M91.9559 123.211C92.7522 123.517 93.6872 123.008 94.0463 122.077C94.4018 121.145 94.0463 120.139 93.257 119.834L85.5995 116.883C84.8031 116.577 83.8682 117.082 83.5091 118.013C83.1536 118.948 83.5091 119.951 84.2983 120.257L91.9559 123.211Z" fill="#FFCC90"/>
<path d="M91.4282 123.005L84.2541 120.253C84.0762 120.181 83.9152 120.074 83.7812 119.937L91.5455 122.425L91.581 122.443C91.7999 122.522 91.9946 122.657 92.1463 122.834L96.1528 128.149C95.8329 128.088 95.9822 128.312 95.7724 128.056L91.4282 123.005Z" fill="#F6B968"/>
<path d="M93.5403 130.114C94.0558 130.651 94.9872 130.598 95.62 129.997C96.2528 129.393 96.331 128.465 95.8333 127.928L90.874 122.727C90.3585 122.19 89.4271 122.244 88.7943 122.844C88.1651 123.449 88.0833 124.377 88.581 124.917L93.5403 130.114Z" fill="#FFCC90"/>
<path d="M89.2979 125.337C90.009 125.529 90.7804 124.981 91.0044 124.149C91.2283 123.303 90.8231 122.464 90.1049 122.272L83.1584 120.441C82.4474 120.249 81.6724 120.797 81.4484 121.629C81.2244 122.475 81.6297 123.314 82.3514 123.502L89.2979 125.337Z" fill="#FFCC90"/>
<path d="M88.8976 125.23L82.3528 123.502C82.1217 123.445 82.783 123.502 83.0638 123.502C84.3543 123.538 89.1287 124.875 89.2745 125.003L93.3948 129.525C93.3948 129.525 93.1992 129.72 93.0393 129.578L88.8976 125.23Z" fill="#F6B968"/>
<path d="M91.3653 132.248C91.6336 132.463 91.9756 132.564 92.3176 132.528C92.6595 132.493 92.9739 132.325 93.1926 132.06C93.4476 131.828 93.6014 131.506 93.6207 131.162C93.64 130.818 93.5232 130.48 93.2957 130.222L88.7026 125.849C88.4337 125.633 88.0905 125.532 87.7477 125.568C87.4049 125.604 87.0901 125.774 86.8717 126.041C86.6183 126.273 86.4659 126.595 86.4472 126.938C86.4286 127.281 86.5453 127.617 86.7722 127.875L91.3653 132.248Z" fill="#FFCC90"/>
<path d="M87.5045 128.287C88.1409 128.454 88.8128 127.982 89.0083 127.221C89.1196 126.895 89.0976 126.538 88.9471 126.229C88.7966 125.919 88.5298 125.682 88.2049 125.568L82.0582 123.975C81.7174 123.917 81.3676 123.997 81.0857 124.197C80.8037 124.397 80.6127 124.701 80.5544 125.042C80.4431 125.367 80.4651 125.724 80.6156 126.034C80.7661 126.343 81.0329 126.581 81.3579 126.695L87.5045 128.287Z" fill="#FFCC90"/>
<path d="M88.8751 116.3C88.7725 116.401 88.6915 116.522 88.6369 116.656C88.5832 116.786 88.5566 116.927 88.5587 117.068C89.0635 117.278 89.8172 117.594 90.1692 117.569C90.2259 117.572 90.2822 117.558 90.3301 117.527C90.3779 117.496 90.4149 117.451 90.4358 117.399C90.456 117.346 90.46 117.288 90.4474 117.233C90.4347 117.178 90.4059 117.128 90.3647 117.089C90.1372 116.816 89.3799 116.51 88.8751 116.3Z" fill="#FFE0BC"/>
<path d="M85.1468 117.011C85.0218 117.148 84.9219 117.305 84.8517 117.477C84.7807 117.648 84.741 117.831 84.7344 118.017C85.3067 118.255 86.1564 118.614 86.5688 118.554C86.6398 118.551 86.7083 118.526 86.7653 118.484C86.8223 118.441 86.8653 118.383 86.8887 118.316C86.917 118.251 86.9264 118.179 86.9157 118.11C86.905 118.04 86.8747 117.974 86.8283 117.921C86.5794 117.594 85.7191 117.246 85.1468 117.011Z" fill="#FFE0BC"/>
<path d="M82.9181 120.434C82.7805 120.642 82.6706 120.866 82.5911 121.102C82.5119 121.339 82.463 121.586 82.4453 121.835C83.0355 122.03 83.9064 122.336 84.3366 122.19C84.4226 122.163 84.5003 122.115 84.5624 122.049C84.6246 121.984 84.6692 121.904 84.6921 121.817C84.7248 121.735 84.7374 121.646 84.7288 121.559C84.7201 121.471 84.6905 121.386 84.6423 121.312C84.3864 120.918 83.5047 120.633 82.9181 120.434Z" fill="#FFE0BC"/>
<path d="M81.5864 124.153C81.4615 124.361 81.3647 124.585 81.2984 124.818C81.2326 125.049 81.198 125.288 81.1953 125.529C81.7926 125.7 82.6778 125.959 83.0973 125.792C83.1776 125.76 83.2488 125.71 83.3046 125.644C83.3604 125.578 83.3991 125.499 83.4172 125.415C83.4455 125.333 83.4534 125.246 83.4404 125.161C83.4274 125.075 83.3938 124.994 83.3426 124.925C83.0759 124.569 82.1801 124.324 81.5864 124.153Z" fill="#FFE0BC"/>
<path d="M95.5068 120.189C95.4873 120.159 95.4802 120.123 95.4868 120.088C95.4934 120.052 95.5133 120.021 95.5424 120.001L96.2534 119.322C96.2746 119.294 96.3056 119.275 96.3401 119.27C96.3745 119.265 96.4097 119.273 96.4382 119.293C96.4809 119.339 96.4631 119.421 96.4027 119.481L95.6917 120.161C95.6277 120.217 95.5459 120.232 95.5033 120.189H95.5068Z" fill="#FFE0BC"/>
<path d="M95.1877 119.858C95.1701 119.829 95.164 119.793 95.1705 119.759C95.1771 119.725 95.1958 119.695 95.2233 119.674L95.9343 118.995C95.9555 118.967 95.9865 118.949 96.021 118.943C96.0554 118.938 96.0906 118.946 96.1191 118.966C96.139 118.996 96.1468 119.032 96.1408 119.067C96.1348 119.102 96.1156 119.133 96.0871 119.155L95.3761 119.834C95.3121 119.89 95.2304 119.905 95.1877 119.858Z" fill="#FFE0BC"/>
<path d="M93.2025 121.718C93.1803 121.693 93.168 121.662 93.168 121.629C93.168 121.596 93.1803 121.564 93.2025 121.54L93.7429 120.847C93.751 120.833 93.7617 120.821 93.7745 120.811C93.7873 120.801 93.802 120.794 93.8175 120.79C93.8331 120.786 93.8492 120.786 93.8651 120.788C93.881 120.79 93.8963 120.796 93.91 120.804C93.933 120.828 93.9459 120.86 93.9459 120.893C93.9459 120.926 93.933 120.958 93.91 120.982L93.3696 121.675C93.352 121.703 93.3245 121.722 93.2928 121.73C93.2611 121.738 93.2275 121.734 93.199 121.718H93.2025Z" fill="#FFE0BC"/>
<path d="M92.8459 121.437C92.8341 121.425 92.8247 121.411 92.8183 121.396C92.8119 121.381 92.8086 121.364 92.8086 121.348C92.8086 121.331 92.8119 121.315 92.8183 121.3C92.8247 121.284 92.8341 121.271 92.8459 121.259L93.3828 120.566C93.4004 120.538 93.4279 120.518 93.4596 120.51C93.4913 120.502 93.5249 120.507 93.5534 120.523C93.5764 120.547 93.5893 120.579 93.5893 120.612C93.5893 120.645 93.5764 120.677 93.5534 120.701L93.0166 121.412C92.999 121.439 92.9715 121.459 92.9397 121.467C92.908 121.475 92.8745 121.471 92.8459 121.454V121.437Z" fill="#FFE0BC"/>
<path d="M88.114 120.022C88.091 119.998 88.0781 119.966 88.0781 119.933C88.0781 119.9 88.091 119.868 88.114 119.844L88.5975 119.112C88.6133 119.083 88.6394 119.062 88.6705 119.052C88.7015 119.042 88.7352 119.045 88.7646 119.059C88.7876 119.083 88.8005 119.114 88.8005 119.148C88.8005 119.181 88.7876 119.213 88.7646 119.236L88.2811 119.969C88.2647 119.997 88.2386 120.017 88.2077 120.027C88.1769 120.037 88.1436 120.035 88.114 120.022Z" fill="#FFD6A6"/>
<path d="M87.739 119.769C87.716 119.745 87.7031 119.714 87.7031 119.68C87.7031 119.647 87.716 119.615 87.739 119.592L88.2225 118.859C88.2377 118.83 88.2638 118.808 88.2951 118.798C88.3264 118.788 88.3603 118.791 88.3896 118.806C88.4124 118.829 88.4252 118.86 88.4252 118.893C88.4252 118.926 88.4124 118.957 88.3896 118.98L87.9061 119.712C87.8909 119.742 87.865 119.764 87.8339 119.774C87.8028 119.785 87.7688 119.783 87.739 119.769Z" fill="#FFD6A6"/>
<path d="M85.7125 122.848C85.6868 122.828 85.67 122.798 85.6653 122.766C85.6607 122.733 85.6687 122.7 85.6876 122.674L86.1213 121.913C86.1346 121.883 86.1591 121.859 86.1895 121.846C86.22 121.834 86.2541 121.833 86.2848 121.845C86.3115 121.866 86.329 121.896 86.3337 121.929C86.3383 121.962 86.3297 121.996 86.3097 122.023L85.876 122.784C85.8628 122.814 85.8381 122.838 85.8075 122.85C85.7768 122.862 85.7427 122.861 85.7125 122.848Z" fill="#FFD6A6"/>
<path d="M85.3203 122.621C85.2941 122.601 85.2765 122.572 85.2712 122.539C85.2659 122.507 85.2733 122.474 85.2918 122.446L85.7255 121.686C85.7388 121.656 85.7634 121.632 85.7941 121.62C85.8247 121.608 85.8589 121.609 85.8891 121.622C85.9153 121.641 85.9328 121.671 85.9381 121.703C85.9434 121.735 85.936 121.769 85.9175 121.796L85.4802 122.557C85.4744 122.572 85.4656 122.585 85.4542 122.597C85.4429 122.609 85.4293 122.618 85.4142 122.624C85.3992 122.63 85.3831 122.632 85.3669 122.632C85.3508 122.631 85.3349 122.628 85.3203 122.621Z" fill="#FFD6A6"/>
<path d="M84.4423 126.161C84.4149 126.143 84.3959 126.114 84.3893 126.081C84.3827 126.049 84.3889 126.015 84.4067 125.987L84.8049 125.205C84.8182 125.176 84.842 125.152 84.8717 125.14C84.9013 125.127 84.9346 125.127 84.9649 125.137C84.9922 125.156 85.0112 125.185 85.0178 125.217C85.0244 125.25 85.0182 125.284 85.0004 125.312L84.6022 126.094C84.5896 126.124 84.5662 126.148 84.5366 126.162C84.5071 126.176 84.4734 126.178 84.4423 126.168V126.161Z" fill="#FFD6A6"/>
<path d="M84.0387 125.951C84.012 125.932 83.9936 125.904 83.987 125.871C83.9805 125.839 83.9862 125.806 84.0031 125.777L84.4013 124.995C84.4132 124.965 84.4367 124.94 84.4667 124.927C84.4966 124.913 84.5306 124.912 84.5613 124.924C84.5752 124.933 84.5872 124.945 84.5965 124.958C84.6058 124.972 84.6124 124.987 84.6157 125.004C84.619 125.02 84.619 125.037 84.6158 125.053C84.6125 125.069 84.6061 125.085 84.5968 125.098L84.1987 125.877C84.1867 125.907 84.1634 125.932 84.1336 125.946C84.1038 125.96 84.0698 125.962 84.0387 125.951Z" fill="#FFD6A6"/>
<path d="M91.7654 118.276C91.7431 118.261 91.7273 118.238 91.7214 118.212C91.7154 118.185 91.7197 118.158 91.7334 118.134L92.0889 117.637C92.0982 117.627 92.1093 117.62 92.1215 117.614C92.1337 117.609 92.1468 117.607 92.16 117.607C92.1733 117.607 92.1864 117.609 92.1986 117.614C92.2108 117.62 92.2219 117.627 92.2311 117.637C92.2541 117.651 92.2706 117.674 92.2772 117.701C92.2838 117.727 92.2801 117.755 92.2667 117.779L91.9112 118.276C91.8914 118.295 91.8654 118.305 91.8383 118.305C91.8112 118.305 91.7852 118.295 91.7654 118.276Z" fill="#FFD6A6"/>
<path d="M91.4008 118.006C91.3778 117.991 91.3614 117.968 91.3547 117.942C91.3481 117.916 91.3519 117.888 91.3653 117.864L91.7208 117.366C91.7401 117.347 91.7663 117.336 91.7936 117.336C91.821 117.336 91.8472 117.347 91.8665 117.366C91.8896 117.381 91.906 117.404 91.912 117.431C91.918 117.457 91.9131 117.485 91.8985 117.508L91.543 118.002C91.5338 118.012 91.5227 118.019 91.5105 118.025C91.4983 118.03 91.4852 118.032 91.4719 118.032C91.4587 118.032 91.4456 118.03 91.4334 118.025C91.4212 118.019 91.4101 118.012 91.4008 118.002V118.006Z" fill="#FFD6A6"/>
<path d="M97.1748 127.982C97.1594 127.952 97.156 127.918 97.1653 127.886C97.1746 127.855 97.1958 127.828 97.2246 127.811L97.9356 127.313C97.9595 127.29 97.9914 127.278 98.0245 127.278C98.0577 127.278 98.0895 127.29 98.1134 127.313C98.1276 127.343 98.1301 127.378 98.1202 127.409C98.1103 127.441 98.0888 127.468 98.06 127.484L97.349 127.982C97.3258 128.005 97.2945 128.017 97.2619 128.017C97.2294 128.017 97.1981 128.005 97.1748 127.982Z" fill="#FFD6A6"/>
<path d="M96.9168 127.626C96.9015 127.597 96.8982 127.564 96.9075 127.532C96.9168 127.501 96.938 127.475 96.9666 127.459L97.6776 126.961C97.6892 126.95 97.703 126.94 97.7182 126.934C97.7335 126.927 97.7499 126.924 97.7665 126.924C97.783 126.924 97.7994 126.927 97.8147 126.934C97.8299 126.94 97.8437 126.95 97.8553 126.961C97.8694 126.991 97.8717 127.024 97.8618 127.056C97.8519 127.087 97.8305 127.113 97.802 127.129L97.091 127.63C97.0797 127.641 97.0662 127.651 97.0512 127.657C97.0363 127.664 97.0202 127.667 97.0039 127.667C96.9876 127.667 96.9715 127.664 96.9566 127.657C96.9416 127.651 96.9281 127.641 96.9168 127.63V127.626Z" fill="#FFD6A6"/>
<path d="M94.4235 129.535C94.4112 129.504 94.4109 129.47 94.4228 129.439C94.4346 129.408 94.4578 129.383 94.4875 129.368L95.2448 128.924C95.2712 128.904 95.3044 128.896 95.337 128.9C95.3697 128.905 95.3992 128.922 95.419 128.949C95.4313 128.979 95.4316 129.014 95.4198 129.045C95.4079 129.076 95.3848 129.101 95.355 129.116L94.5978 129.56C94.5708 129.578 94.538 129.586 94.5059 129.581C94.4737 129.577 94.4444 129.56 94.4235 129.535Z" fill="#FFD6A6"/>
<path d="M94.2087 129.141C94.1963 129.11 94.1961 129.076 94.2079 129.045C94.2198 129.014 94.2429 128.988 94.2727 128.974L95.0299 128.533C95.0563 128.513 95.0895 128.505 95.1222 128.509C95.1384 128.512 95.1539 128.517 95.168 128.525C95.182 128.534 95.1943 128.545 95.2041 128.558C95.2155 128.588 95.2152 128.622 95.2034 128.652C95.1916 128.682 95.1691 128.707 95.1401 128.721L94.3829 129.166C94.3565 129.186 94.3233 129.194 94.2907 129.189C94.258 129.185 94.2285 129.167 94.2087 129.141Z" fill="#FFD6A6"/>
<path d="M91.4072 131.028C91.3969 131.006 91.3956 130.98 91.4035 130.956C91.4114 130.932 91.428 130.912 91.4499 130.9L92.0258 130.545C92.0438 130.527 92.068 130.517 92.0933 130.517C92.1186 130.517 92.1429 130.527 92.1609 130.545C92.1719 130.568 92.1733 130.595 92.1646 130.62C92.156 130.645 92.138 130.665 92.1147 130.676L91.5423 131.032C91.5243 131.05 91.5 131.06 91.4747 131.06C91.4495 131.06 91.4252 131.05 91.4072 131.032V131.028Z" fill="#FFD6A6"/>
<path d="M91.219 130.73C91.209 130.707 91.2083 130.681 91.2169 130.657C91.2254 130.633 91.2427 130.613 91.2652 130.602L91.8376 130.246C91.8562 130.228 91.881 130.218 91.9069 130.218C91.9328 130.218 91.9577 130.228 91.9763 130.246C91.9873 130.27 91.9887 130.297 91.98 130.322C91.9714 130.346 91.9534 130.366 91.93 130.378L91.3577 130.733C91.3391 130.751 91.3142 130.762 91.2884 130.762C91.2625 130.762 91.2376 130.751 91.219 130.733V130.73Z" fill="#FFD6A6"/>
<path d="M100.288 126.115C100.269 126.096 100.258 126.07 100.258 126.042C100.258 126.015 100.269 125.989 100.288 125.969L100.771 125.614C100.795 125.599 100.823 125.594 100.849 125.6C100.876 125.606 100.899 125.623 100.914 125.646C100.933 125.665 100.944 125.691 100.944 125.719C100.944 125.746 100.933 125.772 100.914 125.792L100.43 126.147C100.407 126.161 100.379 126.165 100.353 126.159C100.326 126.153 100.303 126.138 100.288 126.115Z" fill="#FFD6A6"/>
<path d="M100.013 125.749C99.9947 125.729 99.9844 125.703 99.9844 125.676C99.9844 125.649 99.9947 125.623 100.013 125.603L100.497 125.248C100.508 125.24 100.52 125.234 100.534 125.231C100.547 125.229 100.561 125.229 100.574 125.231C100.587 125.234 100.6 125.239 100.611 125.247C100.622 125.255 100.632 125.265 100.639 125.276C100.658 125.295 100.669 125.322 100.669 125.349C100.669 125.376 100.658 125.403 100.639 125.422L100.152 125.777C100.129 125.792 100.101 125.797 100.074 125.791C100.047 125.785 100.024 125.768 100.01 125.745L100.013 125.749Z" fill="#FFD6A6"/>
<path d="M90.032 123.808C90.009 123.784 89.9961 123.752 89.9961 123.719C89.9961 123.686 90.009 123.654 90.032 123.63L90.5226 122.919C90.5377 122.89 90.5638 122.868 90.5951 122.858C90.6264 122.848 90.6604 122.851 90.6897 122.866C90.7127 122.89 90.7256 122.922 90.7256 122.955C90.7256 122.988 90.7127 123.02 90.6897 123.044L90.1991 123.755C90.1839 123.784 90.1578 123.806 90.1265 123.816C90.0952 123.826 90.0612 123.823 90.032 123.808Z" fill="#FFE0BC"/>
<path d="M89.6531 123.552C89.6301 123.528 89.6172 123.496 89.6172 123.463C89.6172 123.43 89.6301 123.398 89.6531 123.374L90.1437 122.663C90.1595 122.634 90.1863 122.612 90.2181 122.602C90.25 122.592 90.2845 122.595 90.3143 122.61C90.3373 122.634 90.3502 122.666 90.3502 122.699C90.3502 122.732 90.3373 122.764 90.3143 122.788L89.8237 123.499C89.8086 123.528 89.7825 123.55 89.7512 123.56C89.7199 123.57 89.6859 123.567 89.6566 123.552H89.6531Z" fill="#FFE0BC"/>
<path d="M87.9318 127.192C87.9186 127.182 87.9076 127.17 87.8993 127.156C87.891 127.142 87.8857 127.126 87.8837 127.11C87.8817 127.093 87.8831 127.077 87.8877 127.061C87.8923 127.045 87.9 127.031 87.9105 127.018L88.3656 126.268C88.3788 126.24 88.4022 126.217 88.4312 126.205C88.4602 126.193 88.4926 126.193 88.522 126.204C88.5471 126.225 88.5632 126.254 88.5672 126.287C88.5712 126.319 88.5626 126.352 88.5433 126.378L88.0883 127.128C88.0744 127.158 88.0494 127.181 88.0188 127.192C87.9883 127.203 87.9545 127.202 87.9247 127.189L87.9318 127.192Z" fill="#FFE0BC"/>
<path d="M87.5436 126.954C87.5178 126.934 87.501 126.904 87.497 126.872C87.493 126.839 87.5021 126.806 87.5223 126.78L87.9738 126.03C87.989 126.001 88.0147 125.979 88.0456 125.967C88.0765 125.956 88.1105 125.957 88.1409 125.97C88.1541 125.979 88.1652 125.992 88.1734 126.006C88.1817 126.02 88.187 126.036 88.189 126.052C88.191 126.068 88.1896 126.085 88.185 126.101C88.1804 126.116 88.1727 126.131 88.1622 126.144L87.7072 126.894C87.6933 126.923 87.6683 126.946 87.6377 126.958C87.6072 126.969 87.5734 126.968 87.5436 126.954Z" fill="#FFE0BC"/>
<path d="M101.146 147.378L82.6602 147.815L83.0939 154.798C89.2369 154.36 95.3057 153.191 101.171 151.314L101.146 147.378Z" fill="#DC624B"/>
<path d="M52.526 150.887C58.6012 152.952 64.9104 154.251 71.3073 154.755L71.8441 147.815H52.4727L52.526 150.887Z" fill="#DC624B"/>
</svg>
