<svg width="44" height="47" viewBox="0 0 44 47" fill="none" xmlns="http://www.w3.org/2000/svg">
<path d="M34.2802 21.4941H9.56237C7.61219 21.4941 6.03125 23.2438 6.03125 25.4022V39.0803C6.03125 41.2386 7.61219 42.9883 9.56237 42.9883H34.2802C36.2304 42.9883 37.8113 41.2386 37.8113 39.0803V25.4022C37.8113 23.2438 36.2304 21.4941 34.2802 21.4941Z" stroke="white" stroke-width="4" stroke-linecap="round" stroke-linejoin="round"/>
<path d="M13.0938 21.4943V13.6783C13.0938 11.0871 14.0238 8.60204 15.6794 6.76979C17.3349 4.93755 19.5803 3.9082 21.9215 3.9082C24.2628 3.9082 26.5082 4.93755 28.1637 6.76979C29.8193 8.60204 30.7493 11.0871 30.7493 13.6783V21.4943" stroke="white" stroke-width="4" stroke-linecap="round" stroke-linejoin="round"/>
</svg>
