<svg width="155" height="155" viewBox="0 0 155 155" fill="none" xmlns="http://www.w3.org/2000/svg">
<path d="M77.5 155C120.302 155 155 120.302 155 77.5C155 34.6979 120.302 0 77.5 0C34.6979 0 0 34.6979 0 77.5C0 120.302 34.6979 155 77.5 155Z" fill="#C4C4C4"/>
<path d="M61.7464 77.7312L60.2533 76.6647C59.7307 76.3092 59.1867 75.9003 58.6179 75.488C57.4839 74.6561 56.2681 73.746 55.0167 72.7506C54.391 72.26 53.7617 71.7338 53.1254 71.197C52.489 70.6602 51.8598 70.0914 51.2412 69.5048L50.7826 69.0569L50.3347 68.6125C50.1854 68.4596 50.0432 68.2997 49.8974 68.1432L49.4921 67.6846L49.2788 67.418L49.1722 67.2865L49.1437 67.2545C49.1437 67.2545 49.1224 67.226 49.1437 67.2545L49.0904 67.1869L48.6851 66.6537C48.415 66.2982 48.1554 65.9427 47.8995 65.5872C47.3804 64.8762 46.8934 64.1154 46.4419 63.351C46.2144 62.9706 45.9975 62.5831 45.7913 62.1921C45.5851 61.801 45.3967 61.4029 45.2154 61.0047C44.4843 59.471 44.0455 57.8145 43.9214 56.1201C43.9214 56.0205 43.9214 55.9174 43.9214 55.8179V55.537C43.9214 55.4873 43.9214 55.4482 43.9214 55.3913V55.2206L43.9392 54.9149C43.9693 54.5268 44.0299 54.1417 44.1205 53.7631C44.2004 53.4073 44.3196 53.0615 44.476 52.7321C44.5518 52.5746 44.6385 52.4226 44.7355 52.2771C44.7795 52.2083 44.827 52.1419 44.8777 52.078C44.9076 52.0372 44.9396 51.998 44.9737 51.9607L45.0519 51.8718C45.9691 50.8266 47.512 50.3396 48.9944 50.2862C49.1791 50.2738 49.3644 50.2738 49.549 50.2862C49.7339 50.2862 49.9045 50.3182 50.0929 50.3467C50.453 50.4011 50.8092 50.4783 51.1595 50.5778C51.9188 50.8091 52.6237 51.1912 53.232 51.7011C54.8816 53.372 55.8095 53.1232 56.1685 52.174C56.3818 51.6265 54.583 51.0648 53.616 50.496C52.9658 50.0687 52.2722 49.7112 51.547 49.4295C51.1556 49.2855 50.7554 49.1668 50.3489 49.074C50.1427 49.0278 49.9294 48.9886 49.7161 48.9531C49.5028 48.9175 49.2824 48.882 49.0655 48.8571C48.6147 48.8071 48.1606 48.7928 47.7075 48.8145C47.2284 48.8371 46.7524 48.9037 46.2855 49.0135C45.7935 49.1327 45.3165 49.3068 44.8635 49.5326C44.3937 49.7683 43.9593 50.0686 43.573 50.4249L43.4983 50.4924L43.4628 50.528L43.4343 50.5529C43.3952 50.5955 43.3632 50.6204 43.3064 50.6808C43.2495 50.7413 43.1179 50.887 43.0326 50.9937C42.8604 51.2037 42.7035 51.4258 42.5634 51.6585C42.292 52.1149 42.0726 52.6002 41.9092 53.1054C41.7441 53.5969 41.6251 54.1027 41.5537 54.6163L41.5111 54.9896L41.4897 55.1567C41.4897 55.2171 41.4897 55.2917 41.4897 55.3557L41.4648 55.761C41.4648 55.8925 41.4648 56.017 41.4648 56.145C41.4739 57.164 41.604 58.1784 41.8523 59.1667C41.9739 59.6549 42.1198 60.1366 42.2896 60.6101C42.4567 61.0865 42.6451 61.5486 42.8442 62.0037C43.254 62.9004 43.7195 63.7708 44.2378 64.6095C44.7533 65.4414 45.3043 66.2342 45.8909 66.9914C46.1859 67.3682 46.4846 67.738 46.7867 68.097L47.2418 68.6303L47.48 68.904L47.7075 69.16L48.223 69.6932C48.3936 69.8568 48.5607 70.0239 48.7314 70.1838L49.2468 70.6567L49.7623 71.1081C51.0921 72.2197 52.4831 73.2558 53.9288 74.2117C54.6078 74.6703 55.2798 75.0969 55.9374 75.5022C56.5951 75.9075 57.2315 76.2878 57.85 76.6433C58.4686 76.9989 59.0623 77.3295 59.6276 77.6388C60.1928 77.948 61.8139 80.0278 62.333 80.2908C63.3675 80.8276 62.6885 78.3818 61.7464 77.7312Z" fill="#BAC5D8"/>
<path d="M62.2384 79.3874L60.6173 78.232C60.0485 77.8196 59.4512 77.3859 58.8398 76.9309C57.6062 76.0137 56.2837 75.0111 54.9292 73.9126C54.2467 73.3687 53.5605 72.7892 52.8709 72.1955C52.1812 71.6018 51.4915 70.9762 50.8196 70.3291L50.3219 69.835L49.8206 69.3231C49.6606 69.156 49.5042 68.9676 49.3478 68.8076L48.907 68.2992L48.6759 68.0077L48.555 67.8619L48.5266 67.8264V67.8086C48.5266 67.8086 48.5017 67.7766 48.5266 67.8086L48.4733 67.734L48.0289 67.1474C47.7374 66.7563 47.453 66.3582 47.1757 65.9564C46.6104 65.1565 46.0807 64.3282 45.5901 63.4679C45.3413 63.0484 45.1066 62.6182 44.8791 62.1881C44.6516 61.7579 44.4489 61.3171 44.2534 60.8798C43.4511 59.1852 42.969 57.3568 42.8314 55.4868C42.8314 55.3766 42.8314 55.2593 42.8314 55.1526V54.8434C42.8314 54.7865 42.8314 54.7438 42.8314 54.6798V54.4914V54.1537C42.8689 53.7254 42.9355 53.3002 43.0305 52.881C43.1246 52.4884 43.2605 52.107 43.4358 51.7434C43.5195 51.5709 43.6133 51.4036 43.7166 51.2421C43.7664 51.1674 43.8268 51.0821 43.873 51.0217L43.9761 50.8937L44.0828 50.8368C45.0817 49.6779 46.7597 49.1411 48.3737 49.0806C48.575 49.0682 48.7768 49.0682 48.9781 49.0806C49.1772 49.0984 49.3762 49.1197 49.5718 49.1517C49.9597 49.2102 50.3433 49.2945 50.72 49.4041C51.4502 49.6199 52.1556 49.9119 52.8246 50.2751C56.1024 53.9084 58.175 52.1557 53.397 49.3153C52.6892 48.8497 51.9336 48.4612 51.1431 48.1563C50.7189 47.9944 50.2842 47.8614 49.8419 47.7582C49.6144 47.7048 49.3833 47.6622 49.1523 47.6266C48.9212 47.5911 48.6794 47.5448 48.4413 47.52C47.9518 47.4616 47.4581 47.4461 46.9659 47.4737C46.4505 47.4963 45.9386 47.5689 45.4372 47.6906C44.9052 47.8222 44.3899 48.0143 43.9015 48.263C43.3842 48.5239 42.9056 48.8553 42.4794 49.2477L42.3977 49.3259L42.3586 49.3615L42.3372 49.3793L42.3053 49.4148C42.2626 49.4575 42.227 49.4895 42.1666 49.557C42.0528 49.6779 41.9604 49.7845 41.868 49.9125C41.6806 50.1445 41.5095 50.3892 41.3561 50.6449C41.0621 51.1497 40.8237 51.6849 40.645 52.2411C40.4716 52.7849 40.3455 53.3428 40.2682 53.9084L40.222 54.3208L40.2007 54.5092C40.2007 54.5732 40.2007 54.6549 40.2007 54.726L40.1758 55.174C40.1758 55.3197 40.1758 55.4548 40.1758 55.597C40.184 56.7226 40.326 57.8432 40.5988 58.9352C40.7301 59.4739 40.8891 60.0055 41.0752 60.5279C41.253 61.0505 41.4592 61.5624 41.676 62.0637C42.1203 63.0541 42.6261 64.0159 43.1905 64.9432C43.7522 65.8604 44.3601 66.7208 44.9893 67.5704C45.3093 67.9899 45.6363 68.3952 45.967 68.7934L46.4575 69.3799L46.7206 69.6821L46.9695 69.963C47.1543 70.1621 47.325 70.3611 47.5276 70.5531C47.7303 70.7451 47.8831 70.9086 48.0822 71.0935L48.6403 71.6161L49.202 72.1138C50.6474 73.3403 52.1607 74.4845 53.7347 75.5408C54.4777 76.0492 55.2101 76.5185 55.9211 76.9629C56.6321 77.4072 57.3431 77.8267 58.0008 78.2213C58.6585 78.6159 59.3233 78.9786 59.9454 79.3198C60.5675 79.6611 61.1612 79.9811 61.7229 80.269C62.8392 80.8307 63.28 80.1091 62.2384 79.3874Z" fill="#D1D9E8"/>
<path d="M113.505 55.3662C113.505 55.3022 113.505 55.2276 113.505 55.1671L113.483 55.0001L113.441 54.6268C113.369 54.1132 113.25 53.6074 113.085 53.1159C112.922 52.6107 112.702 52.1253 112.431 51.669C112.291 51.4363 112.134 51.2142 111.962 51.0042C111.876 50.8975 111.791 50.8016 111.688 50.6913L111.56 50.5634L111.532 50.5385H111.514L111.478 50.5029L111.404 50.4354C111.017 50.0791 110.583 49.7788 110.113 49.5431C109.66 49.3173 109.183 49.1432 108.691 49.024C108.23 48.9153 107.76 48.8486 107.287 48.8249C106.834 48.8033 106.38 48.8176 105.929 48.8676C105.712 48.8925 105.484 48.9316 105.278 48.9636C105.072 48.9956 104.852 49.0383 104.645 49.0845C104.239 49.1773 103.839 49.296 103.447 49.44C102.722 49.7217 102.029 50.0792 101.378 50.5065C100.411 51.0753 98.6125 51.637 98.8258 52.1845C99.1813 53.1194 100.113 53.3825 101.762 51.7116C102.371 51.2017 103.075 50.8196 103.835 50.5883C104.185 50.4888 104.541 50.4116 104.901 50.3572C105.079 50.3287 105.257 50.311 105.445 50.2967C105.63 50.2843 105.815 50.2843 106 50.2967C107.482 50.3501 109.025 50.8371 109.942 51.8823L110.021 51.9712L110.117 52.0885C110.167 52.1524 110.215 52.2188 110.259 52.2876C110.356 52.4331 110.442 52.5851 110.518 52.7426C110.675 53.072 110.794 53.4178 110.874 53.7736C110.964 54.1522 111.025 54.5373 111.055 54.9254L111.073 55.2311V55.4018C111.073 55.4587 111.073 55.4978 111.073 55.5475V55.8142C111.073 55.9137 111.073 56.0168 111.073 56.1163C110.949 57.8108 110.51 59.4673 109.779 61.001C109.598 61.3991 109.423 61.7973 109.203 62.1884C108.983 62.5794 108.78 62.9669 108.552 63.3473C108.101 64.1116 107.614 64.8618 107.095 65.5834C106.839 65.9389 106.579 66.2944 106.309 66.6499L105.904 67.1832L105.851 67.2508C105.875 67.2188 105.851 67.2508 105.851 67.2508L105.822 67.2827L105.715 67.4143L105.502 67.6809L105.097 68.1395C104.951 68.2959 104.809 68.4559 104.66 68.6088L104.212 69.0638L103.753 69.5118C103.135 70.0995 102.506 70.6636 101.869 71.204C101.233 71.7408 100.603 72.2705 99.9776 72.7575C98.7263 73.7529 97.5104 74.663 96.3764 75.4949C95.8111 75.9073 95.2636 76.2983 94.741 76.6716L93.2479 77.7381C92.3058 78.3887 91.6268 80.8346 92.6542 80.3084C93.1733 80.0454 94.7873 77.9657 95.3596 77.6564C95.932 77.3471 96.5292 77.0165 97.1371 76.661C97.7451 76.3055 98.3956 75.9251 99.0498 75.5198C99.7039 75.1145 100.379 74.6879 101.058 74.2293C102.505 73.2712 103.898 72.2327 105.228 71.1186L105.744 70.6672L106.259 70.1943C106.43 70.0344 106.597 69.8673 106.768 69.7037L107.283 69.1705L107.511 68.9145L107.749 68.6408L108.204 68.1075C108.506 67.752 108.805 67.3787 109.1 67.0019C109.679 66.2447 110.237 65.4519 110.753 64.62C111.271 63.7812 111.737 62.9109 112.147 62.0142C112.346 61.5591 112.534 61.097 112.701 60.6206C112.871 60.1471 113.017 59.6654 113.138 59.1772C113.387 58.1889 113.517 57.1745 113.526 56.1555C113.526 56.0275 113.526 55.903 113.526 55.7715L113.505 55.3662Z" fill="#BAC5D8"/>
<path d="M114.799 54.7015C114.799 54.6304 114.799 54.5486 114.799 54.4846L114.778 54.2962L114.731 53.8838C114.654 53.3182 114.528 52.7604 114.355 52.2165C114.176 51.6603 113.938 51.1251 113.644 50.6203C113.49 50.3646 113.319 50.1199 113.132 49.888C113.039 49.7706 112.947 49.664 112.833 49.5325C112.719 49.4009 112.737 49.4329 112.694 49.3902L112.666 49.3583L112.645 49.3405L112.605 49.3049L112.524 49.2267C112.098 48.8343 111.619 48.5029 111.102 48.242C110.613 47.9933 110.098 47.8013 109.566 47.6696C109.065 47.5479 108.553 47.4753 108.037 47.4528C107.545 47.4251 107.051 47.4406 106.562 47.499C106.324 47.5239 106.078 47.5665 105.851 47.6056C105.623 47.6447 105.389 47.6838 105.161 47.7372C104.719 47.8404 104.284 47.9734 103.86 48.1353C103.07 48.4402 102.314 48.8287 101.606 49.2943C96.8282 52.1383 98.9008 53.8874 102.179 50.2541C102.848 49.8909 103.553 49.5989 104.283 49.3831C104.66 49.2735 105.043 49.1892 105.431 49.1307C105.627 49.0987 105.826 49.0774 106.025 49.0596C106.226 49.0472 106.428 49.0472 106.629 49.0596C108.243 49.1201 109.921 49.6569 110.92 50.8158L111.006 50.9118L111.109 51.0398C111.155 51.1002 111.215 51.1856 111.265 51.2602C111.369 51.4217 111.462 51.589 111.546 51.7615C111.721 52.1251 111.857 52.5065 111.951 52.8991C112.046 53.3183 112.113 53.7435 112.15 54.1718V54.5095V54.6979C112.15 54.7619 112.15 54.8046 112.15 54.8615V55.1708C112.15 55.2774 112.15 55.3947 112.15 55.5049C112.013 57.3749 111.531 59.2033 110.728 60.8979C110.533 61.3352 110.323 61.7725 110.103 62.2062C109.882 62.6399 109.644 63.0665 109.392 63.486C108.901 64.3286 108.371 65.1569 107.806 65.9745C107.529 66.3763 107.244 66.7744 106.953 67.1655L106.509 67.7521L106.455 67.8267C106.48 67.7947 106.455 67.8267 106.455 67.8267V67.8445L106.427 67.88L106.306 68.0258L106.075 68.3173L105.634 68.8257C105.478 68.9999 105.321 69.1812 105.161 69.3412L104.671 69.846L104.173 70.3401C103.501 70.9872 102.815 71.6128 102.122 72.2065C101.428 72.8002 100.746 73.3797 100.063 73.9236C98.7017 75.0221 97.3792 76.0247 96.1527 76.9419C95.5377 77.3969 94.9405 77.8306 94.3752 78.243L92.7541 79.3984C91.7303 80.1094 92.1533 80.8417 93.2731 80.2587C93.8348 79.9696 94.4274 79.6532 95.0507 79.3095C95.6728 78.954 96.3234 78.5985 96.9953 78.211C97.6672 77.8235 98.364 77.4005 99.075 76.9525C99.786 76.5046 100.518 76.0353 101.261 75.5305C102.835 74.4742 104.349 73.33 105.794 72.1034L106.356 71.6057L106.914 71.0831C107.099 70.9089 107.269 70.7276 107.468 70.5428C107.668 70.3579 107.842 70.1517 108.027 69.9526L108.275 69.6718L108.539 69.3696L109.029 68.783C109.36 68.3849 109.687 67.9796 110.007 67.5601C110.636 66.7247 111.244 65.8501 111.806 64.9329C112.37 64.0055 112.876 63.0438 113.32 62.0533C113.537 61.5521 113.743 61.0401 113.921 60.5175C114.107 59.9952 114.266 59.4636 114.397 58.9249C114.67 57.8329 114.812 56.7123 114.82 55.5867C114.82 55.4445 114.82 55.3094 114.82 55.1636L114.799 54.7015Z" fill="#D1D9E8"/>
<path d="M56.9832 57.9689C58.2666 64.9083 58.7999 67.603 59.7953 71.247C60.9827 75.5912 61.6048 77.8167 63.0766 80.4652C64.4204 82.8897 66.4005 85.6165 67.7621 87.4935C68.5656 88.6027 69.6179 90.0069 71.0434 92.1791C72.7001 94.7103 73.1374 95.6488 73.3862 96.2425C74.0407 97.8398 74.461 99.5233 74.634 101.241C75.2384 107.213 72.5508 112.052 71.3563 114.206C70.6168 115.532 69.6392 116.947 69.4792 117.175C68.4767 118.618 67.915 119.428 66.9907 120.299C66.0226 121.2 64.9158 121.938 63.7129 122.486H91.2041C90.0007 121.937 88.8929 121.199 87.9228 120.299C86.9914 119.428 86.4297 118.618 85.4343 117.175C85.2778 116.947 84.2966 115.532 83.5608 114.206C82.3627 112.052 79.6751 107.213 80.2794 101.241C80.4529 99.523 80.8744 97.8394 81.5308 96.2425C81.7797 95.6488 82.2134 94.7103 83.8736 92.1791C85.2956 90.0069 86.3621 88.6027 87.1549 87.4935C88.5165 85.6165 90.4966 82.872 91.8405 80.4652C93.3122 77.8167 93.9344 75.5912 95.1218 71.247C96.1172 67.603 96.6504 64.9083 97.9338 57.9689C98.5702 54.5134 99.3096 50.4713 100.12 45.9421H54.7969C55.6074 50.4819 56.3433 54.5134 56.9832 57.9689Z" fill="#D1D9E8"/>
<path d="M76.3037 92.9504C74.128 93.5903 71.9986 92.4811 70.0859 90.7534C70.3846 91.1907 70.701 91.6635 71.0422 92.1754C72.6989 94.7066 73.1362 95.6451 73.385 96.2388C74.0395 97.8362 74.4598 99.5197 74.6328 101.237C74.6897 101.788 74.7182 102.329 74.7217 102.858C74.857 102.74 75.002 102.633 75.1554 102.538C75.4114 102.385 75.9731 102.044 76.5099 102.226C77.3205 102.503 77.5515 103.8 77.6546 104.412C78.3159 108.397 79.6135 116.197 84.2884 122.482H91.1922C89.9888 121.933 88.8811 121.195 87.9109 120.296C86.9795 119.425 86.4178 118.614 85.4224 117.171C85.266 116.943 84.2848 115.528 83.5489 114.202C82.3509 112.048 79.6632 107.21 80.2676 101.237C80.4411 99.5194 80.8626 97.8358 81.519 96.2388C81.7678 95.6451 82.2015 94.7066 83.8617 92.1754C85.2838 90.0033 86.3503 88.599 87.1431 87.4899C88.5046 85.6128 90.4848 82.8683 91.8286 80.4615C93.3004 77.813 93.9225 75.5876 95.1099 71.2433C96.1053 67.5994 96.6386 64.9046 97.922 57.9652C98.5583 54.5097 99.2978 50.4676 100.108 45.9385H89.3578C86.8124 86.0323 78.9202 92.1825 76.3037 92.9504Z" fill="#BAC5D8"/>
<path d="M55.1239 47.7623H99.7718C99.8784 47.1651 99.9874 46.5583 100.099 45.9421H54.7969C54.9071 46.5714 55.0137 47.1651 55.1239 47.7623Z" fill="#BAC5D8"/>
<path d="M61.2171 54.0936C60.967 54.4639 60.8198 54.8939 60.7905 55.3398C60.7613 55.7857 60.8512 56.2313 61.0508 56.631C61.2505 57.0307 61.5529 57.3701 61.9269 57.6146C62.3009 57.859 62.7332 57.9996 63.1795 58.022C63.6274 58.0895 65.1739 58.317 66.0591 57.2363C66.3618 56.8517 66.5475 56.3881 66.5941 55.9009C66.6408 55.4137 66.5464 54.9233 66.3221 54.4882C65.412 52.8529 62.2409 52.6147 61.2171 54.0936Z" fill="#E6EAF4"/>
<path d="M67.2211 61.2039C67.1358 60.7879 65.9484 60.0805 64.6828 60.1551C64.2084 60.191 63.7487 60.3357 63.3394 60.578C62.93 60.8203 62.5819 61.1537 62.3222 61.5523C61.5437 62.8036 63.0901 69.4196 64.5015 73.5861C66.6345 79.8643 70.3886 85.8865 71.0321 85.6164C71.5582 85.3995 68.7924 81.4961 68.3125 74.8055C67.8468 68.3922 67.9463 64.702 67.2211 61.2039Z" fill="#E6EAF4"/>
<path d="M75.0124 109.14C74.7245 109.119 74.7351 111.006 73.7646 113.435C72.1755 117.409 69.4985 118.977 70.0922 119.997C70.4477 120.598 71.7098 120.655 72.5808 120.31C74.8311 119.425 75.1333 115.688 75.3146 113.435C75.5066 111.355 75.3395 109.14 75.0124 109.14Z" fill="#E6EAF4"/>
<path d="M42.9257 49.4828C42.1275 50.241 41.5364 51.1906 41.2086 52.2416C40.5651 54.0582 40.4976 55.5335 40.8957 57.7092C41.4681 60.9372 42.8581 62.0286 43.0821 61.8757C43.3061 61.7229 42.9043 60.763 42.6128 59.9987C42.2573 59.0139 41.3046 56.5361 41.4681 54.2182C41.5214 53.4752 41.6601 51.5412 43.0323 50.2614C44.3477 49.0349 46.207 48.9709 46.1536 48.6474C46.1252 48.4519 44.8667 47.8475 42.9257 49.4828Z" fill="#EDF2FC"/>
<path d="M100.826 44.7437H54.0664C53.8043 44.7437 53.5529 44.8478 53.3676 45.0331C53.1822 45.2185 53.0781 45.4698 53.0781 45.732C53.0781 45.9941 53.1822 46.2454 53.3676 46.4308C53.5529 46.6161 53.8043 46.7203 54.0664 46.7203H100.826C101.088 46.7203 101.339 46.6161 101.525 46.4308C101.71 46.2454 101.814 45.9941 101.814 45.732C101.814 45.4698 101.71 45.2185 101.525 45.0331C101.339 44.8478 101.088 44.7437 100.826 44.7437Z" fill="#DAE0ED"/>
<path d="M71.4832 45.1492H55.0802C55.0098 45.1571 54.9448 45.1906 54.8976 45.2434C54.8503 45.2962 54.8242 45.3646 54.8242 45.4354C54.8242 45.5063 54.8503 45.5746 54.8976 45.6274C54.9448 45.6802 55.0098 45.7137 55.0802 45.7216H71.4832C71.5235 45.7261 71.5642 45.722 71.6028 45.7097C71.6414 45.6974 71.677 45.677 71.7071 45.65C71.7373 45.623 71.7615 45.5899 71.778 45.553C71.7946 45.516 71.8031 45.4759 71.8031 45.4354C71.8031 45.3949 71.7946 45.3549 71.778 45.3179C71.7615 45.2809 71.7373 45.2478 71.7071 45.2208C71.677 45.1938 71.6414 45.1735 71.6028 45.1611C71.5642 45.1488 71.5235 45.1447 71.4832 45.1492Z" fill="#EDF2FC"/>
<path d="M65.844 121.227C65.1748 121.712 64.4605 122.131 63.7109 122.478H91.2021C90.4521 122.132 89.7377 121.713 89.0691 121.227H65.844Z" fill="#BAC5D8"/>
<path d="M91.4664 121.938H63.4277C63.1954 121.927 62.9634 121.964 62.7457 122.046C62.5279 122.127 62.329 122.252 62.1608 122.413C61.9927 122.574 61.8589 122.767 61.7675 122.98C61.676 123.194 61.6289 123.424 61.6289 123.657C61.6289 123.889 61.676 124.12 61.7675 124.333C61.8589 124.547 61.9927 124.74 62.1608 124.901C62.329 125.062 62.5279 125.186 62.7457 125.268C62.9634 125.35 63.1954 125.386 63.4277 125.376H91.4664C91.9087 125.356 92.3263 125.166 92.6322 124.846C92.9381 124.525 93.1088 124.1 93.1088 123.657C93.1088 123.214 92.9381 122.788 92.6322 122.468C92.3263 122.148 91.9087 121.958 91.4664 121.938Z" fill="#D1D9E8"/>
<path d="M91.4683 121.938H84.1094C84.5517 121.958 84.9693 122.148 85.2752 122.468C85.5811 122.788 85.7518 123.214 85.7518 123.657C85.7518 124.1 85.5811 124.525 85.2752 124.846C84.9693 125.166 84.5517 125.356 84.1094 125.376H91.4683C91.9107 125.356 92.3282 125.166 92.6342 124.846C92.9401 124.525 93.1108 124.1 93.1108 123.657C93.1108 123.214 92.9401 122.788 92.6342 122.468C92.3282 122.148 91.9107 121.958 91.4683 121.938Z" fill="#BAC5D8"/>
<path d="M77.603 122.486H64.1685C64.044 122.486 63.9247 122.535 63.8367 122.623C63.7487 122.711 63.6992 122.83 63.6992 122.955C63.6992 123.079 63.7487 123.199 63.8367 123.287C63.9247 123.375 64.044 123.424 64.1685 123.424H77.603C77.7275 123.424 77.8468 123.375 77.9348 123.287C78.0228 123.199 78.0723 123.079 78.0723 122.955C78.0723 122.83 78.0228 122.711 77.9348 122.623C77.8468 122.535 77.7275 122.486 77.603 122.486Z" fill="#EDF2FC"/>
<path d="M87.4786 66.7637C86.9453 66.3264 86.3907 65.8785 86.2201 65.3416C86.0494 64.8048 86.2201 64.0725 86.4014 63.3899C86.5827 62.7074 86.7782 61.943 86.4974 61.5555C86.2165 61.168 85.4309 61.1147 84.7199 61.072C84.0089 61.0294 83.2978 60.9938 82.825 60.649C82.3522 60.3041 82.114 59.6393 81.8474 58.9888C81.5808 58.3382 81.2999 57.5668 80.8271 57.421C80.3543 57.2752 79.7606 57.6805 79.1384 58.0716C78.5163 58.4626 77.912 58.8608 77.3111 58.8608C76.7103 58.8608 76.0847 58.4591 75.4803 58.0716C74.8759 57.6841 74.2254 57.2824 73.7952 57.421C73.365 57.5597 73.0415 58.2955 72.7714 58.9888C72.5012 59.682 72.2594 60.3113 71.7973 60.649C71.3351 60.9867 70.5992 61.0329 69.8989 61.072C69.1985 61.1111 68.3951 61.1609 68.1214 61.5555C67.8476 61.9501 68.0289 62.6789 68.2173 63.3899C68.4058 64.1009 68.5728 64.7799 68.3986 65.3381C68.2244 65.8962 67.6699 66.3228 67.1366 66.7601C66.6034 67.1974 65.9492 67.7271 65.9492 68.239C65.9492 68.7509 66.5536 69.2451 67.1366 69.7215C67.7196 70.1978 68.2244 70.6067 68.3986 71.1435C68.5728 71.6803 68.3986 72.4091 68.2138 73.0952C68.0289 73.7813 67.8369 74.5385 68.1214 74.9296C68.4058 75.3207 69.1701 75.3669 69.8989 75.4095C70.6277 75.4522 71.3209 75.4913 71.7973 75.8326C72.2736 76.1739 72.5083 76.8422 72.7714 77.4928C73.0344 78.1434 73.3188 78.9148 73.7952 79.0641C74.2716 79.2134 74.8617 78.8046 75.4803 78.41C76.0989 78.0154 76.7068 77.6243 77.3111 77.6243C77.9155 77.6243 78.5341 78.0225 79.1384 78.41C79.7428 78.7975 80.3969 79.2028 80.8235 79.0641C81.2501 78.9255 81.5772 78.1896 81.8474 77.4928C82.1176 76.796 82.3593 76.1703 82.8215 75.8326C83.2836 75.4949 84.0195 75.4486 84.7199 75.4095C85.4202 75.3704 86.2236 75.3242 86.4974 74.9296C86.7711 74.535 86.5863 73.8062 86.4014 73.0952C86.2165 72.3842 86.0459 71.7052 86.2201 71.1435C86.3943 70.5818 86.9311 70.1587 87.4786 69.7215C88.0652 69.2451 88.6695 68.7509 88.6695 68.239C88.6695 67.7271 88.0652 67.24 87.4786 66.7637Z" fill="#F9C876"/>
<path d="M87.8109 66.3761C87.3345 65.9851 86.8403 65.5834 86.7123 65.1888C86.5844 64.7941 86.7408 64.1222 86.9043 63.5179C87.1176 62.6967 87.3416 61.8435 86.9043 61.264C86.467 60.6845 85.5961 60.6276 84.7393 60.5779C84.1101 60.5423 83.4595 60.5068 83.1075 60.2508C82.7556 59.9948 82.5281 59.3976 82.3041 58.8288C81.9912 58.0253 81.6677 57.1935 80.9709 56.9659C80.856 56.9289 80.7362 56.9097 80.6154 56.9091C80.0466 56.9091 79.4423 57.2966 78.8592 57.6734C78.2762 58.0502 77.7572 58.3844 77.3021 58.3844C76.8471 58.3844 76.2854 58.0289 75.7415 57.6734C75.1975 57.3179 74.5505 56.8806 73.9817 56.8806C73.861 56.8809 73.741 56.9001 73.6262 56.9375C72.9152 57.165 72.6059 58.004 72.2931 58.8003C72.0656 59.3834 71.8345 59.9842 71.4861 60.2224C71.1377 60.4605 70.4836 60.5139 69.8543 60.5494C69.0011 60.5992 68.1159 60.6525 67.6893 61.2355C67.2627 61.8186 67.4902 62.6576 67.7071 63.4894C67.867 64.1045 68.0341 64.7408 67.8955 65.1603C67.7568 65.5798 67.2734 65.9566 66.797 66.3477C66.1251 66.9236 65.4141 67.4924 65.4141 68.2568C65.4141 69.0211 66.1251 69.5757 66.7863 70.1267C67.2627 70.5142 67.7568 70.9159 67.8848 71.3105C68.0128 71.7052 67.8564 72.3771 67.6964 72.985C67.4795 73.8062 67.2591 74.6558 67.6786 75.2353C68.0981 75.8148 68.9904 75.8717 69.8437 75.9214C70.4729 75.957 71.127 75.9961 71.4754 76.2521C71.8238 76.508 72.0549 77.1017 72.2789 77.6741C72.5917 78.4775 72.9152 79.3094 73.6156 79.5369C73.7305 79.5731 73.8505 79.5911 73.9711 79.5902C74.5399 79.5902 75.1442 79.2027 75.7272 78.8295C76.3103 78.4562 76.8293 78.1185 77.2879 78.1185C77.7465 78.1185 78.3047 78.474 78.845 78.8295C79.3854 79.185 80.0324 79.5902 80.6012 79.5902C80.7217 79.5907 80.8416 79.5727 80.9567 79.5369C81.6677 79.3094 81.977 78.4704 82.2899 77.6741C82.5138 77.0875 82.7485 76.4867 83.0933 76.2521C83.4381 76.0174 84.0958 75.957 84.7251 75.9214C85.5818 75.8717 86.4635 75.8219 86.8901 75.2353C87.3167 74.6487 87.0892 73.8133 86.8901 72.985C86.7266 72.37 86.5595 71.7336 86.6981 71.3105C86.8368 70.8875 87.3203 70.5142 87.8002 70.1267C88.4721 69.5757 89.1724 69.0104 89.1724 68.2568C89.1724 67.5031 88.4685 66.9236 87.8109 66.3761ZM87.498 69.725C86.9648 70.1587 86.4102 70.6102 86.2395 71.147C86.0689 71.6838 86.2395 72.4162 86.4208 73.0987C86.6021 73.7813 86.7977 74.5421 86.5168 74.9331C86.236 75.3242 85.4503 75.3704 84.7393 75.4131C84.0283 75.4557 83.3173 75.4948 82.8409 75.8361C82.3645 76.1774 82.1299 76.8458 81.8668 77.4963C81.6037 78.1469 81.3193 78.9183 80.843 79.0677C80.3666 79.217 79.7765 78.8081 79.1579 78.4135C78.5393 78.0189 77.9314 77.6279 77.3306 77.6279C76.7298 77.6279 76.1041 78.026 75.4997 78.4135C74.8954 78.801 74.2448 79.2063 73.8146 79.0677C73.3845 78.929 73.061 78.1931 72.7908 77.4963C72.5206 76.7995 72.2789 76.1739 71.8167 75.8361C71.3545 75.4984 70.6186 75.4522 69.9183 75.4131C69.218 75.374 68.4145 75.3277 68.1408 74.9331C67.867 74.5385 68.0483 73.8097 68.2332 73.0987C68.4181 72.3877 68.5887 71.7087 68.4181 71.147C68.2474 70.5853 67.6893 70.1623 67.156 69.725C66.6228 69.2877 65.9686 68.7545 65.9686 68.2425C65.9686 67.7306 66.573 67.24 67.156 66.7636C67.7391 66.2873 68.2439 65.8784 68.4181 65.3416C68.5923 64.8048 68.4181 64.076 68.2368 63.3935C68.0555 62.7109 67.8564 61.9466 68.1408 61.5591C68.4252 61.1716 69.1895 61.1182 69.9183 61.0756C70.6471 61.0329 71.3403 60.9974 71.8167 60.6525C72.2931 60.3077 72.5277 59.6429 72.7908 58.9923C73.0539 58.3417 73.3383 57.5703 73.8146 57.4245C74.291 57.2788 74.8811 57.6841 75.4997 58.0751C76.1183 58.4662 76.7262 58.8643 77.3306 58.8643C77.9349 58.8643 78.5535 58.4626 79.1579 58.0751C79.7622 57.6876 80.4128 57.2859 80.8465 57.4245C81.2802 57.5632 81.5966 58.2991 81.8668 58.9923C82.137 59.6855 82.3787 60.3183 82.8445 60.6525C83.3102 60.9867 84.0389 61.0365 84.7393 61.0756C85.4396 61.1147 86.2431 61.1644 86.5168 61.5591C86.7906 61.9537 86.6092 62.6825 86.4208 63.3935C86.2324 64.1045 86.0653 64.7835 86.2395 65.3452C86.4137 65.9069 86.9505 66.3264 87.498 66.7672C88.0846 67.2436 88.6889 67.7342 88.6889 68.2461C88.6889 68.758 88.0668 69.2486 87.4802 69.725H87.498Z" fill="#A6623E"/>
<path d="M85.7644 68.2567C85.7644 69.9317 85.2676 71.5691 84.337 72.9617C83.4063 74.3544 82.0836 75.4397 80.536 76.0806C78.9885 76.7214 77.2856 76.8889 75.6429 76.5618C74.0001 76.2348 72.4913 75.4279 71.3071 74.2433C70.123 73.0587 69.3168 71.5495 68.9904 69.9066C68.6641 68.2637 68.8323 66.5609 69.4737 65.0136C70.1152 63.4663 71.2012 62.144 72.5942 61.214C73.9872 60.2839 75.6248 59.7879 77.2998 59.7886C78.4117 59.7886 79.5127 60.0076 80.5399 60.4332C81.5671 60.8588 82.5004 61.4827 83.2864 62.269C84.0725 63.0554 84.6959 63.989 85.1211 65.0164C85.5462 66.0437 85.7648 67.1448 85.7644 68.2567Z" fill="#FDE3A3"/>
<path d="M80.0136 62.1564C81.4364 62.1557 82.8365 62.5139 84.0841 63.198C83.3301 62.1818 82.3578 61.3477 81.2388 60.757C80.1198 60.1663 78.8826 59.8342 77.6182 59.785C76.3538 59.7358 75.0945 59.9708 73.933 60.4727C72.7714 60.9746 71.7373 61.7306 70.9066 62.6851C70.0759 63.6396 69.4699 64.7683 69.1332 65.988C68.7965 67.2077 68.7376 68.4874 68.9609 69.7329C69.1843 70.9783 69.6841 72.1579 70.4236 73.1846C71.1631 74.2113 72.1235 75.0591 73.2341 75.6656C72.2956 74.4077 71.7258 72.9134 71.5885 71.35C71.4512 69.7866 71.7517 68.2159 72.4565 66.8137C73.1613 65.4115 74.2425 64.2331 75.5791 63.4105C76.9157 62.588 78.4548 62.1537 80.0242 62.1564H80.0136Z" fill="#FDE9B5"/>
<path d="M53.3257 124.914L51.0469 127.91C51.0469 127.91 57.5313 138.86 57.837 139.55V147.815H66.6677L65.228 140.652C65.228 140.652 67.361 133.567 63.9446 131.274C59.4403 128.252 53.3257 124.914 53.3257 124.914Z" fill="#FFCC90"/>
<path d="M68.7063 148.672H56.4414V143.215L68.3508 143.553L68.7063 148.672Z" fill="white"/>
<path d="M55.5951 126.801C55.1151 127.381 54.173 127.392 53.494 126.823C52.815 126.258 53.3234 124.914 53.3234 124.914L57.7885 119.179C58.272 118.603 59.2105 118.593 59.8896 119.158C60.5686 119.723 60.7285 120.651 60.2451 121.231L55.5951 126.801Z" fill="#FFCC90"/>
<path d="M59.4713 121.803C58.7603 122.073 57.9391 121.625 57.6227 120.8C57.3063 119.975 57.6227 119.087 58.3337 118.816L65.0883 116.207C65.7993 115.937 66.6169 116.385 66.9369 117.21C67.2533 118.034 66.9369 118.92 66.2259 119.193L59.4713 121.803Z" fill="#FFCC90"/>
<path d="M60.9559 120.132L68.4642 117.288C68.7213 117.188 68.9436 117.015 69.1041 116.79C69.1041 116.79 60.3409 119.688 60.188 119.883C58.8905 121.54 55.1719 126.574 55.1719 126.574C55.4314 126.495 55.6641 126.347 55.8438 126.144L60.9559 120.132Z" fill="#F6B968"/>
<path d="M57.9484 128.867C57.4045 129.521 56.3415 129.532 55.5736 128.892C54.8057 128.248 54.6244 127.2 55.1719 126.549L60.4369 120.246C60.9844 119.592 62.0474 119.581 62.8153 120.221C63.5796 120.861 63.7609 121.91 63.2134 122.564L57.9484 128.867Z" fill="#FFCC90"/>
<path d="M62.3338 123.211C61.5375 123.517 60.6025 123.008 60.2435 122.077C59.888 121.145 60.2435 120.139 61.0327 119.834L68.6903 116.883C69.4866 116.577 70.4216 117.082 70.7806 118.013C71.1361 118.948 70.7806 119.951 69.9914 120.257L62.3338 123.211Z" fill="#FFCC90"/>
<path d="M62.8603 123.005L70.0344 120.253C70.2122 120.181 70.3733 120.074 70.5072 119.937L62.743 122.425C62.7308 122.43 62.7189 122.436 62.7075 122.443C62.4885 122.522 62.2939 122.657 62.1422 122.834L58.125 128.145C58.445 128.085 58.2956 128.309 58.5054 128.053L62.8603 123.005Z" fill="#F6B968"/>
<path d="M60.7462 130.114C60.2343 130.651 59.3028 130.598 58.67 129.997C58.0372 129.393 57.9413 128.465 58.4567 127.928L63.416 122.727C63.9315 122.19 64.8629 122.244 65.4922 122.844C66.125 123.449 66.221 124.377 65.709 124.917L60.7462 130.114Z" fill="#FFCC90"/>
<path d="M64.9911 125.337C64.2801 125.529 63.5051 124.981 63.2847 124.149C63.0607 123.303 63.4624 122.464 64.1841 122.272L71.1307 120.441C71.8417 120.249 72.6167 120.797 72.8406 121.629C73.061 122.475 72.6593 123.314 71.9376 123.502L64.9911 125.337Z" fill="#FFCC90"/>
<path d="M65.3917 125.23L71.9365 123.502C72.1676 123.445 71.5028 123.502 71.2255 123.502C69.9386 123.538 65.1606 124.875 65.0184 125.003L60.8945 129.525C60.8945 129.525 61.0936 129.72 61.25 129.578L65.3917 125.23Z" fill="#F6B968"/>
<path d="M62.9254 132.248C62.6571 132.463 62.3151 132.563 61.9731 132.528C61.6312 132.493 61.3168 132.324 61.0981 132.059C60.8431 131.828 60.6893 131.505 60.67 131.161C60.6507 130.818 60.7675 130.48 60.995 130.221L65.5881 125.849C65.8565 125.633 66.199 125.532 66.5413 125.568C66.8835 125.604 67.1977 125.774 67.4154 126.041C67.6702 126.271 67.8239 126.593 67.8432 126.937C67.8625 127.28 67.7458 127.617 67.5185 127.875L62.9254 132.248Z" fill="#FFCC90"/>
<path d="M66.7848 128.287C66.1484 128.454 65.4765 127.982 65.281 127.221C65.1697 126.895 65.1917 126.538 65.3422 126.229C65.4927 125.919 65.7595 125.682 66.0844 125.568L72.2311 123.975C72.5719 123.917 72.9217 123.997 73.2036 124.197C73.4855 124.397 73.6766 124.701 73.7349 125.042C73.8452 125.367 73.8227 125.724 73.6724 126.033C73.522 126.342 73.2558 126.58 72.9314 126.695L66.7848 128.287Z" fill="#FFCC90"/>
<path d="M65.4128 116.3C65.5154 116.401 65.5964 116.522 65.651 116.656C65.7047 116.786 65.7313 116.927 65.7292 117.068C65.2244 117.278 64.4672 117.594 64.1152 117.569C64.059 117.572 64.0032 117.557 63.9559 117.527C63.9087 117.496 63.8723 117.451 63.8521 117.399C63.8309 117.346 63.8264 117.288 63.8391 117.233C63.8518 117.177 63.8812 117.127 63.9232 117.089C64.1472 116.816 64.9116 116.51 65.4128 116.3Z" fill="#FFE0BC"/>
<path d="M69.1408 117.011C69.2662 117.148 69.3672 117.306 69.4394 117.477C69.5084 117.649 69.548 117.832 69.5567 118.017C68.9844 118.255 68.1347 118.614 67.7223 118.554C67.6513 118.551 67.5828 118.526 67.5258 118.484C67.4688 118.441 67.4258 118.383 67.4024 118.316C67.374 118.251 67.3647 118.179 67.3754 118.11C67.3861 118.04 67.4164 117.974 67.4628 117.921C67.7117 117.594 68.572 117.246 69.1408 117.011Z" fill="#FFE0BC"/>
<path d="M71.372 120.434C71.5096 120.642 71.6195 120.866 71.699 121.102C71.7782 121.339 71.8272 121.586 71.8448 121.835C71.2547 122.03 70.3837 122.336 69.9535 122.19C69.8682 122.162 69.7911 122.113 69.7291 122.048C69.6671 121.983 69.6221 121.904 69.598 121.817C69.5656 121.735 69.5529 121.647 69.5609 121.559C69.569 121.471 69.5975 121.387 69.6442 121.312C69.9037 120.918 70.7854 120.633 71.372 120.434Z" fill="#FFE0BC"/>
<path d="M72.7 124.153C72.8248 124.361 72.9216 124.585 72.9879 124.818C73.0537 125.049 73.0884 125.288 73.091 125.529C72.4938 125.7 71.6086 125.959 71.1891 125.792C71.1088 125.76 71.0376 125.71 70.9817 125.644C70.9259 125.578 70.8872 125.499 70.8691 125.415C70.8409 125.333 70.8329 125.246 70.8459 125.161C70.8589 125.075 70.8925 124.994 70.9438 124.925C71.2104 124.569 72.1063 124.324 72.7 124.153Z" fill="#FFE0BC"/>
<path d="M58.782 120.189C58.7999 120.159 58.8061 120.123 58.7996 120.088C58.793 120.053 58.7742 120.022 58.7464 120.001L58.0354 119.322C58.0142 119.294 57.9832 119.275 57.9487 119.27C57.9143 119.265 57.8791 119.273 57.8506 119.293C57.8311 119.323 57.8239 119.359 57.8305 119.394C57.8372 119.43 57.8571 119.461 57.8861 119.481L58.5971 120.161C58.6188 120.187 58.6498 120.205 58.684 120.211C58.7183 120.216 58.7532 120.208 58.782 120.189Z" fill="#FFE0BC"/>
<path d="M59.0996 119.858C59.1172 119.829 59.1233 119.793 59.1168 119.759C59.1102 119.725 59.0915 119.695 59.064 119.674L58.353 118.995C58.3318 118.967 58.3007 118.949 58.2663 118.943C58.2318 118.938 58.1967 118.946 58.1681 118.966C58.1483 118.996 58.1405 119.032 58.1465 119.067C58.1524 119.102 58.1717 119.133 58.2001 119.155L58.9111 119.834C58.9335 119.861 58.9654 119.879 59.0004 119.883C59.0354 119.888 59.0709 119.879 59.0996 119.858Z" fill="#FFE0BC"/>
<path d="M61.0815 121.717C61.1038 121.693 61.1161 121.662 61.1161 121.629C61.1161 121.596 61.1038 121.564 61.0815 121.54L60.5411 120.846C60.5242 120.818 60.4967 120.798 60.4647 120.79C60.4327 120.782 60.3988 120.787 60.3705 120.804C60.3483 120.828 60.3359 120.86 60.3359 120.893C60.3359 120.926 60.3483 120.957 60.3705 120.982L60.9073 121.675C60.9249 121.702 60.9524 121.722 60.9841 121.73C61.0159 121.738 61.0495 121.734 61.078 121.717H61.0815Z" fill="#FFE0BC"/>
<path d="M61.4412 121.437C61.4643 121.413 61.4771 121.381 61.4771 121.348C61.4771 121.315 61.4643 121.283 61.4412 121.259L60.9044 120.566C60.8868 120.538 60.8593 120.518 60.8276 120.51C60.7959 120.502 60.7623 120.507 60.7338 120.523C60.7116 120.547 60.6992 120.579 60.6992 120.612C60.6992 120.645 60.7116 120.677 60.7338 120.701L61.2742 121.412C61.2918 121.439 61.3193 121.459 61.351 121.467C61.3827 121.475 61.4163 121.471 61.4448 121.454L61.4412 121.437Z" fill="#FFE0BC"/>
<path d="M66.1747 120.022C66.1978 119.998 66.2106 119.966 66.2106 119.933C66.2106 119.9 66.1978 119.868 66.1747 119.844L65.6913 119.112C65.6754 119.083 65.6493 119.062 65.6183 119.052C65.5872 119.042 65.5536 119.045 65.5242 119.059C65.5012 119.083 65.4883 119.114 65.4883 119.148C65.4883 119.181 65.5012 119.213 65.5242 119.236L66.0077 119.969C66.0241 119.997 66.0502 120.017 66.081 120.027C66.1118 120.037 66.1452 120.035 66.1747 120.022Z" fill="#FFD6A6"/>
<path d="M66.5494 119.769C66.5724 119.745 66.5853 119.714 66.5853 119.68C66.5853 119.647 66.5724 119.615 66.5494 119.592L66.0659 118.859C66.0508 118.83 66.0247 118.808 65.9934 118.798C65.9621 118.788 65.9281 118.791 65.8989 118.806C65.8761 118.829 65.8633 118.86 65.8633 118.893C65.8633 118.926 65.8761 118.957 65.8989 118.98L66.3823 119.712C66.3976 119.742 66.4234 119.764 66.4545 119.774C66.4856 119.785 66.5196 119.783 66.5494 119.769Z" fill="#FFD6A6"/>
<path d="M68.5755 122.848C68.6012 122.828 68.6181 122.798 68.6227 122.766C68.6273 122.733 68.6193 122.7 68.6004 122.674L68.1667 121.913C68.1534 121.883 68.129 121.859 68.0985 121.846C68.068 121.834 68.0339 121.833 68.0032 121.845C67.9765 121.866 67.959 121.896 67.9544 121.929C67.9497 121.962 67.9583 121.996 67.9783 122.023L68.412 122.784C68.4253 122.814 68.4499 122.838 68.4806 122.85C68.5112 122.862 68.5454 122.861 68.5755 122.848Z" fill="#FFD6A6"/>
<path d="M68.9685 122.621C68.9947 122.601 69.0123 122.572 69.0176 122.539C69.0229 122.507 69.0155 122.474 68.997 122.446L68.5633 121.686C68.55 121.656 68.5254 121.632 68.4947 121.62C68.4641 121.608 68.4299 121.609 68.3997 121.622C68.3864 121.631 68.3751 121.643 68.3664 121.657C68.3577 121.671 68.3519 121.687 68.3493 121.703C68.3466 121.719 68.3472 121.736 68.351 121.752C68.3548 121.768 68.3617 121.783 68.3713 121.796L68.805 122.557C68.8183 122.587 68.8429 122.61 68.8736 122.622C68.9042 122.634 68.9384 122.634 68.9685 122.621Z" fill="#FFD6A6"/>
<path d="M69.8477 126.161C69.8743 126.142 69.8927 126.113 69.8993 126.081C69.9059 126.049 69.9002 126.015 69.8832 125.987L69.4851 125.205C69.4718 125.176 69.4479 125.152 69.4183 125.14C69.3886 125.127 69.3554 125.127 69.3251 125.137C69.2977 125.156 69.2787 125.185 69.2721 125.217C69.2655 125.25 69.2717 125.284 69.2895 125.312L69.6877 126.094C69.7004 126.124 69.7237 126.148 69.7533 126.162C69.7829 126.176 69.8165 126.178 69.8477 126.168V126.161Z" fill="#FFD6A6"/>
<path d="M70.2514 125.951C70.278 125.932 70.2964 125.904 70.303 125.871C70.3096 125.839 70.3039 125.806 70.2869 125.777L69.8887 124.995C69.8768 124.965 69.8533 124.94 69.8234 124.927C69.7934 124.913 69.7594 124.912 69.7288 124.924C69.7149 124.933 69.7029 124.945 69.6936 124.958C69.6842 124.972 69.6777 124.987 69.6744 125.004C69.6711 125.02 69.671 125.037 69.6743 125.053C69.6775 125.069 69.6839 125.085 69.6932 125.098L70.0914 125.877C70.0969 125.892 70.1055 125.906 70.1166 125.919C70.1276 125.931 70.141 125.941 70.1558 125.947C70.1707 125.954 70.1868 125.958 70.2032 125.959C70.2196 125.96 70.236 125.957 70.2514 125.951Z" fill="#FFD6A6"/>
<path d="M62.5226 118.276C62.545 118.261 62.5608 118.238 62.5667 118.211C62.5726 118.185 62.5683 118.157 62.5546 118.134L62.1991 117.636C62.1798 117.617 62.1536 117.606 62.1262 117.606C62.0989 117.606 62.0727 117.617 62.0534 117.636C62.0316 117.652 62.0164 117.675 62.0105 117.701C62.0046 117.727 62.0085 117.755 62.0214 117.778L62.3769 118.276C62.3966 118.295 62.4227 118.305 62.4497 118.305C62.4768 118.305 62.5029 118.295 62.5226 118.276Z" fill="#FFD6A6"/>
<path d="M62.89 118.006C62.9129 117.991 62.9294 117.968 62.936 117.942C62.9427 117.916 62.9389 117.888 62.9255 117.864L62.57 117.366C62.5507 117.347 62.5245 117.336 62.4971 117.336C62.4698 117.336 62.4436 117.347 62.4243 117.366C62.4013 117.381 62.3848 117.404 62.3782 117.43C62.3716 117.457 62.3753 117.485 62.3887 117.508L62.7442 118.002C62.7535 118.012 62.7645 118.019 62.7768 118.025C62.789 118.03 62.8021 118.032 62.8153 118.032C62.8286 118.032 62.8417 118.03 62.8539 118.025C62.8661 118.019 62.8771 118.012 62.8864 118.002L62.89 118.006Z" fill="#FFD6A6"/>
<path d="M57.1157 127.982C57.1295 127.952 57.132 127.918 57.1229 127.887C57.1137 127.855 57.0935 127.828 57.0659 127.811L56.3549 127.313C56.3317 127.29 56.3004 127.278 56.2678 127.278C56.2353 127.278 56.204 127.29 56.1807 127.313C56.1665 127.343 56.1641 127.377 56.174 127.409C56.1838 127.441 56.2053 127.467 56.2341 127.484L56.9451 127.982C56.9683 128.004 56.9996 128.017 57.0322 128.017C57.0647 128.017 57.096 128.004 57.1193 127.982H57.1157Z" fill="#FFD6A6"/>
<path d="M57.369 127.626C57.3843 127.597 57.3876 127.564 57.3783 127.532C57.369 127.501 57.3478 127.475 57.3192 127.459L56.6082 126.961C56.5967 126.95 56.5828 126.94 56.5676 126.934C56.5523 126.927 56.5359 126.924 56.5194 126.924C56.5028 126.924 56.4864 126.927 56.4712 126.934C56.4559 126.94 56.4421 126.95 56.4305 126.961C56.4164 126.991 56.4141 127.024 56.424 127.056C56.4339 127.087 56.4553 127.113 56.4838 127.129L57.1948 127.63C57.2061 127.641 57.2196 127.651 57.2346 127.657C57.2496 127.664 57.2657 127.667 57.2819 127.667C57.2982 127.667 57.3143 127.664 57.3292 127.657C57.3442 127.651 57.3577 127.641 57.369 127.63V127.626Z" fill="#FFD6A6"/>
<path d="M59.8643 129.535C59.8767 129.504 59.8769 129.47 59.8651 129.439C59.8532 129.408 59.8301 129.383 59.8003 129.368L59.0431 128.924C59.0167 128.904 58.9835 128.896 58.9508 128.9C58.9181 128.905 58.8887 128.922 58.8689 128.949C58.8565 128.979 58.8562 129.014 58.8681 129.045C58.8799 129.076 58.9031 129.101 58.9329 129.116L59.6901 129.56C59.7171 129.578 59.7498 129.586 59.782 129.581C59.8141 129.577 59.8434 129.56 59.8643 129.535Z" fill="#FFD6A6"/>
<path d="M60.0828 129.141C60.0944 129.11 60.0942 129.076 60.0824 129.045C60.0707 129.014 60.048 128.989 60.0188 128.974L59.2616 128.533C59.2352 128.513 59.202 128.505 59.1693 128.509C59.1367 128.514 59.1072 128.531 59.0874 128.558C59.0752 128.588 59.075 128.622 59.0869 128.652C59.0988 128.683 59.1219 128.707 59.1514 128.721L59.9086 129.166C59.935 129.186 59.9682 129.194 60.0009 129.189C60.0335 129.185 60.063 129.167 60.0828 129.141Z" fill="#FFD6A6"/>
<path d="M62.8803 131.028C62.8905 131.006 62.8918 130.98 62.8839 130.956C62.876 130.932 62.8595 130.912 62.8376 130.9L62.2617 130.545C62.2437 130.527 62.2194 130.517 62.1941 130.517C62.1688 130.517 62.1446 130.527 62.1266 130.545C62.1155 130.568 62.1142 130.595 62.1228 130.62C62.1315 130.645 62.1494 130.665 62.1728 130.676L62.7452 131.032C62.7631 131.05 62.7874 131.06 62.8127 131.06C62.838 131.06 62.8623 131.05 62.8803 131.032V131.028Z" fill="#FFD6A6"/>
<path d="M63.0713 130.73C63.0813 130.707 63.0821 130.681 63.0735 130.657C63.0649 130.633 63.0476 130.613 63.0251 130.602L62.4527 130.246C62.4342 130.228 62.4093 130.218 62.3834 130.218C62.3575 130.218 62.3327 130.228 62.3141 130.246C62.303 130.27 62.3017 130.297 62.3103 130.322C62.319 130.346 62.3369 130.366 62.3603 130.378L62.9327 130.733C62.9516 130.751 62.9763 130.76 63.002 130.76C63.0276 130.76 63.0523 130.751 63.0713 130.733V130.73Z" fill="#FFD6A6"/>
<path d="M53.9996 126.115C54.0189 126.096 54.0298 126.07 54.0298 126.042C54.0298 126.015 54.0189 125.989 53.9996 125.969L53.5161 125.614C53.493 125.599 53.4651 125.594 53.4384 125.6C53.4117 125.606 53.3885 125.623 53.3739 125.646C53.3546 125.665 53.3438 125.691 53.3438 125.719C53.3438 125.746 53.3546 125.772 53.3739 125.792L53.8574 126.147C53.8808 126.161 53.9084 126.165 53.9348 126.159C53.9612 126.153 53.9844 126.138 53.9996 126.115Z" fill="#FFD6A6"/>
<path d="M54.2731 125.749C54.2924 125.73 54.3032 125.703 54.3032 125.676C54.3032 125.649 54.2924 125.623 54.2731 125.603L53.7896 125.248C53.7785 125.24 53.7659 125.234 53.7526 125.231C53.7394 125.229 53.7256 125.229 53.7123 125.231C53.699 125.234 53.6864 125.239 53.6752 125.247C53.664 125.255 53.6545 125.265 53.6474 125.276C53.628 125.295 53.6172 125.322 53.6172 125.349C53.6172 125.376 53.628 125.403 53.6474 125.422L54.1344 125.777C54.1456 125.785 54.158 125.789 54.1711 125.792C54.1842 125.794 54.1975 125.794 54.2105 125.791C54.2234 125.788 54.2356 125.782 54.2463 125.774C54.2571 125.767 54.2661 125.757 54.2731 125.745V125.749Z" fill="#FFD6A6"/>
<path d="M64.26 123.808C64.283 123.784 64.2959 123.752 64.2959 123.719C64.2959 123.686 64.283 123.654 64.26 123.63L63.7694 122.919C63.7542 122.89 63.7281 122.868 63.6968 122.858C63.6655 122.848 63.6315 122.851 63.6023 122.866C63.5793 122.89 63.5664 122.922 63.5664 122.955C63.5664 122.988 63.5793 123.02 63.6023 123.044L64.0929 123.755C64.1081 123.784 64.1341 123.806 64.1654 123.816C64.1967 123.826 64.2307 123.823 64.26 123.808Z" fill="#FFE0BC"/>
<path d="M64.6346 123.552C64.6569 123.528 64.6692 123.496 64.6692 123.463C64.6692 123.43 64.6569 123.399 64.6346 123.374L64.144 122.663C64.1282 122.634 64.1015 122.612 64.0696 122.602C64.0377 122.592 64.0032 122.595 63.9734 122.61C63.9504 122.634 63.9375 122.666 63.9375 122.699C63.9375 122.732 63.9504 122.764 63.9734 122.788L64.4675 123.499C64.4827 123.528 64.5088 123.55 64.5401 123.56C64.5714 123.57 64.6054 123.567 64.6346 123.552Z" fill="#FFE0BC"/>
<path d="M66.3579 127.192C66.3711 127.182 66.3822 127.17 66.3905 127.156C66.3988 127.142 66.404 127.126 66.406 127.11C66.408 127.093 66.4067 127.077 66.4021 127.061C66.3975 127.045 66.3897 127.031 66.3792 127.018L65.9242 126.268C65.911 126.24 65.8875 126.217 65.8585 126.205C65.8295 126.193 65.7971 126.193 65.7678 126.204C65.7546 126.214 65.7435 126.226 65.7352 126.24C65.7269 126.254 65.7216 126.27 65.7196 126.286C65.7176 126.303 65.719 126.319 65.7236 126.335C65.7282 126.351 65.736 126.365 65.7464 126.378L66.2015 127.128C66.2154 127.158 66.2403 127.181 66.2709 127.192C66.3015 127.203 66.3353 127.202 66.365 127.189L66.3579 127.192Z" fill="#FFE0BC"/>
<path d="M66.7478 126.954C66.7729 126.933 66.7891 126.903 66.7931 126.871C66.797 126.839 66.7885 126.806 66.7692 126.78L66.3141 126.03C66.3002 126 66.2753 125.977 66.2447 125.966C66.2141 125.955 66.1803 125.956 66.1506 125.969C66.1374 125.979 66.1263 125.991 66.118 126.005C66.1098 126.02 66.1045 126.035 66.1025 126.052C66.1005 126.068 66.1018 126.085 66.1064 126.1C66.111 126.116 66.1188 126.131 66.1293 126.143L66.5843 126.893C66.5982 126.923 66.6231 126.946 66.6537 126.957C66.6843 126.968 66.7181 126.967 66.7478 126.954Z" fill="#FFE0BC"/>
<path d="M100.963 124.914L103.242 127.91C103.242 127.91 96.754 138.86 96.4483 139.55V147.815H87.6211L89.0431 140.652C89.0431 140.652 86.9101 133.567 90.3229 131.274C94.8485 128.252 100.963 124.914 100.963 124.914Z" fill="#FFCC90"/>
<path d="M85.582 148.672H97.8505V143.215L85.582 143.702V148.672Z" fill="white"/>
<path d="M98.6912 126.801C99.1711 127.381 100.113 127.392 100.792 126.823C101.471 126.258 100.963 124.914 100.963 124.914L96.4977 119.179C96.0142 118.603 95.0757 118.593 94.3967 119.158C93.7177 119.723 93.5577 120.651 94.0412 121.231L98.6912 126.801Z" fill="#FFCC90"/>
<path d="M94.8153 121.803C95.5263 122.073 96.3439 121.625 96.6639 120.8C96.9803 119.975 96.6639 119.087 95.9529 118.816L89.1805 116.207C88.4695 115.937 87.6518 116.385 87.3355 117.21C87.0155 118.034 87.3354 118.92 88.0287 119.193L94.8153 121.803Z" fill="#FFCC90"/>
<path d="M93.3357 120.132L85.8274 117.288C85.5703 117.188 85.348 117.015 85.1875 116.79C85.1875 116.79 93.9507 119.688 94.1036 119.883C95.4012 121.54 99.1197 126.574 99.1197 126.574C98.8593 126.497 98.6262 126.348 98.4478 126.144L93.3357 120.132Z" fill="#F6B968"/>
<path d="M96.3413 128.867C96.8888 129.521 97.9517 129.532 98.7196 128.892C99.4875 128.248 99.6688 127.2 99.1213 126.549L93.8528 120.246C93.3053 119.592 92.2423 119.581 91.4744 120.221C90.7065 120.861 90.5288 121.91 91.0727 122.564L96.3413 128.867Z" fill="#FFCC90"/>
<path d="M91.9559 123.211C92.7522 123.517 93.6872 123.008 94.0463 122.077C94.4018 121.145 94.0463 120.139 93.257 119.834L85.5995 116.883C84.8031 116.577 83.8682 117.082 83.5091 118.013C83.1536 118.948 83.5091 119.951 84.2983 120.257L91.9559 123.211Z" fill="#FFCC90"/>
<path d="M91.4282 123.005L84.2541 120.253C84.0762 120.181 83.9152 120.074 83.7812 119.937L91.5455 122.425L91.581 122.443C91.7999 122.522 91.9946 122.657 92.1463 122.834L96.1528 128.149C95.8329 128.088 95.9822 128.312 95.7724 128.056L91.4282 123.005Z" fill="#F6B968"/>
<path d="M93.5403 130.114C94.0558 130.651 94.9872 130.598 95.62 129.997C96.2528 129.393 96.331 128.465 95.8333 127.928L90.874 122.727C90.3585 122.19 89.4271 122.244 88.7943 122.844C88.1651 123.449 88.0833 124.377 88.581 124.917L93.5403 130.114Z" fill="#FFCC90"/>
<path d="M89.2979 125.337C90.009 125.529 90.7804 124.981 91.0044 124.149C91.2283 123.303 90.8231 122.464 90.1049 122.272L83.1584 120.441C82.4474 120.249 81.6724 120.797 81.4484 121.629C81.2244 122.475 81.6297 123.314 82.3514 123.502L89.2979 125.337Z" fill="#FFCC90"/>
<path d="M88.8976 125.23L82.3528 123.502C82.1217 123.445 82.783 123.502 83.0638 123.502C84.3543 123.538 89.1287 124.875 89.2745 125.003L93.3948 129.525C93.3948 129.525 93.1992 129.72 93.0393 129.578L88.8976 125.23Z" fill="#F6B968"/>
<path d="M91.3653 132.248C91.6336 132.463 91.9756 132.564 92.3176 132.528C92.6595 132.493 92.9739 132.325 93.1926 132.06C93.4476 131.828 93.6014 131.506 93.6207 131.162C93.64 130.818 93.5232 130.48 93.2957 130.222L88.7026 125.849C88.4337 125.633 88.0905 125.532 87.7477 125.568C87.4049 125.604 87.0901 125.774 86.8717 126.041C86.6183 126.273 86.4659 126.595 86.4472 126.938C86.4286 127.281 86.5453 127.617 86.7722 127.875L91.3653 132.248Z" fill="#FFCC90"/>
<path d="M87.5045 128.287C88.1409 128.454 88.8128 127.982 89.0083 127.221C89.1196 126.895 89.0976 126.538 88.9471 126.229C88.7966 125.919 88.5298 125.682 88.2049 125.568L82.0582 123.975C81.7174 123.917 81.3676 123.997 81.0857 124.197C80.8037 124.397 80.6127 124.701 80.5544 125.042C80.4431 125.367 80.4651 125.724 80.6156 126.034C80.7661 126.343 81.0329 126.581 81.3579 126.695L87.5045 128.287Z" fill="#FFCC90"/>
<path d="M88.8751 116.3C88.7725 116.401 88.6915 116.522 88.6369 116.656C88.5832 116.786 88.5566 116.927 88.5587 117.068C89.0635 117.278 89.8172 117.594 90.1692 117.569C90.2259 117.572 90.2822 117.558 90.3301 117.527C90.3779 117.496 90.4149 117.451 90.4358 117.399C90.456 117.346 90.46 117.288 90.4474 117.233C90.4347 117.178 90.4059 117.128 90.3647 117.089C90.1372 116.816 89.3799 116.51 88.8751 116.3Z" fill="#FFE0BC"/>
<path d="M85.1468 117.011C85.0218 117.148 84.9219 117.305 84.8517 117.477C84.7807 117.648 84.741 117.831 84.7344 118.017C85.3067 118.255 86.1564 118.614 86.5688 118.554C86.6398 118.551 86.7083 118.526 86.7653 118.484C86.8223 118.441 86.8653 118.383 86.8887 118.316C86.917 118.251 86.9264 118.179 86.9157 118.11C86.905 118.04 86.8747 117.974 86.8283 117.921C86.5794 117.594 85.7191 117.246 85.1468 117.011Z" fill="#FFE0BC"/>
<path d="M82.9181 120.434C82.7805 120.642 82.6706 120.866 82.5911 121.102C82.5119 121.339 82.463 121.586 82.4453 121.835C83.0355 122.03 83.9064 122.336 84.3366 122.19C84.4226 122.163 84.5003 122.115 84.5624 122.049C84.6246 121.984 84.6692 121.904 84.6921 121.817C84.7248 121.735 84.7374 121.646 84.7288 121.559C84.7201 121.471 84.6905 121.386 84.6423 121.312C84.3864 120.918 83.5047 120.633 82.9181 120.434Z" fill="#FFE0BC"/>
<path d="M81.5864 124.153C81.4615 124.361 81.3647 124.585 81.2984 124.818C81.2326 125.049 81.198 125.288 81.1953 125.529C81.7926 125.7 82.6778 125.959 83.0973 125.792C83.1776 125.76 83.2488 125.71 83.3046 125.644C83.3604 125.578 83.3991 125.499 83.4172 125.415C83.4455 125.333 83.4534 125.246 83.4404 125.161C83.4274 125.075 83.3938 124.994 83.3426 124.925C83.0759 124.569 82.1801 124.324 81.5864 124.153Z" fill="#FFE0BC"/>
<path d="M95.5068 120.189C95.4873 120.159 95.4802 120.123 95.4868 120.088C95.4934 120.052 95.5133 120.021 95.5424 120.001L96.2534 119.322C96.2746 119.294 96.3056 119.275 96.3401 119.27C96.3745 119.265 96.4097 119.273 96.4382 119.293C96.4809 119.339 96.4631 119.421 96.4027 119.481L95.6917 120.161C95.6277 120.217 95.5459 120.232 95.5033 120.189H95.5068Z" fill="#FFE0BC"/>
<path d="M95.1877 119.858C95.1701 119.829 95.164 119.793 95.1705 119.759C95.1771 119.725 95.1958 119.695 95.2233 119.674L95.9343 118.995C95.9555 118.967 95.9865 118.949 96.021 118.943C96.0554 118.938 96.0906 118.946 96.1191 118.966C96.139 118.996 96.1468 119.032 96.1408 119.067C96.1348 119.102 96.1156 119.133 96.0871 119.155L95.3761 119.834C95.3121 119.89 95.2304 119.905 95.1877 119.858Z" fill="#FFE0BC"/>
<path d="M93.2025 121.718C93.1803 121.693 93.168 121.662 93.168 121.629C93.168 121.596 93.1803 121.564 93.2025 121.54L93.7429 120.847C93.751 120.833 93.7617 120.821 93.7745 120.811C93.7873 120.801 93.802 120.794 93.8175 120.79C93.8331 120.786 93.8492 120.786 93.8651 120.788C93.881 120.79 93.8963 120.796 93.91 120.804C93.933 120.828 93.9459 120.86 93.9459 120.893C93.9459 120.926 93.933 120.958 93.91 120.982L93.3696 121.675C93.352 121.703 93.3245 121.722 93.2928 121.73C93.2611 121.738 93.2275 121.734 93.199 121.718H93.2025Z" fill="#FFE0BC"/>
<path d="M92.8459 121.437C92.8341 121.425 92.8247 121.411 92.8183 121.396C92.8119 121.381 92.8086 121.364 92.8086 121.348C92.8086 121.331 92.8119 121.315 92.8183 121.3C92.8247 121.284 92.8341 121.271 92.8459 121.259L93.3828 120.566C93.4004 120.538 93.4279 120.518 93.4596 120.51C93.4913 120.502 93.5249 120.507 93.5534 120.523C93.5764 120.547 93.5893 120.579 93.5893 120.612C93.5893 120.645 93.5764 120.677 93.5534 120.701L93.0166 121.412C92.999 121.439 92.9715 121.459 92.9397 121.467C92.908 121.475 92.8745 121.471 92.8459 121.454V121.437Z" fill="#FFE0BC"/>
<path d="M88.114 120.022C88.091 119.998 88.0781 119.966 88.0781 119.933C88.0781 119.9 88.091 119.868 88.114 119.844L88.5975 119.112C88.6133 119.083 88.6394 119.062 88.6705 119.052C88.7015 119.042 88.7352 119.045 88.7646 119.059C88.7876 119.083 88.8005 119.114 88.8005 119.148C88.8005 119.181 88.7876 119.213 88.7646 119.236L88.2811 119.969C88.2647 119.997 88.2386 120.017 88.2077 120.027C88.1769 120.037 88.1436 120.035 88.114 120.022Z" fill="#FFD6A6"/>
<path d="M87.739 119.769C87.716 119.745 87.7031 119.714 87.7031 119.68C87.7031 119.647 87.716 119.615 87.739 119.592L88.2225 118.859C88.2377 118.83 88.2638 118.808 88.2951 118.798C88.3264 118.788 88.3603 118.791 88.3896 118.806C88.4124 118.829 88.4252 118.86 88.4252 118.893C88.4252 118.926 88.4124 118.957 88.3896 118.98L87.9061 119.712C87.8909 119.742 87.865 119.764 87.8339 119.774C87.8028 119.785 87.7688 119.783 87.739 119.769Z" fill="#FFD6A6"/>
<path d="M85.7125 122.848C85.6868 122.828 85.67 122.798 85.6653 122.766C85.6607 122.733 85.6687 122.7 85.6876 122.674L86.1213 121.913C86.1346 121.883 86.1591 121.859 86.1895 121.846C86.22 121.834 86.2541 121.833 86.2848 121.845C86.3115 121.866 86.329 121.896 86.3337 121.929C86.3383 121.962 86.3297 121.996 86.3097 122.023L85.876 122.784C85.8628 122.814 85.8381 122.838 85.8075 122.85C85.7768 122.862 85.7427 122.861 85.7125 122.848Z" fill="#FFD6A6"/>
<path d="M85.3203 122.621C85.2941 122.601 85.2765 122.572 85.2712 122.539C85.2659 122.507 85.2733 122.474 85.2918 122.446L85.7255 121.686C85.7388 121.656 85.7634 121.632 85.7941 121.62C85.8247 121.608 85.8589 121.609 85.8891 121.622C85.9153 121.641 85.9328 121.671 85.9381 121.703C85.9434 121.735 85.936 121.769 85.9175 121.796L85.4802 122.557C85.4744 122.572 85.4656 122.585 85.4542 122.597C85.4429 122.609 85.4293 122.618 85.4142 122.624C85.3992 122.63 85.3831 122.632 85.3669 122.632C85.3508 122.631 85.3349 122.628 85.3203 122.621Z" fill="#FFD6A6"/>
<path d="M84.4423 126.161C84.4149 126.143 84.3959 126.114 84.3893 126.081C84.3827 126.049 84.3889 126.015 84.4067 125.987L84.8049 125.205C84.8182 125.176 84.842 125.152 84.8717 125.14C84.9013 125.127 84.9346 125.127 84.9649 125.137C84.9922 125.156 85.0112 125.185 85.0178 125.217C85.0244 125.25 85.0182 125.284 85.0004 125.312L84.6022 126.094C84.5896 126.124 84.5662 126.148 84.5366 126.162C84.5071 126.176 84.4734 126.178 84.4423 126.168V126.161Z" fill="#FFD6A6"/>
<path d="M84.0387 125.951C84.012 125.932 83.9936 125.904 83.987 125.871C83.9805 125.839 83.9862 125.806 84.0031 125.777L84.4013 124.995C84.4132 124.965 84.4367 124.94 84.4667 124.927C84.4966 124.913 84.5306 124.912 84.5613 124.924C84.5752 124.933 84.5872 124.945 84.5965 124.958C84.6058 124.972 84.6124 124.987 84.6157 125.004C84.619 125.02 84.619 125.037 84.6158 125.053C84.6125 125.069 84.6061 125.085 84.5968 125.098L84.1987 125.877C84.1867 125.907 84.1634 125.932 84.1336 125.946C84.1038 125.96 84.0698 125.962 84.0387 125.951Z" fill="#FFD6A6"/>
<path d="M91.7654 118.276C91.7431 118.261 91.7273 118.238 91.7214 118.212C91.7154 118.185 91.7197 118.158 91.7334 118.134L92.0889 117.637C92.0982 117.627 92.1093 117.62 92.1215 117.614C92.1337 117.609 92.1468 117.607 92.16 117.607C92.1733 117.607 92.1864 117.609 92.1986 117.614C92.2108 117.62 92.2219 117.627 92.2311 117.637C92.2541 117.651 92.2706 117.674 92.2772 117.701C92.2838 117.727 92.2801 117.755 92.2667 117.779L91.9112 118.276C91.8914 118.295 91.8654 118.305 91.8383 118.305C91.8112 118.305 91.7852 118.295 91.7654 118.276Z" fill="#FFD6A6"/>
<path d="M91.4008 118.006C91.3778 117.991 91.3614 117.968 91.3547 117.942C91.3481 117.916 91.3519 117.888 91.3653 117.864L91.7208 117.366C91.7401 117.347 91.7663 117.336 91.7936 117.336C91.821 117.336 91.8472 117.347 91.8665 117.366C91.8896 117.381 91.906 117.404 91.912 117.431C91.918 117.457 91.9131 117.485 91.8985 117.508L91.543 118.002C91.5338 118.012 91.5227 118.019 91.5105 118.025C91.4983 118.03 91.4852 118.032 91.4719 118.032C91.4587 118.032 91.4456 118.03 91.4334 118.025C91.4212 118.019 91.4101 118.012 91.4008 118.002V118.006Z" fill="#FFD6A6"/>
<path d="M97.1748 127.982C97.1594 127.952 97.156 127.918 97.1653 127.886C97.1746 127.855 97.1958 127.828 97.2246 127.811L97.9356 127.313C97.9595 127.29 97.9914 127.278 98.0245 127.278C98.0577 127.278 98.0895 127.29 98.1134 127.313C98.1276 127.343 98.1301 127.378 98.1202 127.409C98.1103 127.441 98.0888 127.468 98.06 127.484L97.349 127.982C97.3258 128.005 97.2945 128.017 97.2619 128.017C97.2294 128.017 97.1981 128.005 97.1748 127.982Z" fill="#FFD6A6"/>
<path d="M96.9168 127.626C96.9015 127.597 96.8982 127.564 96.9075 127.532C96.9168 127.501 96.938 127.475 96.9666 127.459L97.6776 126.961C97.6892 126.95 97.703 126.94 97.7182 126.934C97.7335 126.927 97.7499 126.924 97.7665 126.924C97.783 126.924 97.7994 126.927 97.8147 126.934C97.8299 126.94 97.8437 126.95 97.8553 126.961C97.8694 126.991 97.8717 127.024 97.8618 127.056C97.8519 127.087 97.8305 127.113 97.802 127.129L97.091 127.63C97.0797 127.641 97.0662 127.651 97.0512 127.657C97.0363 127.664 97.0202 127.667 97.0039 127.667C96.9876 127.667 96.9715 127.664 96.9566 127.657C96.9416 127.651 96.9281 127.641 96.9168 127.63V127.626Z" fill="#FFD6A6"/>
<path d="M94.4235 129.535C94.4112 129.504 94.4109 129.47 94.4228 129.439C94.4346 129.408 94.4578 129.383 94.4875 129.368L95.2448 128.924C95.2712 128.904 95.3044 128.896 95.337 128.9C95.3697 128.905 95.3992 128.922 95.419 128.949C95.4313 128.979 95.4316 129.014 95.4198 129.045C95.4079 129.076 95.3848 129.101 95.355 129.116L94.5978 129.56C94.5708 129.578 94.538 129.586 94.5059 129.581C94.4737 129.577 94.4444 129.56 94.4235 129.535Z" fill="#FFD6A6"/>
<path d="M94.2087 129.141C94.1963 129.11 94.1961 129.076 94.2079 129.045C94.2198 129.014 94.2429 128.988 94.2727 128.974L95.0299 128.533C95.0563 128.513 95.0895 128.505 95.1222 128.509C95.1384 128.512 95.1539 128.517 95.168 128.525C95.182 128.534 95.1943 128.545 95.2041 128.558C95.2155 128.588 95.2152 128.622 95.2034 128.652C95.1916 128.682 95.1691 128.707 95.1401 128.721L94.3829 129.166C94.3565 129.186 94.3233 129.194 94.2907 129.189C94.258 129.185 94.2285 129.167 94.2087 129.141Z" fill="#FFD6A6"/>
<path d="M91.4072 131.028C91.3969 131.006 91.3956 130.98 91.4035 130.956C91.4114 130.932 91.428 130.912 91.4499 130.9L92.0258 130.545C92.0438 130.527 92.068 130.517 92.0933 130.517C92.1186 130.517 92.1429 130.527 92.1609 130.545C92.1719 130.568 92.1733 130.595 92.1646 130.62C92.156 130.645 92.138 130.665 92.1147 130.676L91.5423 131.032C91.5243 131.05 91.5 131.06 91.4747 131.06C91.4495 131.06 91.4252 131.05 91.4072 131.032V131.028Z" fill="#FFD6A6"/>
<path d="M91.219 130.73C91.209 130.707 91.2083 130.681 91.2169 130.657C91.2254 130.633 91.2427 130.613 91.2652 130.602L91.8376 130.246C91.8562 130.228 91.881 130.218 91.9069 130.218C91.9328 130.218 91.9577 130.228 91.9763 130.246C91.9873 130.27 91.9887 130.297 91.98 130.322C91.9714 130.346 91.9534 130.366 91.93 130.378L91.3577 130.733C91.3391 130.751 91.3142 130.762 91.2884 130.762C91.2625 130.762 91.2376 130.751 91.219 130.733V130.73Z" fill="#FFD6A6"/>
<path d="M100.288 126.115C100.269 126.096 100.258 126.07 100.258 126.042C100.258 126.015 100.269 125.989 100.288 125.969L100.771 125.614C100.795 125.599 100.823 125.594 100.849 125.6C100.876 125.606 100.899 125.623 100.914 125.646C100.933 125.665 100.944 125.691 100.944 125.719C100.944 125.746 100.933 125.772 100.914 125.792L100.43 126.147C100.407 126.161 100.379 126.165 100.353 126.159C100.326 126.153 100.303 126.138 100.288 126.115Z" fill="#FFD6A6"/>
<path d="M100.013 125.749C99.9947 125.729 99.9844 125.703 99.9844 125.676C99.9844 125.649 99.9947 125.623 100.013 125.603L100.497 125.248C100.508 125.24 100.52 125.234 100.534 125.231C100.547 125.229 100.561 125.229 100.574 125.231C100.587 125.234 100.6 125.239 100.611 125.247C100.622 125.255 100.632 125.265 100.639 125.276C100.658 125.295 100.669 125.322 100.669 125.349C100.669 125.376 100.658 125.403 100.639 125.422L100.152 125.777C100.129 125.792 100.101 125.797 100.074 125.791C100.047 125.785 100.024 125.768 100.01 125.745L100.013 125.749Z" fill="#FFD6A6"/>
<path d="M90.032 123.808C90.009 123.784 89.9961 123.752 89.9961 123.719C89.9961 123.686 90.009 123.654 90.032 123.63L90.5226 122.919C90.5377 122.89 90.5638 122.868 90.5951 122.858C90.6264 122.848 90.6604 122.851 90.6897 122.866C90.7127 122.89 90.7256 122.922 90.7256 122.955C90.7256 122.988 90.7127 123.02 90.6897 123.044L90.1991 123.755C90.1839 123.784 90.1578 123.806 90.1265 123.816C90.0952 123.826 90.0612 123.823 90.032 123.808Z" fill="#FFE0BC"/>
<path d="M89.6531 123.552C89.6301 123.528 89.6172 123.496 89.6172 123.463C89.6172 123.43 89.6301 123.398 89.6531 123.374L90.1437 122.663C90.1595 122.634 90.1863 122.612 90.2181 122.602C90.25 122.592 90.2845 122.595 90.3143 122.61C90.3373 122.634 90.3502 122.666 90.3502 122.699C90.3502 122.732 90.3373 122.764 90.3143 122.788L89.8237 123.499C89.8086 123.528 89.7825 123.55 89.7512 123.56C89.7199 123.57 89.6859 123.567 89.6566 123.552H89.6531Z" fill="#FFE0BC"/>
<path d="M87.9318 127.192C87.9186 127.182 87.9076 127.17 87.8993 127.156C87.891 127.142 87.8857 127.126 87.8837 127.11C87.8817 127.093 87.8831 127.077 87.8877 127.061C87.8923 127.045 87.9 127.031 87.9105 127.018L88.3656 126.268C88.3788 126.24 88.4022 126.217 88.4312 126.205C88.4602 126.193 88.4926 126.193 88.522 126.204C88.5471 126.225 88.5632 126.254 88.5672 126.287C88.5712 126.319 88.5626 126.352 88.5433 126.378L88.0883 127.128C88.0744 127.158 88.0494 127.181 88.0188 127.192C87.9883 127.203 87.9545 127.202 87.9247 127.189L87.9318 127.192Z" fill="#FFE0BC"/>
<path d="M87.5436 126.954C87.5178 126.934 87.501 126.904 87.497 126.872C87.493 126.839 87.5021 126.806 87.5223 126.78L87.9738 126.03C87.989 126.001 88.0147 125.979 88.0456 125.967C88.0765 125.956 88.1105 125.957 88.1409 125.97C88.1541 125.979 88.1652 125.992 88.1734 126.006C88.1817 126.02 88.187 126.036 88.189 126.052C88.191 126.068 88.1896 126.085 88.185 126.101C88.1804 126.116 88.1727 126.131 88.1622 126.144L87.7072 126.894C87.6933 126.923 87.6683 126.946 87.6377 126.958C87.6072 126.969 87.5734 126.968 87.5436 126.954Z" fill="#FFE0BC"/>
<path d="M101.146 147.378L82.6602 147.815L83.0939 154.798C89.2369 154.36 95.3057 153.191 101.171 151.314L101.146 147.378Z" fill="#DC624B"/>
<path d="M52.526 150.887C58.6012 152.952 64.9104 154.251 71.3073 154.755L71.8441 147.815H52.4727L52.526 150.887Z" fill="#DC624B"/>
<path d="M74.0921 66.8671L73.2816 66.9666C73.2436 66.6456 73.2222 66.3228 73.2176 65.9996C73.2182 65.3422 73.4029 64.6981 73.7508 64.1403C74.1084 63.555 74.6233 63.0819 75.2368 62.7752C75.9156 62.4383 76.6656 62.27 77.4232 62.2846C78.1482 62.2681 78.8664 62.4267 79.5171 62.7468C80.0881 63.0272 80.5659 63.4667 80.8929 64.0124C81.2185 64.5694 81.3845 65.2052 81.3728 65.8503C81.3787 66.4062 81.2723 66.9576 81.06 67.4714C80.8138 68.0261 80.4748 68.5346 80.0575 68.9752C79.4086 69.6079 78.7095 70.1869 77.9671 70.7065C76.6446 71.6948 75.6303 72.4118 74.924 72.8573H79.2576C79.5971 72.8872 79.9389 72.8385 80.2566 72.7151C80.3877 72.6144 80.4952 72.4861 80.5713 72.3392C80.6475 72.1924 80.6905 72.0307 80.6974 71.8655L80.7756 71.3891H81.4866L80.9178 74.514H80.3845L80.2957 74.1051H73.0078V73.3941L74.3445 72.3881C75.3541 71.6368 76.096 71.062 76.57 70.6639C77.2952 70.0735 77.9717 69.4255 78.5928 68.7264C78.9795 68.2956 79.2951 67.806 79.5278 67.2759C79.6986 66.8448 79.7854 66.3851 79.7837 65.9214C79.7964 65.566 79.7357 65.2118 79.6055 64.8809C79.4752 64.55 79.2781 64.2495 79.0265 63.9981C78.767 63.7461 78.4588 63.5496 78.1208 63.4207C77.7828 63.2917 77.422 63.233 77.0606 63.248C76.5217 63.239 75.9895 63.3675 75.5141 63.6213C75.067 63.8716 74.6979 64.2407 74.4476 64.6878C74.1892 65.1299 74.0541 65.6333 74.0565 66.1454C74.0518 66.335 74.0637 66.5756 74.0921 66.8671Z" fill="#F88B54"/>
</svg>
