<svg width="18" height="18" viewBox="0 0 18 18" fill="none" xmlns="http://www.w3.org/2000/svg">
<path d="M9.0027 0.786133C13.5391 0.786133 17.217 4.46399 17.217 9.00042C17.217 13.5368 13.5391 17.2147 9.0027 17.2147C7.63056 17.2147 6.30627 16.8776 5.12413 16.2433L1.90699 17.2097C1.75255 17.256 1.58846 17.2596 1.43213 17.2201C1.27581 17.1807 1.13309 17.0996 1.01912 16.9856C0.905153 16.8715 0.824191 16.7288 0.78483 16.5724C0.745468 16.4161 0.749176 16.252 0.79556 16.0976L1.76199 12.8811C1.12121 11.6881 0.786677 10.3546 0.788417 9.00042C0.788417 4.46399 4.46627 0.786133 9.0027 0.786133ZM9.0027 1.85756C5.0577 1.85756 1.85985 5.05542 1.85985 9.00042C1.85985 10.2647 2.18842 11.4804 2.80413 12.5526L2.91842 12.7526L1.91627 16.0883L5.25342 15.0861L5.45342 15.2004C6.52485 15.8147 7.73913 16.1433 9.0027 16.1433C12.9477 16.1433 16.1456 12.9454 16.1456 9.00042C16.1456 5.05542 12.9477 1.85756 9.0027 1.85756ZM6.32413 10.0718H9.53699C9.67272 10.0719 9.80338 10.1235 9.90255 10.2161C10.0017 10.3088 10.062 10.4356 10.0713 10.571C10.0805 10.7065 10.038 10.8403 9.95239 10.9456C9.86674 11.0509 9.74431 11.1198 9.60985 11.1383L9.53699 11.1433H6.32413C6.1884 11.1432 6.05775 11.0917 5.95857 10.999C5.85939 10.9063 5.79908 10.7795 5.78983 10.6441C5.78058 10.5087 5.82307 10.3748 5.90873 10.2695C5.99438 10.1642 6.11681 10.0953 6.25127 10.0768L6.32413 10.0718H9.53699H6.32413ZM6.32413 6.85756H11.6841C11.8199 6.8576 11.9505 6.90916 12.0497 7.00183C12.1489 7.09449 12.2092 7.22135 12.2184 7.35676C12.2277 7.49218 12.1852 7.62606 12.0995 7.73135C12.0139 7.83664 11.8915 7.90549 11.757 7.92399L11.6841 7.92899H6.32413C6.1884 7.92895 6.05775 7.87739 5.95857 7.78472C5.85939 7.69206 5.79908 7.56521 5.78983 7.42979C5.78058 7.29437 5.82307 7.1605 5.90873 7.0552C5.99438 6.94991 6.11681 6.88106 6.25127 6.86256L6.32413 6.85756H11.6841H6.32413Z" fill="#706C64"/>
</svg>
