<svg width="29" height="29" viewBox="0 0 29 29" fill="none" xmlns="http://www.w3.org/2000/svg">
<path d="M26.5846 22.9583C26.5846 23.5993 26.33 24.214 25.8768 24.6672C25.4236 25.1204 24.8089 25.375 24.168 25.375H4.83464C4.1937 25.375 3.57901 25.1204 3.12579 24.6672C2.67258 24.214 2.41797 23.5993 2.41797 22.9583V6.04167C2.41797 5.40073 2.67258 4.78604 3.12579 4.33283C3.57901 3.87961 4.1937 3.625 4.83464 3.625H10.8763L13.293 7.25H24.168C24.8089 7.25 25.4236 7.50461 25.8768 7.95783C26.33 8.41104 26.5846 9.02573 26.5846 9.66667V22.9583Z" stroke="white" stroke-width="2" stroke-linecap="round" stroke-linejoin="round"/>
<path d="M14.5 13.292V20.542" stroke="white" stroke-width="2" stroke-linecap="round" stroke-linejoin="round"/>
<path d="M10.875 16.917H18.125" stroke="white" stroke-width="2" stroke-linecap="round" stroke-linejoin="round"/>
</svg>
