<svg width="46" height="46" viewBox="0 0 46 46" fill="none" xmlns="http://www.w3.org/2000/svg">
<path d="M5.75 34.5V23C5.75 18.425 7.56741 14.0374 10.8024 10.8024C14.0374 7.56741 18.425 5.75 23 5.75C27.575 5.75 31.9626 7.56741 35.1976 10.8024C38.4326 14.0374 40.25 18.425 40.25 23V34.5" stroke="#155A61" stroke-width="2" stroke-linecap="round" stroke-linejoin="round"/>
<path d="M40.25 36.4163C40.25 37.433 39.8461 38.408 39.1272 39.1269C38.4084 39.8458 37.4333 40.2497 36.4167 40.2497H34.5C33.4833 40.2497 32.5083 39.8458 31.7894 39.1269C31.0705 38.408 30.6667 37.433 30.6667 36.4163V30.6663C30.6667 29.6497 31.0705 28.6747 31.7894 27.9558C32.5083 27.2369 33.4833 26.833 34.5 26.833H40.25V36.4163ZM5.75 36.4163C5.75 37.433 6.15387 38.408 6.87276 39.1269C7.59165 39.8458 8.56667 40.2497 9.58333 40.2497H11.5C12.5167 40.2497 13.4917 39.8458 14.2106 39.1269C14.9295 38.408 15.3333 37.433 15.3333 36.4163V30.6663C15.3333 29.6497 14.9295 28.6747 14.2106 27.9558C13.4917 27.2369 12.5167 26.833 11.5 26.833H5.75V36.4163Z" stroke="#155A61" stroke-width="2" stroke-linecap="round" stroke-linejoin="round"/>
</svg>
