<svg width="46" height="46" viewBox="0 0 46 46" fill="none" xmlns="http://www.w3.org/2000/svg">
<path d="M36.4167 5.75H9.58333C7.46624 5.75 5.75 7.46624 5.75 9.58333V36.4167C5.75 38.5338 7.46624 40.25 9.58333 40.25H36.4167C38.5338 40.25 40.25 38.5338 40.25 36.4167V9.58333C40.25 7.46624 38.5338 5.75 36.4167 5.75Z" stroke="#155A61" stroke-width="2" stroke-linecap="round" stroke-linejoin="round"/>
<path d="M16.293 19.166C17.8808 19.166 19.168 17.8788 19.168 16.291C19.168 14.7032 17.8808 13.416 16.293 13.416C14.7052 13.416 13.418 14.7032 13.418 16.291C13.418 17.8788 14.7052 19.166 16.293 19.166Z" stroke="#155A61" stroke-width="2" stroke-linecap="round" stroke-linejoin="round"/>
<path d="M40.2487 28.7493L30.6654 19.166L9.58203 40.2493" stroke="#155A61" stroke-width="2" stroke-linecap="round" stroke-linejoin="round"/>
</svg>
