<svg width="180" height="180" viewBox="0 0 180 180" fill="none" xmlns="http://www.w3.org/2000/svg">
<path d="M141.836 22.6426H37.5742C29.3482 22.6426 22.6797 29.3111 22.6797 37.5371V141.798C22.6797 150.024 29.3482 156.693 37.5742 156.693H141.836C150.062 156.693 156.73 150.024 156.73 141.798V37.5371C156.73 29.3111 150.062 22.6426 141.836 22.6426Z" stroke="#C4C4C4" stroke-width="2" stroke-linecap="round" stroke-linejoin="round"/>
<path d="M63.6396 74.7734C69.8091 74.7734 74.8105 69.772 74.8105 63.6025C74.8105 57.433 69.8091 52.4316 63.6396 52.4316C57.4701 52.4316 52.4688 57.433 52.4688 63.6025C52.4688 69.772 57.4701 74.7734 63.6396 74.7734Z" stroke="#C4C4C4" stroke-width="2" stroke-linecap="round" stroke-linejoin="round"/>
<path d="M156.734 112.01L119.498 74.7734L37.5781 156.693" stroke="#C4C4C4" stroke-width="2" stroke-linecap="round" stroke-linejoin="round"/>
</svg>
