<svg width="62" height="46" viewBox="0 0 62 46" fill="none" xmlns="http://www.w3.org/2000/svg">
<path d="M55.9521 23.2026C55.9521 28.373 55.9521 33.5618 55.9521 38.7322C55.9521 40.3698 55.3945 40.7562 53.8333 40.2226C49.9674 38.8978 46.0458 39.045 42.087 39.6706C38.7601 40.2042 35.5076 41.1058 32.3666 42.3386C31.7347 42.5778 31.1957 42.5226 30.5824 42.2834C25.6385 40.4434 20.5646 39.1738 15.2119 39.229C13.0931 39.2474 11.03 39.5602 9.02277 40.2962C7.77752 40.7562 7.12702 40.2962 7.10843 38.9714C7.10843 28.4098 7.10843 17.8298 7.08984 7.26817C7.08984 6.38497 7.48015 5.94337 8.31651 5.70417C16.3642 3.42257 24.0216 3.93777 31.0656 8.83217C31.4187 9.07137 31.6232 9.03457 31.9391 8.81377C38.946 3.93777 46.5848 3.44097 54.6139 5.68577C55.5989 5.96177 55.9149 6.51377 55.9149 7.48897C55.9335 12.733 55.9521 17.977 55.9521 23.2026ZM53.5359 37.7202C53.5545 37.5362 53.5917 37.4258 53.5917 37.3154C53.5917 27.6738 53.5917 18.0138 53.6102 8.37217C53.6102 7.83857 53.35 7.70977 52.9226 7.59937C51.2313 7.17617 49.5399 6.90017 47.8115 6.77137C42.5145 6.42177 37.6264 7.63617 33.2773 10.7274C32.8498 11.0218 32.7012 11.353 32.7012 11.8682C32.7197 20.8658 32.7197 29.8818 32.7012 38.8794C32.7012 39.689 32.9056 39.689 33.5747 39.4682C36.7157 38.401 39.9125 37.6098 43.2022 37.205C46.6591 36.8002 50.0975 36.8186 53.5359 37.7202ZM30.3593 39.7074C30.3593 39.2658 30.3593 38.9346 30.3593 38.6034C30.3593 29.753 30.3408 20.9026 30.3779 12.0522C30.3779 11.353 30.1363 10.9482 29.5787 10.5618C23.6684 6.55057 17.2377 5.92497 10.4167 7.50737C9.69186 7.67297 9.43166 7.93057 9.45025 8.70337C9.48742 18.0506 9.46884 27.3978 9.46884 36.7266C9.46884 37.021 9.46884 37.3338 9.46884 37.6834C16.6987 35.9722 23.5383 37.4994 30.3593 39.7074Z" fill="#155A61"/>
<path d="M53.5379 37.7203C50.1181 36.8187 46.6611 36.8003 43.2041 37.2051C39.9144 37.5915 36.6991 38.3827 33.5767 39.4683C32.9076 39.7075 32.7031 39.689 32.7031 38.8794C32.7403 29.8818 32.7217 20.8659 32.7031 11.8683C32.7031 11.3531 32.8518 11.0219 33.2793 10.7275C37.647 7.65465 42.5165 6.42185 47.8134 6.77145C49.5419 6.88185 51.2518 7.17625 52.9245 7.59945C53.352 7.70985 53.6122 7.82025 53.6122 8.37225C53.5936 18.0139 53.5936 27.6738 53.5936 37.3154C53.5936 37.4258 53.5565 37.5363 53.5379 37.7203ZM45.9363 17.5539C42.2005 17.6275 38.5391 18.3635 35.0449 19.9091C34.0971 20.3139 33.7811 20.9027 34.0971 21.6019C34.3944 22.2459 35.0264 22.4115 35.9185 22.0251C40.6021 20.0195 45.453 19.3203 50.4898 20.3323C51.3633 20.4979 51.9395 20.1851 52.0696 19.5043C52.2183 18.8051 51.8094 18.2899 50.973 18.1059C49.3561 17.7379 47.6833 17.5723 45.9363 17.5539ZM46.4752 31.6667C42.1819 31.6667 38.5577 32.4763 35.1007 33.9667C34.1342 34.3715 33.8183 34.9419 34.1156 35.6411C34.413 36.3219 35.0635 36.4691 36.0114 36.0827C40.6765 34.1139 45.4716 33.3595 50.4898 34.4083C51.3633 34.5923 51.9581 34.2795 52.1068 33.5987C52.274 32.8627 51.8837 32.3659 50.9544 32.1451C49.3003 31.7955 47.6462 31.6299 46.4752 31.6667ZM45.9548 10.6723C44.7468 10.6907 43.5573 10.7459 42.3492 10.9299C39.7472 11.3163 37.2195 12.0155 34.8219 13.1011C34.1156 13.4139 33.8183 13.9475 34.1342 14.6651C34.4502 15.3643 35.0449 15.5115 35.7512 15.1987C35.9742 15.1067 36.1973 15.0147 36.4389 14.9227C40.9552 13.1011 45.5831 12.4387 50.3969 13.4139C51.3262 13.5979 51.9395 13.3219 52.0882 12.6227C52.2554 11.8683 51.8094 11.3531 50.8243 11.1507C49.2074 10.8195 47.5904 10.6539 45.9548 10.6723ZM46.0478 24.6747C44.7468 24.6563 43.4458 24.7483 42.1633 24.9507C40.7322 25.1715 39.3197 25.4843 37.9257 25.9259C36.8292 26.2571 35.7698 26.6435 34.729 27.1403C34.0785 27.4531 33.8183 28.0051 34.1156 28.6675C34.413 29.3299 34.9892 29.4955 35.6583 29.2379C35.8255 29.1827 35.9928 29.0907 36.1601 29.0171C40.7136 27.1403 45.3973 26.4043 50.2853 27.3979C51.3076 27.6003 51.9023 27.3427 52.0696 26.6251C52.2369 25.8707 51.7722 25.3371 50.7314 25.1347C49.1888 24.8035 47.6276 24.6379 46.0478 24.6747Z" fill="#FAFAFA"/>
<path d="M30.3583 39.7072C23.5187 37.4808 16.6977 35.972 9.46781 37.7016C9.46781 37.352 9.46781 37.0576 9.46781 36.7448C9.46781 27.3976 9.48639 18.0504 9.44922 8.72156C9.44922 7.94876 9.69083 7.69116 10.4157 7.52556C17.2367 5.94316 23.6674 6.56876 29.5777 10.58C30.1353 10.9664 30.3769 11.3528 30.3769 12.0704C30.3397 20.9208 30.3583 29.7712 30.3583 38.6216C30.3583 38.9528 30.3583 39.284 30.3583 39.7072ZM29.0387 21.1416C29.0573 20.4424 28.5741 20.148 28.0165 19.8904C24.671 18.4368 21.1583 17.664 17.5155 17.5536C15.6569 17.4984 13.8169 17.7192 11.9955 18.0872C11.252 18.2344 10.8432 18.7128 10.9918 19.4672C11.1591 20.24 11.7167 20.4792 12.4601 20.3136C12.6088 20.2768 12.7575 20.2768 12.9248 20.24C15.6569 19.688 18.389 19.7248 21.1211 20.1848C23.2213 20.5344 25.2472 21.16 27.2173 22.0248C28.1838 22.4848 29.0201 22.0616 29.0387 21.1416ZM29.0387 35.1992C29.0387 34.684 28.8343 34.3528 28.2209 34.0768C23.0727 31.8136 17.7385 31.0592 12.1813 32.1264C11.1777 32.3288 10.7874 32.8624 10.9733 33.6352C11.1405 34.316 11.7353 34.5736 12.7017 34.3712C15.3038 33.8376 17.9244 33.8008 20.545 34.2056C22.8496 34.5552 25.0613 35.2176 27.1987 36.1192C28.2024 36.5608 29.0387 36.1192 29.0387 35.1992ZM16.7349 24.656C15.5082 24.6192 13.8912 24.8032 12.2743 25.116C11.2706 25.3184 10.8432 25.8152 10.9918 26.5696C11.1405 27.2872 11.7539 27.5632 12.7575 27.3608C15.3595 26.8272 17.9615 26.7904 20.5821 27.1952C22.9054 27.5632 25.1543 28.2072 27.3102 29.164C28.0165 29.4768 28.6112 29.3664 28.9458 28.6488C29.2617 27.9496 28.9644 27.416 28.2767 27.0848C28.0722 26.9928 27.8864 26.9008 27.6819 26.8272C24.2993 25.4472 20.8052 24.6744 16.7349 24.656ZM16.9765 10.672C15.5082 10.6536 13.8727 10.8008 12.2743 11.132C11.2706 11.3344 10.8617 11.8312 10.9918 12.5856C11.1405 13.3216 11.7353 13.5792 12.7575 13.3768C15.3967 12.8432 18.0173 12.8064 20.6751 13.2296C22.9797 13.5976 25.1914 14.2416 27.3102 15.18C28.0165 15.4928 28.6298 15.364 28.9458 14.6648C29.2617 13.9656 28.983 13.4136 28.2767 13.1008C28.0537 13.0088 27.8306 12.88 27.6076 12.788C24.2436 11.4448 20.768 10.672 16.9765 10.672Z" fill="#FAFAFA"/>
<path d="M45.9342 17.5537C47.6813 17.5905 49.3355 17.7377 50.971 18.0873C51.826 18.2713 52.2163 18.8049 52.0676 19.4857C51.9189 20.1665 51.3613 20.4793 50.4878 20.3137C45.451 19.3201 40.6001 20.0193 35.9165 22.0065C35.0429 22.3745 34.3924 22.2273 34.095 21.5833C33.7791 20.9025 34.095 20.3137 35.0429 19.8905C38.5371 18.3633 42.1985 17.6273 45.9342 17.5537Z" fill="#155A61"/>
<path d="M46.4741 31.6667C47.645 31.6299 49.2991 31.8139 50.9347 32.1635C51.864 32.3659 52.2543 32.8811 52.087 33.6171C51.9383 34.2796 51.3436 34.6108 50.47 34.4268C45.4518 33.3779 40.6567 34.1324 35.9916 36.1012C35.0438 36.506 34.3933 36.3588 34.0959 35.6596C33.7985 34.9603 34.1145 34.39 35.0809 33.9852C38.5565 32.4763 42.1807 31.6667 46.4741 31.6667Z" fill="#155A61"/>
<path d="M45.9513 10.6723C47.5869 10.6539 49.2225 10.8195 50.8208 11.1323C51.8059 11.3347 52.2334 11.8499 52.0847 12.6043C51.936 13.3035 51.3227 13.5795 50.3934 13.3955C45.5796 12.4203 40.9331 13.0827 36.4354 14.9043C36.2123 14.9963 35.9707 15.0883 35.7477 15.1803C35.0414 15.4931 34.4281 15.3459 34.1307 14.6467C33.8148 13.9475 34.1307 13.3955 34.8184 13.0827C37.216 11.9971 39.7437 11.2979 42.3457 10.9115C43.5352 10.7459 44.7433 10.6907 45.9513 10.6723Z" fill="#155A61"/>
<path d="M46.0278 24.675C47.6076 24.6566 49.1688 24.8222 50.73 25.1166C51.7894 25.319 52.2541 25.8526 52.0682 26.607C51.9009 27.3246 51.2876 27.5822 50.284 27.3798C45.3959 26.4046 40.7122 27.1222 36.1587 28.999C35.9914 29.0726 35.8242 29.1646 35.6569 29.2198C34.9692 29.459 34.393 29.3118 34.1143 28.6494C33.8355 27.987 34.0771 27.435 34.7276 27.1222C35.7498 26.6254 36.8278 26.2574 37.9244 25.9078C39.3183 25.4662 40.7308 25.1534 42.1619 24.9326C43.4444 24.7486 44.7454 24.6382 46.0278 24.675Z" fill="#155A61"/>
<path d="M29.039 21.1422C29.0204 22.0438 28.1841 22.4854 27.2176 22.0622C25.2661 21.1974 23.2402 20.5902 21.1215 20.2222C18.3893 19.7622 15.6572 19.707 12.9251 20.2774C12.7764 20.3142 12.6277 20.3142 12.4604 20.351C11.717 20.4982 11.1594 20.2774 10.9922 19.5046C10.8435 18.7318 11.2338 18.2718 11.9958 18.1246C13.8172 17.7382 15.6572 17.5358 17.5158 17.591C21.1586 17.7014 24.6714 18.4742 28.0168 19.9278C28.593 20.1486 29.0576 20.443 29.039 21.1422Z" fill="#155A61"/>
<path d="M29.0409 35.1998C29.0409 36.1198 28.2046 36.5614 27.2195 36.1382C25.0821 35.2182 22.8704 34.5742 20.5658 34.2246C17.9451 33.8198 15.3245 33.8566 12.7225 34.3902C11.7561 34.5926 11.1613 34.335 10.994 33.6542C10.8082 32.8814 11.1985 32.3478 12.2021 32.1454C17.7593 31.0598 23.0934 31.8326 28.2417 34.0958C28.8365 34.3534 29.0595 34.6846 29.0409 35.1998Z" fill="#155A61"/>
<path d="M16.7367 24.6567C20.807 24.6751 24.3197 25.4295 27.6837 26.8279C27.8882 26.9015 28.074 26.9935 28.2785 27.0855C28.9662 27.4167 29.2821 27.9503 28.9476 28.6495C28.613 29.3671 28.0183 29.4775 27.312 29.1647C25.1561 28.2079 22.9257 27.5639 20.5839 27.1959C17.9633 26.7911 15.3613 26.8279 12.7593 27.3615C11.7556 27.5639 11.1423 27.2879 10.9936 26.5703C10.8449 25.8159 11.2724 25.3191 12.276 25.1167C13.8744 24.8039 15.51 24.6383 16.7367 24.6567Z" fill="#155A61"/>
<path d="M16.9791 10.6724C20.7892 10.6724 24.2462 11.4452 27.6102 12.7884C27.8332 12.8804 28.0563 12.9908 28.2793 13.1012C28.9856 13.414 29.2644 13.966 28.9484 14.6652C28.6324 15.3644 28.0191 15.4932 27.3128 15.1804C25.1941 14.242 22.9823 13.598 20.6777 13.23C18.0199 12.8068 15.3807 12.8436 12.7601 13.3772C11.7379 13.5796 11.1431 13.322 10.9945 12.586C10.8458 11.8132 11.2547 11.3348 12.2769 11.1324C13.8753 10.8012 15.5108 10.654 16.9791 10.6724Z" fill="#155A61"/>
</svg>
