<svg width="14" height="13" viewBox="0 0 14 13" fill="none" xmlns="http://www.w3.org/2000/svg">
<path d="M1.21049 7.58842L1.93707 7.40249L1.21049 7.58842ZM1.21049 4.25355L1.93707 4.43948L1.21049 4.25355ZM11.5262 4.25356L12.2528 4.06763L11.5262 4.25356ZM11.5262 7.58842L12.2528 7.77435L11.5262 7.58842ZM8.18737 10.649L8.0297 9.91579L8.18737 10.649ZM4.54934 10.649L4.39167 11.3823L4.54934 10.649ZM4.54933 1.19294L4.39167 0.459704L4.54933 1.19294ZM8.18737 1.19294L8.34503 0.459703L8.18737 1.19294ZM12.4932 12.5529C12.7985 12.8328 13.273 12.8121 13.5529 12.5068C13.8328 12.2015 13.8121 11.727 13.5068 11.4471L12.4932 12.5529ZM1.93707 7.40249C1.68764 6.42774 1.68764 5.41423 1.93707 4.43948L0.483897 4.06763C0.172034 5.28635 0.172034 6.55563 0.483897 7.77435L1.93707 7.40249ZM10.7996 4.43949C11.0491 5.41423 11.0491 6.42774 10.7996 7.40249L12.2528 7.77435C12.5647 6.55562 12.5647 5.28635 12.2528 4.06763L10.7996 4.43949ZM8.0297 9.91579C6.93718 10.1507 5.79952 10.1507 4.707 9.91579L4.39167 11.3823C5.69203 11.6619 7.04467 11.6619 8.34503 11.3823L8.0297 9.91579ZM4.707 1.92619C5.79952 1.69127 6.93719 1.69127 8.0297 1.92619L8.34503 0.459703C7.04467 0.180099 5.69203 0.180099 4.39167 0.459704L4.707 1.92619ZM4.707 9.91579C3.30016 9.61329 2.24828 8.61865 1.93707 7.40249L0.483897 7.77435C0.949904 9.59545 2.48514 10.9723 4.39167 11.3823L4.707 9.91579ZM8.34503 11.3823C10.2516 10.9723 11.7868 9.59545 12.2528 7.77435L10.7996 7.40249C10.4884 8.61865 9.43654 9.61329 8.0297 9.91579L8.34503 11.3823ZM8.0297 1.92619C9.43654 2.22869 10.4884 3.22333 10.7996 4.43949L12.2528 4.06763C11.7868 2.24653 10.2516 0.869648 8.34503 0.459703L8.0297 1.92619ZM4.39167 0.459704C2.48514 0.869648 0.949904 2.24652 0.483897 4.06763L1.93707 4.43948C2.24828 3.22332 3.30016 2.22869 4.707 1.92619L4.39167 0.459704ZM10.05 10.3132L12.4932 12.5529L13.5068 11.4471L11.0636 9.2075L10.05 10.3132Z" fill="#706C64"/>
</svg>
