<svg width="53" height="46" viewBox="0 0 53 46" fill="none" xmlns="http://www.w3.org/2000/svg">
<path d="M25.8136 4.96588C31.2646 4.96588 36.7265 4.96588 42.1775 4.96588C44.1597 4.96588 45.4201 6.19399 45.3771 8.18696C45.3663 8.75792 45.5386 8.88719 46.0557 8.83333C46.4974 8.79024 46.9499 8.81178 47.4023 8.82256C47.9625 8.83333 48.2534 9.13497 48.2857 9.68438C48.2857 9.79211 48.2857 9.89984 48.2857 10.0076C48.2857 17.9902 48.2857 25.9837 48.2857 33.9664C48.2857 37.1767 46.0773 39.3851 42.8885 39.3851C32.4281 39.3851 21.9569 39.3851 11.4965 39.3851C8.4801 39.3851 6.20703 37.1336 6.20703 34.1172C6.20703 25.445 6.20703 16.7837 6.20703 8.11155C6.20703 6.20476 7.46745 4.94434 9.38502 4.94434C14.8684 4.96588 20.341 4.96588 25.8136 4.96588ZM15.1269 37.7584C15.2885 37.7799 15.3316 37.7799 15.3639 37.7799C24.607 37.7799 33.8501 37.7799 43.0932 37.7799C43.4379 37.7799 43.7719 37.7368 44.1059 37.6399C45.6787 37.1982 46.6913 35.8193 46.6913 34.0849C46.6913 26.4038 46.6913 18.7228 46.7021 11.0418C46.7021 10.5354 46.5513 10.4385 46.0773 10.4385C36.4248 10.4493 26.7616 10.4493 17.1091 10.4385C16.592 10.4385 16.5166 10.6001 16.5166 11.0633C16.5274 18.4212 16.5166 25.779 16.5382 33.1368C16.5382 34.8066 16.3981 36.401 15.1269 37.7584ZM11.8628 6.59258C12.2506 7.41131 12.1644 8.21928 12.1644 9.01647C12.1644 17.4516 12.1644 25.8867 12.1644 34.3219C12.1644 34.4834 12.1752 34.645 12.1536 34.8066C12.0998 35.2375 11.8304 35.4961 11.4103 35.5176C10.9794 35.55 10.6885 35.3237 10.5808 34.9036C10.5269 34.6989 10.5377 34.4727 10.5377 34.2572C10.5377 25.8975 10.5377 17.527 10.5377 9.16729C10.5377 8.75792 10.5485 8.33778 10.5269 7.92841C10.5054 7.18508 9.95598 6.6249 9.24497 6.58181C8.56628 6.53871 7.93068 7.08813 7.83373 7.79914C7.81218 7.9715 7.82296 8.15464 7.82296 8.33778C7.82296 14.9415 7.82296 21.5453 7.82296 28.149C7.82296 30.1743 7.81218 32.1996 7.82296 34.2357C7.8445 36.5087 9.90211 38.1462 12.0998 37.6722C13.748 37.3167 14.8792 35.83 14.8792 33.9879C14.8792 25.9837 14.8792 17.9795 14.8792 9.97525C14.8792 9.02724 15.0946 8.82256 16.0534 8.82256C25.081 8.82256 34.1087 8.82256 43.1363 8.82256C43.2656 8.82256 43.3841 8.81178 43.5134 8.82256C43.6965 8.83333 43.7504 8.75792 43.7719 8.57478C43.9335 7.27127 43.3518 6.58181 42.0482 6.58181C32.1588 6.58181 22.2693 6.58181 12.3799 6.58181C12.2398 6.59258 12.089 6.59258 11.8628 6.59258Z" fill="#155A61"/>
<path d="M15.1289 37.7583C16.4001 36.401 16.5401 34.8174 16.5401 33.1476C16.5186 25.7897 16.5294 18.4319 16.5186 11.074C16.5186 10.6108 16.594 10.4492 17.1111 10.4492C26.7636 10.4708 36.4268 10.4708 46.0793 10.4492C46.5533 10.4492 46.7041 10.5354 46.7041 11.0525C46.6825 18.7335 46.6933 26.4146 46.6933 34.0956C46.6933 35.83 45.6914 37.1982 44.1078 37.6506C43.7739 37.7476 43.4399 37.7907 43.0952 37.7907C33.8521 37.7907 24.609 37.7907 15.3659 37.7907C15.3228 37.7799 15.2905 37.7691 15.1289 37.7583ZM43.4722 24.1307C43.4722 22.267 43.4722 20.4033 43.4722 18.5288C43.4722 17.7963 43.2029 17.5162 42.4704 17.5162C38.743 17.5162 35.0048 17.5162 31.2774 17.5162C30.5771 17.5162 30.3078 17.7963 30.3078 18.4965C30.3078 22.2239 30.3078 25.9621 30.3078 29.6895C30.3078 30.4328 30.5772 30.7021 31.3097 30.7021C35.0263 30.7021 38.743 30.7021 42.4488 30.7021C43.2137 30.7021 43.4722 30.4328 43.4722 29.668C43.483 27.8258 43.4722 25.9729 43.4722 24.1307ZM31.5575 13.6595C30.394 13.6595 29.2305 13.6595 28.0563 13.6595C25.6001 13.6595 23.1439 13.6595 20.6877 13.6595C20.0629 13.6595 19.6966 13.9719 19.6966 14.4675C19.6966 14.963 20.0736 15.2647 20.6985 15.2754C20.7739 15.2754 20.8385 15.2754 20.9139 15.2754C28.0348 15.2754 35.1556 15.2754 42.2765 15.2754C42.4596 15.2754 42.6427 15.297 42.8151 15.2539C43.2568 15.1462 43.5046 14.8661 43.4722 14.4028C43.4399 13.9719 43.1814 13.7242 42.7505 13.6703C42.5781 13.6487 42.3949 13.6595 42.2118 13.6595C38.6675 13.6595 35.1125 13.6595 31.5575 13.6595ZM31.5898 32.9537C28.024 32.9537 24.4474 32.9537 20.8816 32.9537C20.72 32.9537 20.5584 32.9429 20.3968 32.9644C19.9659 33.0398 19.7181 33.3092 19.7074 33.7293C19.6966 34.1495 19.9336 34.4403 20.343 34.548C20.4938 34.5911 20.6661 34.5696 20.8277 34.5696C28.0024 34.5696 35.1771 34.5696 42.3519 34.5696C42.4919 34.5696 42.6427 34.5911 42.7828 34.5588C43.2245 34.4619 43.483 34.1925 43.4722 33.7293C43.4507 33.2661 43.1921 33.0075 42.7397 32.9537C42.5996 32.9321 42.4488 32.9537 42.3088 32.9537C38.7322 32.9537 35.1664 32.9537 31.5898 32.9537ZM24.3612 26.8455C25.6001 26.8455 26.839 26.8455 28.0779 26.8455C28.6811 26.8455 29.0259 26.5546 29.0366 26.0591C29.0474 25.5527 28.6811 25.2188 28.0671 25.2188C25.6109 25.2188 23.1547 25.208 20.6985 25.2188C20.0844 25.2188 19.7074 25.542 19.7074 26.0375C19.7074 26.5331 20.0844 26.8347 20.7092 26.8347C21.9266 26.8562 23.1439 26.8455 24.3612 26.8455ZM24.4043 17.5162C23.1654 17.5162 21.9266 17.5162 20.6877 17.5162C20.0736 17.5162 19.6966 17.8394 19.6966 18.3349C19.6966 18.8305 20.0736 19.1429 20.6985 19.1429C23.1331 19.1429 25.5786 19.1429 28.0132 19.1429C28.638 19.1429 29.0043 18.8413 29.0259 18.3457C29.0366 17.8286 28.6704 17.5162 28.0024 17.5162C26.8067 17.5162 25.6109 17.5162 24.4043 17.5162ZM24.3505 29.0862C23.1331 29.0862 21.9158 29.0862 20.6877 29.0862C20.0736 29.0862 19.6966 29.4094 19.6966 29.905C19.6966 30.4005 20.0736 30.7021 20.6985 30.7021C23.1331 30.7021 25.5786 30.7021 28.0132 30.7021C28.6488 30.7021 29.0043 30.4113 29.0259 29.9157C29.0366 29.3986 28.6596 29.0862 28.0024 29.0862C26.7851 29.0862 25.5678 29.0862 24.3505 29.0862ZM24.372 22.9996C25.6324 22.9996 26.8821 22.9996 28.1425 22.9888C28.6919 22.9888 29.0259 22.6656 29.0366 22.1916C29.0474 21.7176 28.7027 21.3729 28.164 21.3621C25.6324 21.3513 23.1116 21.3513 20.58 21.3621C20.2137 21.3621 19.9228 21.5237 19.772 21.8792C19.535 22.4502 19.9444 22.978 20.6554 22.9888C21.8942 23.0103 23.1331 22.9996 24.372 22.9996Z" fill="#FBFBFB"/>
<path d="M11.8599 6.59319C12.0861 6.59319 12.2369 6.59319 12.3985 6.59319C22.288 6.59319 32.1774 6.59319 42.0669 6.59319C43.3704 6.59319 43.9521 7.28265 43.7906 8.58617C43.769 8.7693 43.7151 8.84471 43.532 8.83394C43.4027 8.82317 43.2842 8.83394 43.155 8.83394C34.1273 8.83394 25.0997 8.83394 16.0721 8.83394C15.1133 8.83394 14.8978 9.0494 14.8978 9.98663C14.8978 17.9908 14.8978 25.9951 14.8978 33.9993C14.8978 35.8414 13.7667 37.3281 12.1184 37.6836C9.92076 38.1576 7.86315 36.5201 7.84161 34.2471C7.82006 32.2218 7.84161 30.1965 7.84161 28.1604C7.84161 21.5567 7.84161 14.9529 7.84161 8.34916C7.84161 8.16603 7.83083 7.98289 7.85238 7.81052C7.94933 7.09952 8.58493 6.5501 9.26362 6.59319C9.97463 6.63628 10.5133 7.19647 10.5456 7.9398C10.5564 8.34916 10.5564 8.7693 10.5564 9.17867C10.5564 17.5384 10.5564 25.9089 10.5564 34.2686C10.5564 34.4841 10.5456 34.6995 10.5995 34.915C10.6964 35.3351 10.998 35.5613 11.429 35.529C11.8491 35.4967 12.1184 35.2489 12.1723 34.818C12.1938 34.6564 12.1831 34.4948 12.1831 34.3332C12.1831 25.8981 12.1831 17.463 12.1831 9.02785C12.1615 8.21989 12.2477 7.40115 11.8599 6.59319Z" fill="#FBFBFB"/>
<path d="M43.4691 24.1311C43.4691 25.984 43.4691 27.8262 43.4691 29.6791C43.4691 30.4547 43.1998 30.7133 42.4457 30.7133C38.729 30.7133 35.0124 30.7133 31.3066 30.7133C30.5848 30.7133 30.3047 30.444 30.3047 29.7006C30.3047 25.9732 30.3047 22.2351 30.3047 18.5077C30.3047 17.8074 30.574 17.5273 31.2742 17.5273C35.0016 17.5273 38.7398 17.5273 42.4672 17.5273C43.1998 17.5273 43.4691 17.8074 43.4691 18.54C43.4799 20.3929 43.4691 22.2674 43.4691 24.1311ZM41.8532 24.1311C41.8532 22.6121 41.8424 21.0824 41.8639 19.5634C41.8639 19.2402 41.7885 19.1433 41.4546 19.1433C38.4274 19.154 35.3895 19.154 32.3623 19.1433C32.0068 19.1433 31.9206 19.251 31.9206 19.5957C31.9314 22.6229 31.9314 25.6608 31.9206 28.688C31.9206 29.0112 31.996 29.1081 32.33 29.1081C35.3571 29.0974 38.3951 29.0974 41.4223 29.1081C41.7778 29.1081 41.8639 29.0004 41.8639 28.6557C41.8424 27.1475 41.8532 25.6393 41.8532 24.1311Z" fill="#155A61"/>
<path d="M31.5562 13.6599C35.1112 13.6599 38.6555 13.6599 42.2105 13.6599C42.3937 13.6599 42.566 13.6491 42.7492 13.6707C43.1801 13.7246 43.4386 13.9723 43.471 14.4032C43.5033 14.8665 43.2555 15.1466 42.8138 15.2543C42.6415 15.2974 42.4583 15.2758 42.2752 15.2758C35.1543 15.2758 28.0335 15.2758 20.9126 15.2758C20.8372 15.2758 20.7726 15.2758 20.6972 15.2758C20.0724 15.2651 19.7061 14.9634 19.6953 14.4679C19.6953 13.9723 20.0616 13.6599 20.6864 13.6599C23.1426 13.6599 25.5988 13.6599 28.055 13.6599C29.2293 13.6599 30.3927 13.6599 31.5562 13.6599Z" fill="#155A61"/>
<path d="M31.586 32.954C35.1518 32.954 38.7284 32.954 42.2942 32.954C42.4342 32.954 42.585 32.9432 42.7251 32.954C43.1775 33.0079 43.4469 33.2664 43.4576 33.7296C43.4792 34.1929 43.2099 34.4622 42.7682 34.5592C42.6281 34.5915 42.4773 34.5699 42.3373 34.5699C35.1625 34.5699 27.9878 34.5699 20.8131 34.5699C20.6515 34.5699 20.4792 34.5807 20.3284 34.5484C19.9082 34.4407 19.6712 34.1606 19.6928 33.7296C19.7035 33.3095 19.9513 33.0294 20.3822 32.9648C20.5438 32.9432 20.7054 32.954 20.867 32.954C24.4544 32.954 28.0202 32.954 31.586 32.954Z" fill="#155A61"/>
<path d="M24.36 26.8454C23.1426 26.8454 21.9253 26.8454 20.6972 26.8454C20.0724 26.8454 19.6953 26.5438 19.6953 26.0482C19.6953 25.5527 20.0724 25.2295 20.6864 25.2295C23.1426 25.2295 25.5988 25.2295 28.055 25.2295C28.6691 25.2295 29.0354 25.5634 29.0246 26.0698C29.0138 26.5545 28.6691 26.8562 28.0658 26.8562C26.8377 26.8562 25.5988 26.8454 24.36 26.8454Z" fill="#155A61"/>
<path d="M24.4001 17.5166C25.6066 17.5166 26.8024 17.5166 28.009 17.5166C28.6769 17.5166 29.0432 17.829 29.0324 18.3461C29.0216 18.8417 28.6554 19.1433 28.0198 19.1433C25.5851 19.1433 23.1397 19.1433 20.705 19.1433C20.0802 19.1433 19.7031 18.8201 19.7031 18.3353C19.7031 17.8398 20.0802 17.5274 20.6942 17.5166C21.9223 17.5166 23.1612 17.5166 24.4001 17.5166Z" fill="#155A61"/>
<path d="M24.3462 29.0859C25.5635 29.0859 26.7809 29.0859 28.009 29.0859C28.6661 29.0859 29.0432 29.3984 29.0324 29.9154C29.0216 30.411 28.6554 30.7019 28.0198 30.7019C25.5851 30.7019 23.1397 30.7019 20.705 30.7019C20.0909 30.7019 19.7139 30.3895 19.7031 29.9047C19.7031 29.4091 20.0802 29.0859 20.6942 29.0859C21.9116 29.0859 23.1289 29.0859 24.3462 29.0859Z" fill="#155A61"/>
<path d="M24.3708 23.0006C23.1319 23.0006 21.893 23.0114 20.6541 23.0006C19.9431 22.9899 19.523 22.462 19.7708 21.891C19.9216 21.5355 20.2125 21.3739 20.5787 21.3739C23.1104 21.3739 25.6312 21.3632 28.1628 21.3739C28.7015 21.3739 29.0354 21.7294 29.0354 22.2034C29.0246 22.6774 28.6907 22.9899 28.1413 23.0006C26.8808 23.0006 25.6204 23.0006 24.3708 23.0006Z" fill="#155A61"/>
<path d="M41.8544 24.1304C41.8544 25.6386 41.8437 27.1468 41.8652 28.6442C41.8652 28.989 41.7898 29.0967 41.4235 29.0967C38.3963 29.0859 35.3584 29.0859 32.3312 29.0967C31.9973 29.0967 31.9219 28.9998 31.9219 28.6766C31.9326 25.6494 31.9326 22.6115 31.9219 19.5843C31.9219 19.2396 31.9973 19.1318 32.3636 19.1318C35.3907 19.1426 38.4287 19.1426 41.4558 19.1318C41.7898 19.1318 41.8652 19.2288 41.8652 19.552C41.8437 21.0817 41.8544 22.6007 41.8544 24.1304Z" fill="#FEFEFE"/>
</svg>
