<svg width="530" height="113" viewBox="0 0 530 113" fill="none" xmlns="http://www.w3.org/2000/svg">
<rect opacity="0.7" width="530" height="113" rx="10" fill="#D2D2D2"/>
<path opacity="0.7" d="M278 73.1507C278 74.1287 277.617 75.0666 276.935 75.7582C276.253 76.4497 275.328 76.8382 274.364 76.8382H241.636C240.672 76.8382 239.747 76.4497 239.065 75.7582C238.383 75.0666 238 74.1287 238 73.1507V52.8695C238 51.8916 238.383 50.9536 239.065 50.2621C239.747 49.5705 240.672 49.182 241.636 49.182H248.909L252.545 43.6508H263.455L267.091 49.182H274.364C275.328 49.182 276.253 49.5705 276.935 50.2621C277.617 50.9536 278 51.8916 278 52.8695V73.1507Z" stroke="#706C64" stroke-width="2" stroke-linecap="round" stroke-linejoin="round"/>
<path opacity="0.7" d="M258 69.7984C261.866 69.7984 265 66.4215 265 62.2558C265 58.0902 261.866 54.7133 258 54.7133C254.134 54.7133 251 58.0902 251 62.2558C251 66.4215 254.134 69.7984 258 69.7984Z" stroke="#706C64" stroke-width="2" stroke-linecap="round" stroke-linejoin="round"/>
<rect x="13.5" y="15.5" width="503" height="82" stroke="#706C64" stroke-dasharray="5 5"/>
</svg>
