<svg width="80" height="80" viewBox="0 0 80 80" fill="none" xmlns="http://www.w3.org/2000/svg">
<g opacity="0.7">
<mask id="mask0_793_1337" style="mask-type:alpha" maskUnits="userSpaceOnUse" x="0" y="0" width="80" height="80">
<circle cx="40" cy="40" r="40" fill="#C4C4C4"/>
</mask>
<g mask="url(#mask0_793_1337)">
<circle cx="40" cy="40" r="40" fill="#C4C4C4"/>
<path fill-rule="evenodd" clip-rule="evenodd" d="M40 65.1228C31.9093 65.1228 25 63.8565 25 58.785C25 53.7136 31.8655 49.0319 40 49.0319C48.0907 49.0319 55 53.6682 55 58.7397C55 63.8091 48.1345 65.1228 40 65.1228Z" stroke="#706C64" stroke-width="2" stroke-linecap="round" stroke-linejoin="round"/>
<path fill-rule="evenodd" clip-rule="evenodd" d="M40.0011 41.9922C45.5238 41.9922 50 37.7156 50 32.4393C50 27.1629 45.5238 22.8843 40.0011 22.8843C34.4783 22.8843 30.0001 27.1629 30.0001 32.4393C29.9814 37.6978 34.4265 41.9744 39.9306 41.9922C39.9555 41.9922 39.9783 41.9922 40.0011 41.9922Z" stroke="#706C64" stroke-width="2" stroke-linecap="round" stroke-linejoin="round"/>
</g>
</g>
</svg>
