<svg width="12" height="13" viewBox="0 0 12 13" fill="none" xmlns="http://www.w3.org/2000/svg">
<path d="M0.934175 7.61316L1.66682 7.45276L0.934175 7.61316ZM0.934175 4.2025L1.66682 4.3629L0.934175 4.2025ZM9.96044 4.2025L10.6931 4.0421L9.96044 4.2025ZM9.96044 7.61315L10.6931 7.77355L9.96044 7.61315ZM7.03894 10.7433L6.85614 10.0159L7.03894 10.7433ZM3.85567 10.7433L3.67286 11.4707L3.85567 10.7433ZM3.85567 1.07233L3.67286 0.34495H3.67286L3.85567 1.07233ZM7.03895 1.07233L7.22175 0.34495L7.03895 1.07233ZM10.7017 12.6367C10.9843 12.9396 11.4589 12.9559 11.7617 12.6733C12.0646 12.3907 12.0809 11.9161 11.7983 11.6133L10.7017 12.6367ZM1.66682 7.45276C1.44439 6.43678 1.44439 5.37888 1.66682 4.3629L0.201527 4.0421C-0.0671758 5.26944 -0.0671759 6.54621 0.201528 7.77356L1.66682 7.45276ZM9.22779 4.3629C9.45022 5.37888 9.45022 6.43678 9.22779 7.45276L10.6931 7.77355C10.9618 6.54621 10.9618 5.26945 10.6931 4.0421L9.22779 4.3629ZM6.85614 10.0159C5.92926 10.2489 4.96535 10.2489 4.03848 10.0159L3.67286 11.4707C4.83975 11.764 6.05486 11.764 7.22175 11.4707L6.85614 10.0159ZM4.03847 1.79971C4.96535 1.56676 5.92926 1.56676 6.85614 1.79971L7.22175 0.34495C6.05486 0.0516832 4.83975 0.0516835 3.67286 0.34495L4.03847 1.79971ZM4.03848 10.0159C2.88636 9.72639 1.95087 8.75021 1.66682 7.45276L0.201528 7.77356C0.597538 9.5824 1.92578 11.0316 3.67286 11.4707L4.03848 10.0159ZM7.22175 11.4707C8.96884 11.0316 10.2971 9.5824 10.6931 7.77355L9.22779 7.45276C8.94374 8.75021 8.00826 9.72639 6.85614 10.0159L7.22175 11.4707ZM6.85614 1.79971C8.00826 2.08926 8.94374 3.06545 9.22779 4.3629L10.6931 4.0421C10.2971 2.23326 8.96884 0.784033 7.22175 0.34495L6.85614 1.79971ZM3.67286 0.34495C1.92578 0.784032 0.597538 2.23326 0.201527 4.0421L1.66682 4.3629C1.95087 3.06545 2.88636 2.08926 4.03847 1.79971L3.67286 0.34495ZM8.56387 10.3462L10.7017 12.6367L11.7983 11.6133L9.66046 9.32272L8.56387 10.3462Z" fill="#155A61" fill-opacity="0.38"/>
</svg>
