<svg width="17" height="17" viewBox="0 0 17 17" fill="none" xmlns="http://www.w3.org/2000/svg">
<path d="M13.1803 10.6308C12.745 10.633 12.3157 10.7328 11.9242 10.9231C11.5327 11.1133 11.1888 11.389 10.9181 11.7299L6.66693 9.0722C6.82186 8.57216 6.82186 8.03694 6.66693 7.5369L10.9181 4.87921C11.3496 5.41349 11.9562 5.77781 12.6306 5.90763C13.305 6.03745 14.0035 5.9244 14.6025 5.58849C15.2015 5.25258 15.6623 4.7155 15.9032 4.07239C16.1441 3.42929 16.1497 2.72166 15.9188 2.07487C15.688 1.42808 15.2356 0.883866 14.642 0.53864C14.0483 0.193414 13.3516 0.0694553 12.6753 0.188724C11.9989 0.307992 11.3867 0.662788 10.9469 1.19026C10.5071 1.71774 10.2682 2.38384 10.2725 3.07058C10.2753 3.33064 10.3144 3.58903 10.3889 3.83823L6.13771 6.49593C5.76241 6.02346 5.24941 5.67946 4.66985 5.51159C4.09028 5.34372 3.47284 5.36031 2.90313 5.55905C2.33341 5.7578 1.83963 6.12885 1.49023 6.62079C1.14083 7.11272 0.953125 7.70117 0.953125 8.30455C0.953125 8.90794 1.14083 9.49639 1.49023 9.98832C1.83963 10.4803 2.33341 10.8513 2.90313 11.0501C3.47284 11.2488 4.09028 11.2654 4.66985 11.0975C5.24941 10.9297 5.76241 10.5856 6.13771 10.1132L10.3889 12.7709C10.3144 13.0201 10.2753 13.2785 10.2725 13.5385C10.2725 14.1136 10.4431 14.6758 10.7626 15.154C11.0821 15.6322 11.5362 16.0049 12.0676 16.2249C12.5989 16.445 13.1835 16.5026 13.7476 16.3904C14.3116 16.2782 14.8297 16.0013 15.2364 15.5946C15.6431 15.188 15.92 14.6699 16.0322 14.1058C16.1444 13.5417 16.0868 12.9571 15.8667 12.4258C15.6466 11.8944 15.274 11.4403 14.7958 11.1208C14.3176 10.8013 13.7554 10.6308 13.1803 10.6308ZM13.1803 1.32593C13.5254 1.32593 13.8627 1.42825 14.1496 1.61996C14.4365 1.81166 14.6601 2.08414 14.7922 2.40293C14.9242 2.72173 14.9588 3.07252 14.8914 3.41095C14.8241 3.74938 14.658 4.06025 14.414 4.30424C14.17 4.54824 13.8591 4.7144 13.5207 4.78172C13.1822 4.84904 12.8315 4.81449 12.5127 4.68244C12.1939 4.55039 11.9214 4.32677 11.7297 4.03986C11.538 3.75296 11.4357 3.41564 11.4357 3.07058C11.4357 2.60787 11.6195 2.16411 11.9467 1.83693C12.2738 1.50974 12.7176 1.32593 13.1803 1.32593ZM3.87547 10.0492C3.53041 10.0492 3.1931 9.94689 2.9062 9.75518C2.61929 9.56348 2.39567 9.291 2.26362 8.97221C2.13157 8.65341 2.09702 8.30262 2.16434 7.96419C2.23166 7.62576 2.39782 7.31489 2.64182 7.0709C2.88581 6.8269 3.19668 6.66074 3.53511 6.59342C3.87354 6.5261 4.22433 6.56065 4.54313 6.6927C4.86192 6.82475 5.1344 7.04837 5.3261 7.33527C5.51781 7.62218 5.62013 7.95949 5.62013 8.30455C5.62013 8.76727 5.43632 9.21103 5.10913 9.53821C4.78195 9.8654 4.33819 10.0492 3.87547 10.0492ZM13.1803 15.2832C12.8352 15.2832 12.4979 15.1809 12.211 14.9892C11.9241 14.7974 11.7005 14.525 11.5685 14.2062C11.4364 13.8874 11.4019 13.5366 11.4692 13.1982C11.5365 12.8597 11.7027 12.5489 11.9467 12.3049C12.1906 12.0609 12.5015 11.8947 12.8399 11.8274C13.1784 11.7601 13.5292 11.7946 13.848 11.9267C14.1668 12.0587 14.4392 12.2823 14.6309 12.5692C14.8226 12.8562 14.925 13.1935 14.925 13.5385C14.925 14.0012 14.7412 14.445 14.414 14.7722C14.0868 15.0994 13.643 15.2832 13.1803 15.2832Z" fill="#797474"/>
</svg>
