<svg width="17" height="18" viewBox="0 0 17 18" fill="none" xmlns="http://www.w3.org/2000/svg">
<path d="M4.74628 16.9997L2.61032 16.9997C2.15756 17.0077 1.71762 16.8492 1.37401 16.5543C1.03041 16.2593 0.807054 15.8485 0.746355 15.3997L0.746356 9.79984C0.807055 9.3511 1.03041 8.94026 1.37401 8.64532C1.71762 8.35037 2.15756 8.19186 2.61032 8.19987L4.74628 8.19987M10.3462 6.5999L10.3462 3.39996C10.3462 2.76345 10.0933 2.15301 9.64325 1.70293C9.19317 1.25285 8.58273 0.999999 7.94623 0.999999L4.74628 8.19987L4.74628 16.9997L13.7701 16.9997C14.156 17.0041 14.5304 16.8688 14.8244 16.6189C15.1184 16.369 15.3122 16.0213 15.3701 15.6397L16.4741 8.43987C16.5089 8.21056 16.4934 7.97642 16.4287 7.75368C16.3641 7.53094 16.2518 7.32492 16.0996 7.1499C15.9474 6.97488 15.7589 6.83504 15.5473 6.74007C15.3357 6.6451 15.106 6.59727 14.8741 6.5999L10.3462 6.5999Z" stroke="#706C64" stroke-linecap="round" stroke-linejoin="round"/>
</svg>
