<svg width="18" height="18" viewBox="0 0 18 18" fill="none" xmlns="http://www.w3.org/2000/svg">
<path d="M12.7459 1.00029H14.8819C15.3346 0.992282 15.7746 1.15079 16.1182 1.44574C16.4618 1.74068 16.6851 2.15152 16.7458 2.60026V8.20016C16.6851 8.6489 16.4618 9.05974 16.1182 9.35468C15.7746 9.64962 15.3346 9.80814 14.8819 9.80013H12.7459M7.14601 11.4001V14.6C7.14601 15.2366 7.39886 15.847 7.84894 16.2971C8.29902 16.7471 8.90945 17 9.54596 17L12.7459 9.80013V1.00029H3.72207C3.33621 0.995927 2.96178 1.13116 2.66776 1.38108C2.37375 1.63099 2.17996 1.97875 2.1221 2.36026L1.01812 9.56013C0.983312 9.78944 0.998779 10.0236 1.06345 10.2463C1.12811 10.4691 1.24043 10.6751 1.39262 10.8501C1.54482 11.0251 1.73324 11.165 1.94484 11.2599C2.15645 11.3549 2.38617 11.4027 2.61809 11.4001H7.14601Z" stroke="#706C64" stroke-linecap="round" stroke-linejoin="round"/>
</svg>
