<svg width="522" height="321" viewBox="0 0 522 321" fill="none" xmlns="http://www.w3.org/2000/svg">
<g opacity="0.2">
<g clip-path="url(#clip0_2521_4917)">
<path d="M492.975 231.29C492.955 232.779 492.924 234.234 492.877 235.693C492.83 237.151 492.777 238.568 492.707 239.991C492.323 247.754 491.608 255.463 490.566 263.062C490.516 263.443 490.463 263.824 490.41 264.199L490.381 264.41C490.236 265.428 490.089 266.437 489.94 267.437C489.664 269.235 489.379 270.999 489.085 272.73C489.031 273.045 488.976 273.367 488.922 273.679C488.134 278.198 487.288 282.466 486.404 286.443C486.257 287.106 486.11 287.764 485.963 288.41C485.564 290.154 485.166 291.841 484.766 293.47C484.483 294.625 484.199 295.746 483.915 296.834C482.399 302.686 480.94 307.549 479.761 311.204C478.171 316.145 476.902 319.92 476.902 319.92C476.902 319.92 37.8825 320.018 37.8625 319.997C15.0381 294.726 24.202 245.429 52.6577 208.895C73.9753 181.511 91.0161 174.367 79.8244 116.92C76.6621 100.686 77.4136 86.0623 80.5506 73.1055C90.4787 32.074 124.321 7.80927 133.303 2.39495C146.11 -5.34404 161.287 -9.66895 177.04 -11.2733C178.323 -11.4043 179.612 -11.5164 180.907 -11.6096C184.538 -11.8805 188.21 -12.0085 191.872 -11.9996C193.351 -11.9996 194.83 -11.9758 196.31 -11.9281C198.775 -11.8527 201.235 -11.7198 203.688 -11.5293C205.972 -11.3547 208.245 -11.1294 210.508 -10.8536C211 -10.7941 211.492 -10.7345 211.982 -10.6661C213.667 -10.4478 215.341 -10.2047 217.005 -9.93683C217.75 -9.81578 218.491 -9.69176 219.229 -9.56476C225.548 -8.44856 231.695 -6.97815 237.542 -5.19521C244.677 -3.05948 251.717 -0.14694 258.615 3.52306H258.635C273.63 11.5776 284.958 22.1085 294.02 33.0354C296.118 35.5714 298.095 38.1223 299.969 40.6732C300.228 41.0244 300.482 41.3756 300.735 41.7269C301.313 42.5206 301.881 43.3144 302.438 44.1081C302.697 44.4742 302.951 44.8403 303.206 45.2094C304.853 47.5907 306.426 49.949 307.925 52.2846C308.682 53.4614 309.421 54.6242 310.144 55.7731C314.103 62.0893 317.587 68.0216 320.905 73.1085C321.326 73.7544 321.74 74.3824 322.156 74.9986C327.847 83.446 333.142 89.1698 339.636 89.786C342.824 90.0836 346.425 89.5479 350.405 88.5716C351.494 88.3067 352.63 88.0031 353.785 87.6786L355.174 87.2768L355.382 87.2143C356.127 86.997 356.882 86.7678 357.65 86.5386C365.327 84.2139 374.086 81.3059 383.727 80.017C397.444 78.1864 412.954 79.6271 429.676 90.676C430.209 91.0272 430.74 91.3874 431.273 91.7594C433.718 93.456 436.188 95.367 438.684 97.4922C439.202 97.9367 439.72 98.3892 440.237 98.8495C442.779 101.108 445.343 103.613 447.931 106.365L448.112 106.571C449.231 107.761 450.353 109.005 451.48 110.303C452.794 111.813 454.113 113.393 455.437 115.042C458.653 119.038 461.897 123.467 465.17 128.329C467.533 131.851 469.719 135.417 471.727 139.027C473.107 141.507 474.409 144.003 475.63 146.513C475.849 146.959 476.065 147.406 476.279 147.864C478.307 152.129 480.178 156.589 481.882 161.22C482.087 161.782 482.288 162.339 482.484 162.896C484.605 168.862 486.423 175.104 487.92 181.559C488.043 182.079 488.159 182.6 488.274 183.124C488.9 185.924 489.457 188.72 489.942 191.512C490.61 195.334 491.154 199.144 491.59 202.933C492.652 212.281 493.116 221.785 492.975 231.29Z" fill="#EBF3FA"/>
<path d="M566.889 87.3393V180.547H340.293V-9.93652C341.514 -9.81542 342.729 -9.69134 343.94 -9.56429C354.304 -8.44758 364.386 -6.9765 373.976 -5.19274C385.677 -3.05604 397.223 -0.142168 408.537 3.52951H408.57C433.163 11.5877 451.742 22.1235 466.605 33.0553C470.047 35.5925 473.289 38.1445 476.362 40.6966C476.788 41.048 477.205 41.3994 477.618 41.7507C478.567 42.5449 479.498 43.339 480.411 44.1331C480.837 44.4993 481.254 44.8656 481.671 45.2349C484.372 47.6172 486.952 49.9767 489.412 52.3133C490.652 53.4906 491.865 54.654 493.05 55.8034C499.544 62.1225 505.257 68.0574 510.7 73.1467C511.391 73.7929 512.07 74.4212 512.751 75.0376C522.086 83.4889 530.771 89.2154 541.421 89.8318C546.649 90.1296 552.556 89.5936 559.082 88.6168C560.869 88.3518 562.733 88.048 564.626 87.7235L566.889 87.3393Z" fill="#F8FBFF"/>
<path d="M543.185 146.891V176.59H343.945V83.5635H361.711V111.833H381.969V65.7647H404.317V95.6716H409.415V59.9727H431.763V126.91H460.027V165.941H470.588V148.562H494.85V158.845H508.779V112.833H525.982V146.891H543.185Z" fill="#EBF3FE"/>
<path d="M343.94 -9.56419V174.83H332.055V-10.666C334.818 -10.4476 337.564 -10.2044 340.293 -9.93643C341.514 -9.81334 342.73 -9.68926 343.94 -9.56419Z" fill="#DFEBFD"/>
<path d="M570.949 183.922V172.037L326.036 172.037V183.922H570.949Z" fill="#DFEBFD"/>
<path d="M296.578 18.3926H261.609C259.998 18.3926 258.691 19.6992 258.691 21.3109V55.0683C258.691 56.6801 259.998 57.9867 261.609 57.9867H296.578C298.19 57.9867 299.496 56.6801 299.496 55.0683V21.3109C299.496 19.6992 298.19 18.3926 296.578 18.3926Z" fill="#C0D8FB"/>
<path d="M295.064 20.1074H263.126C261.654 20.1074 260.461 21.3007 260.461 22.7726V53.6057C260.461 55.0777 261.654 56.271 263.126 56.271H295.064C296.536 56.271 297.729 55.0777 297.729 53.6057V22.7726C297.729 21.3007 296.536 20.1074 295.064 20.1074Z" fill="#DFEBFD"/>
<path d="M278.25 23.7227C278.25 23.5554 278.3 23.3919 278.393 23.2528C278.485 23.1137 278.617 23.0053 278.772 22.9413C278.926 22.8773 279.097 22.8606 279.261 22.8932C279.425 22.9258 279.575 23.0064 279.693 23.1247C279.812 23.2429 279.892 23.3936 279.925 23.5577C279.958 23.7217 279.941 23.8918 279.877 24.0463C279.813 24.2009 279.704 24.333 279.565 24.4259C279.426 24.5188 279.263 24.5684 279.096 24.5684C278.871 24.5684 278.656 24.4793 278.498 24.3207C278.339 24.1621 278.25 23.947 278.25 23.7227Z" fill="#B7D3F3"/>
<path d="M285.069 24.9167C285.15 24.7704 285.272 24.6513 285.421 24.5746C285.569 24.4979 285.737 24.467 285.904 24.4858C286.07 24.5046 286.227 24.5723 286.354 24.6803C286.482 24.7883 286.575 24.9317 286.621 25.0925C286.667 25.2532 286.665 25.4241 286.614 25.5834C286.563 25.7428 286.466 25.8834 286.335 25.9877C286.205 26.0919 286.046 26.155 285.879 26.169C285.713 26.1829 285.545 26.1472 285.399 26.0662C285.302 26.0124 285.216 25.94 285.147 25.8532C285.078 25.7663 285.027 25.6667 284.996 25.5599C284.965 25.4532 284.956 25.3414 284.968 25.2311C284.981 25.1207 285.015 25.0139 285.069 24.9167Z" fill="#B7D3F3"/>
<path d="M290.913 29.5591C291.054 29.4687 291.218 29.422 291.385 29.4249C291.552 29.4279 291.715 29.4803 291.852 29.5755C291.989 29.6708 292.095 29.8046 292.157 29.9602C292.218 30.1157 292.232 30.2859 292.197 30.4493C292.161 30.6127 292.078 30.762 291.958 30.8783C291.838 30.9945 291.686 31.0726 291.522 31.1025C291.357 31.1325 291.188 31.1131 291.034 31.0467C290.881 30.9802 290.751 30.8698 290.66 30.7294C290.599 30.6361 290.558 30.5317 290.537 30.4222C290.517 30.3127 290.519 30.2003 290.542 30.0915C290.566 29.9827 290.611 29.8796 290.674 29.7882C290.738 29.6968 290.819 29.619 290.913 29.5591Z" fill="#B7D3F3"/>
<path d="M293.799 36.748C293.966 36.748 294.13 36.7977 294.269 36.8908C294.408 36.9838 294.516 37.1161 294.58 37.2708C294.644 37.4255 294.661 37.5957 294.628 37.7599C294.595 37.924 294.514 38.0747 294.396 38.1928C294.277 38.311 294.126 38.3913 293.962 38.4236C293.798 38.4559 293.628 38.4387 293.473 38.3743C293.319 38.3098 293.187 38.2009 293.094 38.0615C293.002 37.922 292.953 37.7582 292.953 37.5908C292.954 37.367 293.043 37.1527 293.202 36.9947C293.36 36.8367 293.575 36.748 293.799 36.748Z" fill="#B7D3F3"/>
<path d="M292.33 45.0861C292.449 45.2041 292.53 45.3548 292.563 45.519C292.596 45.6833 292.58 45.8537 292.516 46.0086C292.452 46.1635 292.344 46.296 292.205 46.3893C292.066 46.4825 291.902 46.5323 291.734 46.5323C291.567 46.5323 291.403 46.4825 291.264 46.3893C291.125 46.296 291.016 46.1635 290.952 46.0086C290.889 45.8537 290.872 45.6833 290.905 45.519C290.939 45.3548 291.02 45.2041 291.139 45.0861C291.297 44.929 291.511 44.8408 291.734 44.8408C291.957 44.8408 292.171 44.929 292.33 45.0861Z" fill="#B7D3F3"/>
<path d="M286.424 51.8516C286.891 51.8516 287.269 51.473 287.269 51.0059C287.269 50.5388 286.891 50.1602 286.424 50.1602C285.957 50.1602 285.578 50.5388 285.578 51.0059C285.578 51.473 285.957 51.8516 286.424 51.8516Z" fill="#B7D3F3"/>
<path d="M278.25 53.1533C278.25 52.9861 278.3 52.8226 278.393 52.6835C278.485 52.5444 278.617 52.436 278.772 52.372C278.926 52.308 279.097 52.2912 279.261 52.3239C279.425 52.3565 279.575 52.4371 279.693 52.5553C279.812 52.6736 279.892 52.8243 279.925 52.9883C279.958 53.1524 279.941 53.3224 279.877 53.477C279.813 53.6315 279.704 53.7636 279.565 53.8565C279.426 53.9494 279.263 53.999 279.096 53.999C278.871 53.999 278.656 53.91 278.498 53.7514C278.339 53.5927 278.25 53.3776 278.25 53.1533Z" fill="#B7D3F3"/>
<path d="M273.093 24.9167C273.012 24.7704 272.89 24.6513 272.741 24.5746C272.592 24.4979 272.424 24.467 272.258 24.4858C272.092 24.5046 271.935 24.5723 271.808 24.6803C271.68 24.7883 271.587 24.9317 271.541 25.0925C271.495 25.2532 271.497 25.4241 271.548 25.5834C271.599 25.7428 271.696 25.8834 271.826 25.9877C271.957 26.0919 272.116 26.155 272.283 26.169C272.449 26.1829 272.616 26.1472 272.763 26.0662C272.86 26.0124 272.946 25.94 273.015 25.8532C273.084 25.7663 273.135 25.6667 273.166 25.5599C273.197 25.4532 273.206 25.3414 273.194 25.2311C273.181 25.1207 273.147 25.0139 273.093 24.9167Z" fill="#B7D3F3"/>
<path d="M267.248 29.5591C267.107 29.4687 266.943 29.422 266.776 29.4249C266.609 29.4279 266.446 29.4803 266.309 29.5755C266.172 29.6708 266.066 29.8046 266.004 29.9602C265.943 30.1157 265.929 30.2859 265.964 30.4493C266 30.6127 266.083 30.762 266.203 30.8783C266.323 30.9945 266.475 31.0726 266.639 31.1025C266.804 31.1325 266.973 31.1131 267.127 31.0467C267.28 30.9802 267.41 30.8698 267.501 30.7294C267.562 30.6361 267.604 30.5317 267.624 30.4222C267.644 30.3127 267.642 30.2003 267.619 30.0915C267.595 29.9827 267.55 29.8796 267.487 29.7882C267.423 29.6968 267.342 29.619 267.248 29.5591Z" fill="#B7D3F3"/>
<path d="M264.355 36.748C264.188 36.748 264.024 36.7977 263.885 36.8908C263.746 36.9838 263.638 37.1161 263.574 37.2708C263.51 37.4255 263.493 37.5957 263.526 37.7599C263.559 37.924 263.64 38.0747 263.758 38.1928C263.877 38.311 264.028 38.3913 264.192 38.4236C264.356 38.4559 264.527 38.4387 264.681 38.3743C264.835 38.3098 264.967 38.2009 265.06 38.0615C265.152 37.922 265.201 37.7582 265.201 37.5908C265.2 37.367 265.111 37.1527 264.952 36.9947C264.794 36.8367 264.579 36.748 264.355 36.748Z" fill="#B7D3F3"/>
<path d="M265.832 45.0866C265.713 45.2046 265.632 45.3553 265.599 45.5196C265.566 45.6838 265.582 45.8542 265.646 46.0091C265.71 46.1641 265.818 46.2966 265.957 46.3898C266.096 46.483 266.26 46.5328 266.428 46.5328C266.595 46.5328 266.759 46.483 266.898 46.3898C267.037 46.2966 267.146 46.1641 267.21 46.0091C267.273 45.8542 267.29 45.6838 267.256 45.5196C267.223 45.3553 267.142 45.2046 267.023 45.0866C266.864 44.9309 266.65 44.8438 266.428 44.8438C266.205 44.8438 265.991 44.9309 265.832 45.0866Z" fill="#B7D3F3"/>
<path d="M271.74 51.8516C272.207 51.8516 272.586 51.473 272.586 51.0059C272.586 50.5388 272.207 50.1602 271.74 50.1602C271.273 50.1602 270.895 50.5388 270.895 51.0059C270.895 51.473 271.273 51.8516 271.74 51.8516Z" fill="#B7D3F3"/>
<path d="M278.867 37.5908C278.867 37.4236 278.917 37.2601 279.01 37.121C279.103 36.9819 279.235 36.8735 279.389 36.8095C279.544 36.7455 279.714 36.7287 279.878 36.7614C280.042 36.794 280.192 36.8746 280.311 36.9928C280.429 37.1111 280.509 37.2618 280.542 37.4259C280.575 37.5899 280.558 37.7599 280.494 37.9145C280.43 38.069 280.322 38.2011 280.183 38.294C280.043 38.387 279.88 38.4366 279.713 38.4366C279.488 38.4366 279.273 38.3475 279.115 38.1889C278.956 38.0303 278.867 37.8151 278.867 37.5908Z" fill="#B7D3F3"/>
<path d="M279.825 27.0312H279.596V37.5909H279.825V27.0312Z" fill="#B7D3F3"/>
<path d="M284.994 32.9395L279.396 37.334L279.825 37.8798L285.422 33.4853L284.994 32.9395Z" fill="#B7D3F3"/>
<path d="M377.35 229.489C376.325 231.916 366.506 234.168 351.929 236.16C349.358 236.511 346.65 236.855 343.803 237.19C294.197 243.024 158.328 246.3 149.956 244.572C138.382 242.19 115.355 125.799 115.355 125.799C115.355 125.799 183.156 124.608 237.005 124.051C255.426 123.858 319.499 123.369 331.388 123.369C349.773 123.369 378.999 225.556 377.35 229.489Z" fill="#87C8DC"/>
<path d="M358.584 214.549C358.584 214.549 337.766 134.795 336.254 128.095C335.587 125.117 333.524 124.027 331.445 123.75C335.102 123.396 337.766 123.372 337.766 123.372C344.969 123.372 351.367 128.217 353.68 135.424C358.721 151.138 368.737 181.331 378.142 210.848C377.675 210.836 358.584 214.549 358.584 214.549Z" fill="#3B8FAA"/>
<path d="M484.752 285.161C481.432 305.167 459.724 317.918 437.456 317.918H393.355L396.773 202.337C396.773 202.337 438.882 188.615 449.452 200.696C458.709 211.28 483.82 253.179 485.139 277.979C485.273 280.38 485.143 282.789 484.752 285.161Z" fill="#87C8DC"/>
<path d="M484.751 285.161C481.432 305.166 459.724 317.918 437.456 317.918H415.822C430.251 308.71 443.292 280.372 484.751 285.161Z" fill="#87C8DC"/>
<path d="M367.68 213.65C367.68 213.65 427.174 185.092 438.443 203.749C444.424 213.653 460.892 253.182 462.107 277.967C463.298 302.064 441.09 317.906 418.253 317.906H377.699L367.68 213.65Z" fill="#2B83A1"/>
<path d="M361.727 175.047C361.727 175.047 391.831 173.674 413.896 181.756C413.682 193.531 412.429 205.264 410.151 216.818C410.151 216.818 350.69 212.878 350.901 210.839C351.112 208.799 351.604 188.692 361.727 175.047Z" fill="#FCCC44"/>
<path d="M337.771 198.391C337.771 198.391 355.498 189.159 371.258 189.302C374.717 198.353 377.532 207.638 379.681 217.086C379.681 217.086 342.642 230.272 342.145 228.658C341.648 227.044 335.827 211.562 337.771 198.391Z" fill="#FF6285"/>
<path d="M451.355 301.941C450.696 302.467 450.021 302.985 449.33 303.495C440.734 309.829 429.527 314.871 416.707 317.995C406.429 320.46 395.885 321.646 385.316 321.526H366.032H365.779L274.496 321.55H222.171H221.376V321.526L219.569 312.042L203 216.249C203 216.249 432.29 211.091 450.932 221.74C459.59 226.68 464.503 247.153 467.227 269.711C468.677 281.724 462.544 292.998 451.355 301.941Z" fill="#87C8DC"/>
<path d="M446.067 298.437C445.408 298.963 444.733 299.481 444.042 299.991C435.446 306.325 424.24 311.367 411.419 314.491C401.141 316.956 390.598 318.142 380.029 318.022H360.744H360.491L269.208 318.046H216.883L216.103 318.022L214.281 308.538C246.351 302.338 290.731 296.031 337.023 296.531C381.237 297.007 418.252 296.948 446.067 298.437Z" fill="#CDF2FA"/>
<path d="M327.031 125.209C326.449 124.984 325.892 124.695 325.373 124.349H337.529C337.529 124.349 332.864 121.707 329.833 120.361C326.802 119.015 319.373 120.361 319.373 120.361C319.373 120.361 291.868 116.27 276.449 116.654C272.31 116.755 242.894 111.961 234.417 113.658C229.951 114.551 225.902 115.263 223.299 115.689C222.923 115.75 222.537 115.732 222.168 115.637C221.798 115.542 221.452 115.372 221.151 115.138C220.85 114.903 220.601 114.608 220.419 114.273C220.237 113.937 220.126 113.568 220.093 113.188V113.158C219.611 107.601 218.902 104.486 218.902 104.486L208.567 99.4893L203.372 102.253C203.424 102.825 203.458 103.387 203.476 103.941C203.565 106.497 203.327 109.054 202.767 111.55C202.299 113.56 201.29 115.405 199.849 116.883C198.408 118.361 196.59 119.417 194.592 119.935H194.541C202.3 126.615 241.765 138.255 242.432 134.843C243.325 130.251 319.373 124.331 319.373 124.331C319.373 124.331 321.49 125.132 322.017 125.891C322.544 126.651 326.781 126.532 327.579 126.648C328.377 126.764 327.966 125.501 327.031 125.209Z" fill="#FFB27D"/>
<path d="M354.022 294.023C354.022 294.023 362.043 308.493 365.595 310.122C368.417 311.42 376.051 312.701 380.306 315.976C385.243 319.776 376.697 319.577 374.819 319.577C374.819 319.577 365.258 318.436 360.727 318.531C358.119 318.588 350.342 319.577 350.342 319.577C348.903 319.579 347.481 319.264 346.178 318.655C344.874 318.045 343.721 317.155 342.8 316.05C341.88 314.944 341.214 313.648 340.851 312.256C340.487 310.863 340.435 309.408 340.698 307.993C340.698 307.936 340.719 307.883 340.728 307.826C341.838 302.236 342.702 295.021 342.702 295.021L354.022 294.023Z" fill="white"/>
<path d="M254.084 122.19C253.917 125.951 252.869 130.073 249.519 132.249C244.228 135.68 245.568 144.64 245.601 148.157L222.955 115.722C227.497 114.624 232.103 113.814 236.746 113.295C241.317 112.795 253.345 114.171 253.345 114.171C253.93 116.802 254.178 119.496 254.084 122.19Z" fill="white"/>
<path d="M318.992 299.688C318.992 299.688 326.987 308.493 330.539 310.11C333.075 311.278 339.908 311.957 343.975 314.911C348.269 318.028 344.979 319.565 342.487 319.565C342.487 319.565 331.066 320.458 323.789 318.422C321.806 317.865 316.381 318.975 314.446 319.404C313.85 319.535 310.129 319.842 309.533 319.765C305.097 319.199 304.894 314.943 305.311 310.369C305.392 309.521 305.508 308.66 305.674 307.814C306.785 302.225 307.461 297.025 307.461 297.025L318.992 299.688Z" fill="white"/>
<path d="M358.381 294.839C358.381 294.839 355.493 296.855 352.953 297.701C348.958 299.035 341.508 298.416 341.508 298.416C341.508 298.416 322.486 261.508 318.469 252.172C314.667 243.322 311.481 223.918 311.481 223.918C308.576 223.76 286.844 226.839 267.753 224.773C257.597 223.677 248.995 221.169 246.095 216.038C237.705 201.259 264.504 184.771 264.504 184.771C264.504 184.771 316.906 194.216 328.411 202.578C339.323 210.52 358.381 294.839 358.381 294.839Z" fill="#3E1A4A"/>
<path d="M321.845 299.252C321.845 299.252 317.772 301.384 315.134 301.831C310.34 302.644 305.181 301.042 305.181 301.042C305.181 301.042 302.254 283.362 290.258 255.069C287.248 247.973 287.712 233.42 287.307 233.238C287.307 233.238 221.767 233.798 214.153 219.075C212.921 216.693 211.545 209.957 211.697 207.759C212.492 196.116 227.608 191.622 227.608 191.622C227.608 191.622 295.93 203.706 307.658 211.768C319.386 219.829 321.845 299.252 321.845 299.252Z" fill="#52275F"/>
<path d="M270.018 185.27C266.037 192.376 261.892 197.998 246.648 200.636C227.444 203.963 216.922 208.027 211.598 209.636C207.528 210.865 195.833 195.958 190.26 182.656C184.865 169.767 180.271 149.705 180.238 148.157C179.758 124.244 197.932 118.503 197.941 118.44C197.941 118.44 211.438 127.621 218.783 124.432C226.024 121.287 223.044 115.88 222.951 115.722L242.429 134.849C242.429 134.849 246.818 151.638 252.106 163.824C260.121 182.295 271.113 183.314 270.018 185.27Z" fill="white"/>
<path d="M218.915 104.495C218.915 104.495 219.609 107.61 220.106 113.167C211.323 112.869 204.371 103.772 204.326 103.2C205.386 102.634 206.452 100.621 208.59 99.4863L218.915 104.495Z" fill="#ED985F"/>
<path d="M220.962 110.088C220.962 110.088 202.485 109.561 202.991 98.0571C203.497 86.5535 201.451 78.7365 213.269 78.5876C225.086 78.4387 227.188 82.9264 227.953 86.8066C228.718 90.6868 225.782 109.927 220.962 110.088Z" fill="#FFB27D"/>
<path d="M203.988 102.708C203.988 102.708 203.249 98.8847 205.322 96.3535C205.322 96.3535 203.961 92.6073 205.402 91.7586C206.843 90.9099 207.605 94.1141 208.237 93.5096C208.868 92.9051 211.649 90.0552 212.494 86.309C213.34 82.5628 226.163 85.1923 227.679 85.639C227.996 85.7085 228.325 85.6931 228.634 85.5943C231.844 84.7724 232.803 80.6034 230.317 78.4087C230.165 78.2747 230.019 78.1407 229.897 78.0126C228.539 76.6428 219.104 67.4381 208.311 71.9079C197.518 76.3778 196.735 81.9196 197.991 86.4252C199.248 90.9307 199.188 101.803 203.988 102.708Z" fill="#2B478B"/>
<path d="M217.08 103.019C218.016 104.147 219.33 104.896 220.778 105.127C223.276 105.565 223.824 103.614 223.824 103.614C223.824 103.614 221.531 102.858 217.08 103.019Z" fill="white"/>
<path d="M179.3 139.176C179.3 139.176 176.724 143.276 184.168 154.065C191.611 164.854 224.234 196.015 227.489 193.394C230.743 190.774 234.816 186.712 227.254 176.7C219.691 166.689 195.515 132.41 195.515 132.41L179.3 139.176Z" fill="#FFB27D"/>
<path d="M213.392 153.937C207.234 157.37 202.712 160.116 193.285 160.095C188.934 160.073 184.597 159.603 180.343 158.692C180.343 158.692 173.054 129.048 186.673 122.958C191.362 120.873 197.942 118.452 197.942 118.452C197.942 118.452 224.426 147.781 213.392 153.937Z" fill="white"/>
<path d="M265.031 131.183L261.94 121.707L246.154 148.362L250.954 156.03L265.031 131.183Z" fill="#163560"/>
<path d="M239.301 131.415L224.504 156.825L250.955 156.03L265.032 131.183L239.301 131.415Z" fill="#1C468A"/>
<path d="M225.275 155.548L224.98 154.687L238.98 130.638L239.302 131.415L225.275 155.548Z" fill="#EFDECE"/>
<path d="M238.979 130.638L263.917 130.6L265.031 131.183L239.3 131.416L238.979 130.638Z" fill="#FCECDB"/>
<path d="M265.031 131.183L261.473 122.05L256.43 130.611L263.918 130.599L265.031 131.183Z" fill="#EFDECE"/>
<path d="M253.088 155.831C253.088 155.831 258.096 152.531 260.668 150.953C263.241 149.375 262.497 137.576 261.315 137.743C261.315 137.743 259.483 141.078 258.846 141.858C256.512 144.723 251.546 146.075 249.736 148.782C246.419 153.743 253.088 155.831 253.088 155.831Z" fill="#FFB27D"/>
<path d="M248.352 150.036C248.352 150.036 249.328 146.483 249.141 145.891C248.953 145.298 251.025 142.282 251.466 141.15C251.907 140.018 252.475 138.285 253.077 139.066C253.678 139.846 253.511 141.448 253.077 142.675C252.642 143.902 253.776 145.805 253.776 145.805L252.362 148.22L248.352 150.036Z" fill="#FFB27D"/>
<path d="M249.835 148.493C249.835 148.493 225.858 172.412 222.955 176.298C220.052 180.184 225.563 193.59 226.528 193.486C227.493 193.382 238.274 183.635 242.171 175.512C246.069 167.388 253.229 155.613 253.229 155.613L249.835 148.493Z" fill="#FFB27D"/>
<path d="M261.361 286.203C257.788 305.604 238.161 317.9 218.043 317.9H177.488L180.659 201.304C180.659 201.304 219.365 188.603 229.074 200.684C237.59 211.268 260.679 253.167 261.897 277.966C262.038 280.724 261.858 283.488 261.361 286.203Z" fill="#CDF2FA"/>
<path d="M261.361 286.203C257.788 305.604 238.161 317.9 218.043 317.9H185.59C200.78 308.239 221.235 281.468 261.361 286.203Z" fill="#CDF2FA"/>
<path d="M238.151 287.019C236.537 294.681 232.416 301.197 226.774 306.247C223.341 309.294 219.456 311.788 215.258 313.642C209.954 315.998 204.279 317.409 198.489 317.811C198.191 317.829 197.894 317.849 197.596 317.864C197.355 317.864 197.114 317.888 196.873 317.894C196.468 317.912 196.066 317.924 195.664 317.927H195.021H154.457V317.906L152.114 317.936C147.945 317.983 143.578 318.028 139.531 318.061L137.528 318.079H136.798C132.802 318.105 129.265 318.117 126.746 318.099C123.39 318.096 120.038 317.853 116.716 317.373C112.88 316.834 109.125 315.823 105.536 314.365C104.928 314.111 104.333 313.845 103.749 313.567C103.154 313.269 102.558 312.972 101.987 312.674C100.453 311.843 98.9817 310.901 97.5861 309.854C93.8576 307.016 90.6859 303.512 88.2312 299.52C86.2796 296.372 84.6507 293.035 83.3691 289.559C81.5221 284.513 80.1272 279.312 79.2008 274.018C79.1711 273.869 79.1413 273.72 79.1175 273.571C78.6292 270.897 78.2074 268.083 77.8521 265.129C77.6883 263.78 77.5395 262.407 77.4025 261.001C76.9202 256.038 76.5976 250.696 76.4349 244.974C76.4349 244.477 76.411 243.974 76.3991 243.485V243.149C76.3019 238.599 76.3019 233.805 76.3991 228.769C76.4348 226.562 76.4944 224.302 76.5659 222C76.6016 220.952 76.6373 219.895 76.679 218.825C76.8775 213.465 77.1752 207.848 77.5722 201.974C77.7449 199.331 77.9364 196.637 78.1468 193.892C79.0103 182.576 80.1695 170.319 81.6244 157.121C83.2679 142.127 85.1615 131.645 87.9156 129.256C91.9767 125.734 100.45 124.316 106.349 123.75C110.008 123.396 112.666 123.372 112.666 123.372H113.059H113.339C113.563 123.372 113.786 123.396 114.009 123.417L114.384 123.452C114.468 123.452 114.548 123.452 114.629 123.479L114.998 123.53C115.218 123.563 115.432 123.598 115.65 123.64L116.096 123.732H116.135L116.457 123.807C116.662 123.854 116.865 123.911 117.052 123.968C117.189 124.009 117.326 124.048 117.46 124.093L117.758 124.185C118.883 124.564 119.964 125.063 120.982 125.674C124.613 127.899 127.314 131.365 128.584 135.43C133.291 150.143 141.684 176.45 150.44 203.966C150.482 204.103 150.527 204.243 150.571 204.38C151.072 205.968 151.575 207.556 152.081 209.144C152.132 209.305 152.179 209.469 152.233 209.627C152.26 209.707 152.286 209.791 152.31 209.871C152.804 209.662 153.314 209.445 153.844 209.231C153.86 209.22 153.878 209.212 153.897 209.207C155.981 208.331 158.363 207.372 160.93 206.399C162.255 205.892 163.63 205.377 165.05 204.868C169.052 203.427 173.387 202 177.752 200.773C179.693 200.226 181.652 199.713 183.593 199.264C186.091 198.683 188.569 198.189 190.986 197.825L191.195 197.793C191.492 197.748 191.763 197.709 192.049 197.67C193.752 197.435 195.417 197.266 197.03 197.173C205.278 196.697 212.108 198.248 215.234 203.427C216.875 206.323 218.367 209.302 219.703 212.352C224.319 222.563 228.324 233.04 231.696 243.727C235.429 255.582 238.368 267.928 238.856 277.904C239.015 280.96 238.777 284.024 238.151 287.019Z" fill="#2B83A1"/>
<path d="M133.432 214.549C133.432 214.549 112.614 134.795 111.101 128.095C110.434 125.117 108.371 124.027 106.293 123.75C109.952 123.396 112.614 123.372 112.614 123.372C119.816 123.372 126.218 128.217 128.528 135.424C133.569 151.138 142.852 180.119 152.255 209.636C151.778 209.624 133.432 214.549 133.432 214.549Z" fill="#CDF2FA"/>
<path d="M507.435 318H0.565354C0.253118 318 0 318.39 0 318.87V319.13C0 319.61 0.253118 320 0.565354 320H507.435C507.747 320 508 319.61 508 319.13V318.87C508 318.39 507.747 318 507.435 318Z" fill="#233862"/>
<path d="M119.777 265.12C119.777 265.12 111.259 255.179 119.25 248.866C119.25 248.866 125.089 245.332 129.85 245.617C129.85 245.617 123.103 256.933 125.285 258.056C127.468 259.179 131.895 244.909 131.895 244.909C131.895 244.909 145.18 243.619 149.461 245.677C149.461 245.677 138.106 254.971 140.497 255.525C142.887 256.079 155.157 246.954 155.157 246.954C155.157 246.954 167.522 249.06 166.861 256.603C166.2 264.146 161.943 266.477 160.07 266.275C158.197 266.073 147.243 261.895 147.005 263.428C146.767 264.962 153.359 269.98 157.977 270.212C157.977 270.212 149.259 279.827 143.465 277.061C137.671 274.294 137.177 269.887 133.565 268.237C129.954 266.588 126.869 266.594 128.361 268.276C129.853 269.959 136.4 271.594 138.454 275.247C140.509 278.901 142.372 281.364 136.37 280.465C130.368 279.565 120.632 275.173 120.203 270.152L119.777 265.12Z" fill="#82B378"/>
<path d="M160.778 256.805C160.778 256.805 127.194 255.513 119.777 265.119C119.777 265.119 118.136 270.033 113.09 274.506L112.301 276.65C112.301 276.65 118.133 270.512 120.218 270.143C120.218 270.143 116.943 258.241 160.778 256.805Z" fill="#82B378"/>
<path d="M113.09 274.507C113.09 274.507 105.879 279.837 105.379 289.366L106.689 289.482C106.689 289.482 108.99 279.631 113.153 275.784C117.315 271.937 113.09 274.507 113.09 274.507Z" fill="#82B378"/>
<path d="M89.9952 252.619C89.9952 252.619 103.545 245.031 97.2213 234.731C97.2213 234.731 92.1598 228.406 86.7439 226.78C86.7439 226.78 89.6349 242.14 86.7439 242.5C83.8529 242.86 84.758 225.157 84.758 225.157C84.758 225.157 70.4845 218.29 64.884 218.832C64.884 218.832 73.7358 233.831 70.8388 233.468C67.9418 233.105 58.0123 217.93 58.0123 217.93C58.0123 217.93 43.3785 215.22 41.0413 223.885C38.704 232.551 42.4853 236.893 44.6528 237.435C46.8203 237.977 60.7306 237.798 60.3704 239.603C60.0101 241.407 50.6165 244.302 45.3763 242.676C45.3763 242.676 51.1584 256.952 58.7447 256.228C66.3311 255.505 68.6802 250.808 73.3785 250.445C78.0768 250.082 81.5067 251.339 79.1606 252.613C76.8144 253.888 68.8618 253.027 65.0686 256.255C61.2755 259.483 58.2028 261.469 65.2473 262.914C72.2918 264.358 84.9396 263.456 87.4704 258.036L89.9952 252.619Z" fill="#A8D29F"/>
<path d="M47.7207 226.601C47.7207 226.601 85.6584 238.887 89.9994 252.618C89.9994 252.618 89.8208 258.762 93.614 265.81V268.52C93.614 268.52 89.6392 259.304 87.4716 258.041C87.4657 258.041 95.9571 246.115 47.7207 226.601Z" fill="#82B378"/>
<path d="M93.6091 265.81C93.6091 265.81 99.4596 274.696 96.125 285.512L94.6184 285.11C94.6184 285.11 96.0803 273.198 93.0196 267.201C89.9588 261.204 93.6091 265.81 93.6091 265.81Z" fill="#82B378"/>
<path d="M111.551 242.155C111.551 242.155 93.6866 232.149 102.023 218.573C102.023 218.573 108.693 210.235 115.835 208.094C115.835 208.094 112.024 228.343 115.835 228.814C119.646 229.284 118.455 205.949 118.455 205.949C118.455 205.949 137.269 196.897 144.656 197.611C144.656 197.611 132.988 217.382 136.799 216.905C140.61 216.429 153.707 196.42 153.707 196.42C153.707 196.42 172.995 192.847 176.091 204.282C179.188 215.717 174.186 221.432 171.328 222.149C168.469 222.867 150.132 222.626 150.608 225.008C151.084 227.39 163.467 231.199 170.375 229.055C170.375 229.055 162.753 247.872 152.752 246.922C142.751 245.972 139.651 239.775 133.461 239.302C127.271 238.828 122.743 240.493 125.839 242.161C128.936 243.828 139.416 242.706 144.415 246.958C149.414 251.21 153.466 253.831 144.177 255.737C134.887 257.643 118.22 256.451 114.885 249.305L111.551 242.155Z" fill="#A8D29F"/>
<path d="M167.278 207.855C167.278 207.855 117.259 224.052 111.551 242.155C111.551 242.155 111.789 250.252 106.787 259.54V263.113C106.787 263.113 112.024 250.966 114.883 249.299C114.886 249.299 103.694 233.578 167.278 207.855Z" fill="#82B378"/>
<path d="M106.789 259.539C106.789 259.539 99.0746 271.254 103.472 285.512L105.455 284.979C105.455 284.979 103.532 269.274 107.566 261.376C111.6 253.479 106.789 259.539 106.789 259.539Z" fill="#82B378"/>
<path d="M145.936 281.438C145.997 286.072 145.136 290.671 143.405 294.969C141.674 299.268 139.107 303.179 135.852 306.477C132.598 309.775 128.721 312.393 124.446 314.181C120.172 315.968 115.585 316.888 110.952 316.888C106.319 316.888 101.732 315.968 97.4576 314.181C93.1831 312.393 89.3061 309.775 86.0515 306.477C82.7969 303.179 80.2296 299.268 78.4986 294.969C76.7676 290.671 75.9074 286.072 75.9678 281.438H145.936Z" fill="#ED7D2B"/>
<path d="M122.897 281.438C122.897 294.541 119.759 307.903 109.088 313.898C107.302 314.895 101.374 313.814 99.4267 314.493C92.5684 312.101 86.6242 307.634 82.4182 301.711C78.2122 295.788 75.9527 288.703 75.9531 281.438H122.897Z" fill="#F99746"/>
<path d="M146.419 318.215H75.4805C75.4813 317.07 75.9364 315.973 76.7458 315.163C77.5553 314.353 78.6529 313.898 79.7977 313.897H142.105C143.25 313.898 144.347 314.354 145.156 315.163C145.965 315.973 146.419 317.071 146.419 318.215Z" fill="#ED7D2B"/>
<path d="M113.183 318.215H75.4805C75.4813 317.07 75.9364 315.973 76.7458 315.163C77.5553 314.353 78.6529 313.898 79.7977 313.897H108.866C110.011 313.897 111.109 314.352 111.918 315.162C112.728 315.972 113.183 317.07 113.183 318.215Z" fill="#F99746"/>
<path d="M146.731 281.441H74.8125V282.513H146.731V281.441Z" fill="#B5453C"/>
<path d="M516.984 132.842C516.984 132.842 569.228 149.759 575.198 168.669C575.198 168.669 574.948 177.129 580.173 186.834V190.565C580.173 190.565 574.701 177.876 571.714 176.134C571.714 176.143 583.407 159.72 516.984 132.842Z" fill="#D4E4F8"/>
</g>
</g>
<defs>
<clipPath id="clip0_2521_4917">
<rect width="522" height="320.324" fill="white"/>
</clipPath>
</defs>
</svg>
