<svg width="76" height="76" viewBox="0 0 76 76" fill="none" xmlns="http://www.w3.org/2000/svg">
<path d="M59.8965 9.45215H15.7859C12.3057 9.45215 9.48438 12.2734 9.48438 15.7537V59.8643C9.48438 63.3445 12.3057 66.1658 15.7859 66.1658H59.8965C63.3767 66.1658 66.198 63.3445 66.198 59.8643V15.7537C66.198 12.2734 63.3767 9.45215 59.8965 9.45215Z" stroke="#C4C4C4" stroke-width="2" stroke-linecap="round" stroke-linejoin="round"/>
<path d="M26.8121 31.5079C29.4222 31.5079 31.5382 29.392 31.5382 26.7818C31.5382 24.1716 29.4222 22.0557 26.8121 22.0557C24.2019 22.0557 22.0859 24.1716 22.0859 26.7818C22.0859 29.392 24.2019 31.5079 26.8121 31.5079Z" stroke="#C4C4C4" stroke-width="2" stroke-linecap="round" stroke-linejoin="round"/>
<path d="M66.1973 47.2616L50.4435 31.5078L15.7852 66.1661" stroke="#C4C4C4" stroke-width="2" stroke-linecap="round" stroke-linejoin="round"/>
</svg>
