<svg width="17" height="20" viewBox="0 0 17 20" fill="none" xmlns="http://www.w3.org/2000/svg">
<path d="M8.42105 1.27776e-08C9.22947 -7.26652e-05 10.0071 0.309897 10.5938 0.866056C11.1805 1.42222 11.5316 2.18221 11.5747 2.98947L11.5789 3.15789H16.2105C16.3705 3.15794 16.5246 3.21873 16.6415 3.32798C16.7584 3.43722 16.8295 3.58678 16.8404 3.74643C16.8513 3.90607 16.8012 4.06391 16.7003 4.18804C16.5993 4.31217 16.4549 4.39335 16.2964 4.41516L16.2105 4.42105H15.3187L14.8051 10.7592L14.2914 17.0973C14.2273 17.8881 13.8678 18.6258 13.2846 19.1636C12.7013 19.7015 11.937 20.0001 11.1436 20H5.69853C4.90513 20.0001 4.14079 19.7015 3.55753 19.1636C2.97427 18.6258 2.61484 17.8881 2.55074 17.0973L1.52253 4.42105H0.631579C0.478958 4.42105 0.331502 4.36577 0.21648 4.26546C0.101458 4.16514 0.0266512 4.02657 0.00589471 3.87537L0 3.78947C6.43612e-06 3.63685 0.0552782 3.4894 0.155593 3.37437C0.255909 3.25935 0.394481 3.18455 0.545684 3.16379L0.631579 3.15789H5.26316C5.26316 2.32037 5.59586 1.51715 6.18808 0.924926C6.7803 0.332706 7.58353 1.27776e-08 8.42105 1.27776e-08ZM14.0522 4.42105H2.78989L3.80968 16.9954C3.84819 17.4698 4.06389 17.9124 4.41388 18.2351C4.76386 18.5578 5.22249 18.7369 5.69853 18.7368H11.1436C11.6196 18.7369 12.0782 18.5578 12.4282 18.2351C12.7782 17.9124 12.9939 17.4698 13.0324 16.9954L14.0522 4.42105ZM6.52631 7.57895C6.67894 7.57895 6.82639 7.63422 6.94141 7.73454C7.05644 7.83486 7.13124 7.97343 7.152 8.12463L7.15789 8.21053V14.9474C7.15784 15.1074 7.09706 15.2614 6.98781 15.3783C6.87857 15.4953 6.72901 15.5664 6.56936 15.5773C6.40972 15.5882 6.25188 15.5381 6.12775 15.4371C6.00362 15.3361 5.92244 15.1918 5.90063 15.0333L5.89474 14.9474V8.21053C5.89474 8.04302 5.96128 7.88238 6.07972 7.76393C6.19817 7.64549 6.35881 7.57895 6.52631 7.57895ZM10.3158 7.57895C10.4684 7.57895 10.6159 7.63422 10.7309 7.73454C10.8459 7.83486 10.9207 7.97343 10.9415 8.12463L10.9474 8.21053V14.9474C10.9473 15.1074 10.8865 15.2614 10.7773 15.3783C10.668 15.4953 10.5185 15.5664 10.3588 15.5773C10.1992 15.5882 10.0414 15.5381 9.91722 15.4371C9.79309 15.3361 9.71192 15.1918 9.6901 15.0333L9.68421 14.9474V8.21053C9.68421 8.04302 9.75075 7.88238 9.86919 7.76393C9.98764 7.64549 10.1483 7.57895 10.3158 7.57895ZM8.42105 1.26316C7.94095 1.2631 7.47872 1.4453 7.12779 1.77294C6.77685 2.10058 6.56339 2.54923 6.53053 3.02821L6.52631 3.15789H10.3158L10.3116 3.02821C10.2787 2.54923 10.0652 2.10058 9.71432 1.77294C9.36339 1.4453 8.90116 1.2631 8.42105 1.26316Z" fill="#155A61"/>
</svg>
