<svg width="24" height="24" viewBox="0 0 24 24" fill="none" xmlns="http://www.w3.org/2000/svg">
<path d="M11.9888 2.87006e-06C9.61561 0.00164411 7.29615 0.706887 5.32368 2.02658C3.35121 3.34626 1.8143 5.22114 0.907243 7.41419C0.000185605 9.60723 -0.236291 12.02 0.227709 14.3474C0.691708 16.6748 1.83535 18.8124 3.51406 20.49C5.19276 22.1675 7.33116 23.3097 9.6589 23.7721C11.9867 24.2345 14.3992 23.9963 16.5917 23.0878C18.7841 22.1792 20.6579 20.641 21.9762 18.6676C23.2945 16.6942 23.9982 14.3743 23.9982 12.001C23.9982 10.4243 23.6875 8.8631 23.0839 7.40652C22.4802 5.94995 21.5955 4.6266 20.4802 3.51209C19.3649 2.39758 18.041 1.51376 16.584 0.911144C15.127 0.308524 13.5655 -0.00108752 11.9888 2.87006e-06ZM16.0867 7.67701C16.0867 7.73204 16.0648 7.78482 16.0259 7.82373C15.987 7.86264 15.9342 7.8845 15.8792 7.8845H12.9661V9.45518H15.8875C15.9425 9.45518 15.9953 9.47704 16.0342 9.51595C16.0731 9.55486 16.095 9.60763 16.095 9.66266V12.582C16.095 12.637 16.0731 12.6898 16.0342 12.7287C15.9953 12.7676 15.9425 12.7895 15.8875 12.7895H13.1736V19.2008C13.1736 19.2559 13.1517 19.3086 13.1128 19.3475C13.0739 19.3865 13.0211 19.4083 12.9661 19.4083H10.2065C10.1515 19.4083 10.0987 19.3865 10.0598 19.3475C10.0209 19.3086 9.99904 19.2559 9.99904 19.2008V12.7916H8.10676C8.05173 12.7916 7.99896 12.7697 7.96005 12.7308C7.92113 12.6919 7.89927 12.6391 7.89927 12.5841V9.66266C7.89927 9.60763 7.92113 9.55486 7.96005 9.51595C7.99896 9.47704 8.05173 9.45518 8.10676 9.45518H9.99904V8.26628C9.99704 8.24974 9.99704 8.23302 9.99904 8.21648C9.99904 6.52961 10.3601 4.59998 13.1238 4.59169H15.8875C15.9425 4.59169 15.9953 4.61355 16.0342 4.65246C16.0731 4.69137 16.095 4.74414 16.095 4.79917V7.67701H16.0867Z" fill="#155A61"/>
</svg>
