<svg width="24" height="24" viewBox="0 0 24 24" fill="none" xmlns="http://www.w3.org/2000/svg">
<g clip-path="url(#clip0_739_1994)">
<path d="M16.2102 7.60938H14.3594V9.51618H16.2102V7.60938Z" fill="#155A61"/>
<path d="M15.0704 11.9797C15.072 12.44 14.9702 12.8948 14.7725 13.3105C14.5748 13.7262 14.2862 14.0921 13.928 14.3813C13.5699 14.6705 13.1514 14.8755 12.7033 14.9813C12.2553 15.087 11.7893 15.0907 11.3396 14.9922C10.89 14.8936 10.4682 14.6953 10.1055 14.4118C9.74277 14.1284 9.44837 13.7671 9.24403 13.3546C9.03969 12.9421 8.93063 12.489 8.92491 12.0287C8.91919 11.5684 9.01695 11.1127 9.21098 10.6953H7.17969V15.9696C7.18024 16.1995 7.27179 16.4198 7.43432 16.5823C7.59685 16.7448 7.81713 16.8364 8.04698 16.8369H15.9481C16.1781 16.8369 16.3987 16.7455 16.5614 16.5829C16.724 16.4202 16.8154 16.1996 16.8154 15.9696V10.6953H14.7841C14.9724 11.0973 15.0702 11.5357 15.0704 11.9797Z" fill="#155A61"/>
<path d="M11.9926 13.8057C12.3534 13.8063 12.7063 13.7 13.0068 13.5002C13.3072 13.3003 13.5418 13.016 13.6807 12.683C13.8197 12.35 13.8569 11.9833 13.7876 11.6292C13.7183 11.2751 13.5457 10.9494 13.2915 10.6934H10.702C10.4483 10.9489 10.2758 11.2738 10.2063 11.6272C10.1367 11.9805 10.1732 12.3465 10.3111 12.6792C10.4491 13.0118 10.6823 13.2963 10.9815 13.4967C11.2807 13.6971 11.6325 13.8046 11.9926 13.8057Z" fill="#155A61"/>
<path d="M11.9927 2.87006e-06C9.61952 0.00164411 7.30006 0.706887 5.32759 2.02658C3.35512 3.34626 1.81821 5.22114 0.91115 7.41419C0.00409186 9.60723 -0.232385 12.02 0.231615 14.3474C0.695615 16.6748 1.83926 18.8124 3.51796 20.49C5.19667 22.1675 7.33506 23.3097 9.66281 23.7721C11.9906 24.2345 14.4031 23.9963 16.5956 23.0878C18.788 22.1792 20.6618 20.641 21.9801 18.6676C23.2984 16.6942 24.0021 14.3743 24.0021 12.001C24.0021 10.4243 23.6914 8.8631 23.0878 7.40652C22.4841 5.94995 21.5994 4.6266 20.4841 3.51209C19.3689 2.39758 18.0449 1.51376 16.5879 0.911144C15.1309 0.308524 13.5694 -0.00108752 11.9927 2.87006e-06ZM18.0555 15.9765C18.0544 16.5363 17.8315 17.073 17.4356 17.4688C17.0398 17.8647 16.5032 18.0876 15.9433 18.0887H8.0505C7.48956 18.0876 6.95201 17.8639 6.55595 17.4666C6.15989 17.0694 5.93773 16.5312 5.93828 15.9703V8.03389C5.93938 7.47403 6.16227 6.93742 6.55815 6.54154C6.95403 6.14566 7.49064 5.92277 8.0505 5.92168H15.9516C16.5115 5.92277 17.0481 6.14566 17.4439 6.54154C17.8398 6.93742 18.0627 7.47403 18.0638 8.03389L18.0555 15.9765Z" fill="#155A61"/>
</g>
<defs>
<clipPath id="clip0_739_1994">
<rect width="24" height="24" fill="white"/>
</clipPath>
</defs>
</svg>
