<svg width="24" height="24" viewBox="0 0 24 24" fill="none" xmlns="http://www.w3.org/2000/svg">
<path d="M11.9886 4.48525e-06C9.61587 0.00205595 7.29701 0.707526 5.32516 2.02724C3.3533 3.34695 1.81698 5.22164 0.910397 7.41435C0.00381473 9.60705 -0.232325 12.0193 0.231828 14.3462C0.695982 16.6731 1.83959 18.8101 3.51809 20.4872C5.19658 22.1642 7.33461 23.306 9.6619 23.7681C11.9892 24.2303 14.4012 23.992 16.5932 23.0836C18.7851 22.1751 20.6585 20.6371 21.9765 18.6642C23.2945 16.6912 23.9979 14.3717 23.9979 11.999C23.9979 10.4224 23.6872 8.86122 23.0836 7.40477C22.4799 5.94831 21.5952 4.62509 20.4798 3.51075C19.3645 2.39641 18.0406 1.51279 16.5836 0.910392C15.1266 0.307998 13.5652 -0.00135865 11.9886 4.48525e-06ZM7.00891 5.41126C7.82641 5.41126 8.48829 6.01505 8.48829 6.75993C8.48829 7.5048 7.83886 8.10859 7.00891 8.10859C6.17896 8.10859 5.5316 7.5048 5.5316 6.75993C5.5316 6.01505 6.20179 5.41126 7.00891 5.41126ZM8.49867 16.9475H5.58555V9.32446H8.50697L8.49867 16.9475ZM18.4248 16.9475H15.4972V12.7563C15.4972 12.277 15.4101 11.9388 15.2316 11.7396C15.1361 11.637 15.019 11.557 14.8887 11.5053C14.7584 11.4536 14.6183 11.4316 14.4784 11.4408C14.3132 11.4363 14.1492 11.4703 13.9993 11.5402C13.8495 11.61 13.718 11.7138 13.6153 11.8434C13.3954 12.1117 13.2854 12.5958 13.2854 13.2958V16.9475H10.3723V9.32446H13.0924V10.5694C13.4289 10.1258 13.8525 9.75581 14.3373 9.48215C14.8105 9.25204 15.3324 9.14025 15.8582 9.1564C16.6674 9.1564 17.3003 9.39708 17.7567 9.87845C18.2132 10.3598 18.4421 11.1026 18.4435 12.1069V16.9475H18.4248Z" fill="#155A61"/>
</svg>
