<svg width="24" height="24" viewBox="0 0 24 24" fill="none" xmlns="http://www.w3.org/2000/svg">
<path d="M11.9927 2.87006e-06C9.61952 0.00164411 7.30006 0.706887 5.32759 2.02658C3.35512 3.34626 1.81821 5.22114 0.91115 7.41419C0.00409186 9.60723 -0.232385 12.02 0.231615 14.3474C0.695615 16.6748 1.83926 18.8124 3.51796 20.49C5.19667 22.1675 7.33506 23.3097 9.66281 23.7721C11.9906 24.2345 14.4031 23.9963 16.5956 23.0878C18.788 22.1792 20.6618 20.641 21.9801 18.6676C23.2984 16.6942 24.0021 14.3743 24.0021 12.001C24.0021 10.4243 23.6914 8.8631 23.0878 7.40652C22.4841 5.94995 21.5994 4.6266 20.4841 3.51209C19.3689 2.39758 18.0449 1.51376 16.5879 0.911144C15.1309 0.308524 13.5694 -0.00108752 11.9927 2.87006e-06ZM17.8501 9.01945C17.8501 9.01945 18.1364 10.4345 17.1115 12.9181C16.5218 14.333 15.5491 15.5554 14.3029 16.4479C13.0567 17.3404 11.5863 17.8677 10.0569 17.9704C6.56489 18.1779 4.68506 16.6446 4.68506 16.6446C7.30354 16.8521 8.46132 15.7711 9.08378 15.4183C6.66448 15.0988 6.31176 13.2709 6.31176 13.2709C6.54622 13.3705 7.26827 13.3373 7.6542 13.2377C5.27017 12.6484 5.22038 10.2498 5.22038 10.2498C5.22038 10.2498 6.11049 10.7022 6.61261 10.6192C4.31573 8.87214 5.6561 6.58978 5.6561 6.58978C8.69578 9.90957 11.9181 9.72906 11.9181 9.72906L11.9326 9.75188C11.8715 9.51254 11.8408 9.26646 11.8413 9.01945C11.8416 8.41336 12.0249 7.82149 12.3673 7.32136C12.7096 6.82123 13.1951 6.43616 13.76 6.21661C14.3249 5.99705 14.943 5.95324 15.5332 6.09091C16.1235 6.22859 16.6584 6.54132 17.0679 6.98816L17.0866 6.97571C17.7533 6.92691 18.3963 6.70757 18.9539 6.33872C18.7312 7.00407 18.2619 7.55874 17.6426 7.88865C17.6426 7.88865 17.6426 7.90732 17.653 7.91562C18.0285 7.82433 19.0349 7.57742 19.3129 7.50065C18.975 8.12965 18.4722 8.65472 17.8584 9.01945H17.8501Z" fill="#155A61"/>
</svg>
