<svg width="20" height="20" viewBox="0 0 20 20" fill="none" xmlns="http://www.w3.org/2000/svg">
<path d="M10.0032 0.142578C15.447 0.142578 19.8604 4.55601 19.8604 9.99972C19.8604 15.4434 15.447 19.8569 10.0032 19.8569C8.35667 19.8569 6.76753 19.4523 5.34896 18.6911L1.48839 19.8509C1.30306 19.9064 1.10615 19.9107 0.91856 19.8634C0.730972 19.816 0.559708 19.7188 0.422946 19.5819C0.286184 19.4451 0.18903 19.2737 0.141796 19.0861C0.0945619 18.8985 0.0990114 18.7016 0.154672 18.5163L1.31439 14.6566C0.545451 13.2249 0.144013 11.6248 0.146101 9.99972C0.146101 4.55601 4.55953 0.142578 10.0032 0.142578ZM10.0032 1.42829C5.26924 1.42829 1.43182 5.26572 1.43182 9.99972C1.43182 11.5169 1.8261 12.9757 2.56496 14.2623L2.7021 14.5023L1.49953 18.5051L5.5041 17.3026L5.7441 17.4397C7.02981 18.1769 8.48696 18.5711 10.0032 18.5711C14.7372 18.5711 18.5747 14.7337 18.5747 9.99972C18.5747 5.26572 14.7372 1.42829 10.0032 1.42829ZM6.78896 11.2854H10.6444C10.8073 11.2855 10.9641 11.3474 11.0831 11.4586C11.2021 11.5697 11.2744 11.722 11.2856 11.8845C11.2967 12.047 11.2457 12.2076 11.1429 12.334C11.0401 12.4603 10.8932 12.5429 10.7318 12.5651L10.6444 12.5711H6.78896C6.62608 12.5711 6.46929 12.5092 6.35028 12.398C6.23126 12.2868 6.15889 12.1346 6.14779 11.9721C6.13669 11.8096 6.18769 11.649 6.29047 11.5226C6.39326 11.3963 6.54017 11.3136 6.70153 11.2914L6.78896 11.2854ZM6.78896 7.42829H13.221C13.3838 7.42834 13.5406 7.49022 13.6596 7.60141C13.7787 7.71261 13.851 7.86483 13.8621 8.02733C13.8732 8.18983 13.8222 8.35049 13.7194 8.47683C13.6167 8.60318 13.4697 8.6858 13.3084 8.70801L13.221 8.71401H6.78896C6.62608 8.71396 6.46929 8.65208 6.35028 8.54089C6.23126 8.42969 6.15889 8.27746 6.14779 8.11497C6.13669 7.95247 6.18769 7.79181 6.29047 7.66546C6.39326 7.53912 6.54017 7.45649 6.70153 7.43429L6.78896 7.42829Z" fill="#706C64"/>
</svg>
